{
.appVersion = "1161";
classes = (
{
automatic = 1;

glyphs = (
{
glyphname = A;
layers = (
{
anchors = (
{
name = bottom;
position = "{225, 0}";
},
{
name = ogonek;
position = "{455, 0}";
},
{
name = top;
position = "{300, 700}";
}
);
background = {
anchors = (
{
name = bottom;
position = "{220, 0}";
},
{
name = ogonek;
position = "{381, 19}";
},
{
name = top;
position = "{293, 700}";
}
);
paths = (
{
closed = 1;
nodes = (
"68 -2 LINE SMOOTH",
"93 -2 OFFCURVE",
"113 3 OFFCURVE",
"117 19 CURVE SMOOTH",
"157 141 LINE",
"309 141 LINE",
"322 19 LINE SMOOTH",
"325 3 OFFCURVE",
"345 -2 OFFCURVE",
"373 -2 CURVE SMOOTH",
"426 -2 LINE SMOOTH",
"457 -2 OFFCURVE",
"470 6 OFFCURVE",
"471 20 CURVE SMOOTH",
"472 25 OFFCURVE",
"471 31 OFFCURVE",
"471 38 CURVE SMOOTH",
"384 674 LINE SMOOTH",
"381 693 OFFCURVE",
"362 702 OFFCURVE",
"325 702 CURVE SMOOTH",
"260 702 LINE SMOOTH",
"225 702 OFFCURVE",
"203 693 OFFCURVE",
"196 674 CURVE SMOOTH",
"-25 38 LINE SMOOTH",
"-28 31 OFFCURVE",
"-29 25 OFFCURVE",
"-30 20 CURVE SMOOTH",
"-31 6 OFFCURVE",
"-17 -2 OFFCURVE",
"16 -2 CURVE SMOOTH"
);
},
{
closed = 1;
nodes = (
"250 445 LINE SMOOTH",
"259 470 OFFCURVE",
"264 496 OFFCURVE",
"270 521 CURVE",
"275 521 LINE",
"275 496 OFFCURVE",
"277 470 OFFCURVE",
"279 445 CURVE SMOOTH",
"297 273 LINE",
"195 273 LINE"
);
}
);
};
layerId = "373C5ECE-2403-4F88-B498-8D3B1E7E9A2C";
paths = (
{
closed = 1;
nodes = (
"75 -2 LINE SMOOTH",
"100 -2 OFFCURVE",
"120 3 OFFCURVE",
"124 19 CURVE SMOOTH",
"164 141 LINE",
"320 141 LINE",
"333 19 LINE SMOOTH",
"336 3 OFFCURVE",
"356 -2 OFFCURVE",
"384 -2 CURVE SMOOTH",
"433 -2 LINE SMOOTH",
"464 -2 OFFCURVE",
"477 6 OFFCURVE",
"478 20 CURVE SMOOTH",
"479 25 OFFCURVE",
"479 31 OFFCURVE",
"478 38 CURVE SMOOTH",
"385 674 LINE SMOOTH",
"382 693 OFFCURVE",
"363 702 OFFCURVE",
"326 702 CURVE SMOOTH",
"270 702 LINE SMOOTH",
"235 702 OFFCURVE",
"213 693 OFFCURVE",
"206 674 CURVE SMOOTH",
"-15 46 LINE SMOOTH",
"-20 31 OFFCURVE",
"-23 25 OFFCURVE",
"-23 20 CURVE SMOOTH",
"-23 6 OFFCURVE",
"-10 -2 OFFCURVE",
"23 -2 CURVE SMOOTH"
);
},
{
closed = 1;
nodes = (
"262 475 LINE SMOOTH",
"270 500 OFFCURVE",
"276 526 OFFCURVE",
"282 551 CURVE",
"287 551 LINE",
"287 526 OFFCURVE",
"289 500 OFFCURVE",
"291 475 CURVE SMOOTH",
"312 263 LINE",
"194 263 LINE"
);
}
);
width = 505;
},
{
anchors = (
{
name = bottom;
position = "{225, 0}";
},
{
name = ogonek;
position = "{459, -2}";
},
{
name = top;
position = "{299, 700}";
}
);
background = {
paths = (
{
closed = 1;
nodes = (
"31 -2 LINE SMOOTH",
"49 -2 OFFCURVE",
"64 2 OFFCURVE",
"69 14 CURVE SMOOTH",
"128 178 LINE",
"343 178 LINE",
"369 14 LINE SMOOTH",
"370 2 OFFCURVE",
"384 -2 OFFCURVE",
"403 -2 CURVE SMOOTH",
"420 -2 LINE SMOOTH",
"445 -2 OFFCURVE",
"458 5 OFFCURVE",
"459 15 CURVE SMOOTH",
"459 19 OFFCURVE",
"459 23 OFFCURVE",
"457 28 CURVE SMOOTH",
"345 683 LINE SMOOTH",
"343 696 OFFCURVE",
"331 702 OFFCURVE",
"307 702 CURVE SMOOTH",
"275 702 LINE SMOOTH",
"252 702 OFFCURVE",
"238 696 OFFCURVE",
"233 683 CURVE SMOOTH",
"-17 28 LINE SMOOTH",
"-18 23 OFFCURVE",
"-20 19 OFFCURVE",
"-20 15 CURVE SMOOTH",
"-21 5 OFFCURVE",
"-11 -2 OFFCURVE",
"15 -2 CURVE SMOOTH"
);
},
{
closed = 1;
nodes = (
"258 525 LINE SMOOTH",
"266 544 OFFCURVE",
"271 567 OFFCURVE",
"277 586 CURVE",
"282 586 LINE",
"283 567 OFFCURVE",
"283 544 OFFCURVE",
"286 525 CURVE SMOOTH",
"329 254 LINE",
"159 254 LINE"
);
}
);
};
layerId = "E8E506BC-BBFD-46D4-BF6A-32B0AB7FBD03";
paths = (
{
closed = 1;
nodes = (
"38 -2 LINE SMOOTH",
"56 -2 OFFCURVE",
"71 2 OFFCURVE",
"76 14 CURVE SMOOTH",
"135 178 LINE",
"353 178 LINE",
"379 14 LINE SMOOTH",
"380 2 OFFCURVE",
"394 -2 OFFCURVE",
"410 -2 CURVE SMOOTH",
"427 -2 LINE SMOOTH",
"452 -2 OFFCURVE",
"465 5 OFFCURVE",
"466 15 CURVE SMOOTH",
"466 19 OFFCURVE",
"465 23 OFFCURVE",
"464 28 CURVE SMOOTH",
"349 683 LINE SMOOTH",
"347 696 OFFCURVE",
"335 702 OFFCURVE",
"311 702 CURVE SMOOTH",
"282 702 LINE SMOOTH",
"259 702 OFFCURVE",
"245 696 OFFCURVE",
"240 683 CURVE SMOOTH",
"-10 28 LINE SMOOTH",
"-11 23 OFFCURVE",
"-13 19 OFFCURVE",
"-13 15 CURVE SMOOTH",
"-14 5 OFFCURVE",
"-4 -2 OFFCURVE",
"22 -2 CURVE SMOOTH"
);
},
{
closed = 1;
nodes = (
"265 533 LINE SMOOTH",
"272 552 OFFCURVE",
"279 575 OFFCURVE",
"285 594 CURVE",
"290 594 LINE",
"291 575 OFFCURVE",
"293 552 OFFCURVE",
"296 533 CURVE SMOOTH",
"340 250 LINE",
"161 250 LINE"
);
}
);
width = 505;
},
{
anchors = (
{
name = bottom;
position = "{247, 0}";
},
{
name = ogonek;
position = "{444, 14}";
},
{
name = top;
position = "{246, 700}";
}
);
associatedMasterId = "E8E506BC-BBFD-46D4-BF6A-32B0AB7FBD03";
layerId = "76F17502-367F-435E-B23E-ED9D928E777B";
name = "SemiCondensed Italic Condensed Regular";
paths = (
{
closed = 1;
nodes = (
"59 -2 LINE SMOOTH",
"77 -2 OFFCURVE",
"92 2 OFFCURVE",
"95 14 CURVE SMOOTH",
"137 178 LINE",
"352 178 LINE",
"395 14 LINE SMOOTH",
"398 2 OFFCURVE",
"412 -2 OFFCURVE",
"431 -2 CURVE SMOOTH",
"448 -2 LINE SMOOTH",
"473 -2 OFFCURVE",
"485 5 OFFCURVE",
"485 15 CURVE SMOOTH",
"485 19 OFFCURVE",
"484 23 OFFCURVE",
"482 28 CURVE SMOOTH",
"301 683 LINE SMOOTH",
"298 696 OFFCURVE",
"285 702 OFFCURVE",
"261 702 CURVE SMOOTH",
"229 702 LINE SMOOTH",
"206 702 OFFCURVE",
"193 696 OFFCURVE",
"189 683 CURVE SMOOTH",
"8 28 LINE SMOOTH",
"7 23 OFFCURVE",
"6 19 OFFCURVE",
"6 15 CURVE SMOOTH",
"6 5 OFFCURVE",
"17 -2 OFFCURVE",
"43 -2 CURVE SMOOTH"
);
},
{
closed = 1;
nodes = (
"231 525 LINE SMOOTH",
"237 544 OFFCURVE",
"239 567 OFFCURVE",
"243 586 CURVE",
"248 586 LINE",
"251 567 OFFCURVE",
"254 544 OFFCURVE",
"259 525 CURVE SMOOTH",
"330 254 LINE",
"160 254 LINE"
);
}
);
width = 491;
},
{
anchors = (
{
name = bottom;
position = "{247, 0}";
},
{
name = ogonek;
position = "{406, 19}";
},
{
name = top;
position = "{246, 700}";
}
);
associatedMasterId = "373C5ECE-2403-4F88-B498-8D3B1E7E9A2C";
layerId = "6662946B-F990-402F-A6FD-22D24AB84B33";
name = "Bold SemiCondensed Italic Condensed Bold";
paths = (
{
closed = 1;
nodes = (
"95 -2 LINE SMOOTH",
"120 -2 OFFCURVE",
"139 3 OFFCURVE",
"142 19 CURVE SMOOTH",
"169 141 LINE",
"321 141 LINE",
"347 19 LINE SMOOTH",
"351 3 OFFCURVE",
"372 -2 OFFCURVE",
"400 -2 CURVE SMOOTH",
"453 -2 LINE SMOOTH",
"484 -2 OFFCURVE",
"496 6 OFFCURVE",
"496 20 CURVE SMOOTH",
"496 25 OFFCURVE",
"495 31 OFFCURVE",
"494 38 CURVE SMOOTH",
"340 674 LINE SMOOTH",
"335 693 OFFCURVE",
"315 702 OFFCURVE",
"278 702 CURVE SMOOTH",
"213 702 LINE SMOOTH",
"178 702 OFFCURVE",
"157 693 OFFCURVE",
"152 674 CURVE SMOOTH",
"-2 38 LINE SMOOTH",
"-4 31 OFFCURVE",
"-5 25 OFFCURVE",
"-5 20 CURVE SMOOTH",
"-5 6 OFFCURVE",
"10 -2 OFFCURVE",
"43 -2 CURVE SMOOTH"
);
},
{
closed = 1;
nodes = (
"230 445 LINE SMOOTH",
"236 470 OFFCURVE",
"239 496 OFFCURVE",
"242 521 CURVE",
"247 521 LINE",
"250 496 OFFCURVE",
"254 470 OFFCURVE",
"259 445 CURVE SMOOTH",
"295 273 LINE",
"193 273 LINE"
);
}
);
width = 491;
},
{
anchors = (
{
name = bottom;
position = "{301, 0}";
},
{
name = ogonek;
position = "{552, 0}";
},
{
name = top;
position = "{345, 700}";
}
);
associatedMasterId = "373C5ECE-2403-4F88-B498-8D3B1E7E9A2C";
background = {
anchors = (
{
name = bottom;
position = "{301, 0}";
},
{
name = ogonek;
position = "{552, 0}";
},
{
name = top;
position = "{345, 700}";
}
);
paths = (
{
closed = 1;
nodes = (
"319 702 LINE SMOOTH",
"290 702 OFFCURVE",
"267 697 OFFCURVE",
"260 681 CURVE SMOOTH",
"-31 38 LINE SMOOTH",
"-35 30 OFFCURVE",
"-37 24 OFFCURVE",
"-37 18 CURVE SMOOTH",
"-37 5 OFFCURVE",
"-18 -2 OFFCURVE",
"21 -2 CURVE SMOOTH",
"61 -2 LINE SMOOTH",
"85 -2 OFFCURVE",
"102 4 OFFCURVE",
"109 19 CURVE SMOOTH",
"164 141 LINE",
"406 141 LINE",
"435 19 LINE SMOOTH",
"439 3 OFFCURVE",
"459 -2 OFFCURVE",
"489 -2 CURVE SMOOTH",
"533 -2 LINE SMOOTH",
"568 -2 OFFCURVE",
"587 7 OFFCURVE",
"587 21 CURVE SMOOTH",
"587 24 OFFCURVE",
"585 35 OFFCURVE",
"584 38 CURVE SMOOTH",
"426 681 LINE SMOOTH",
"422 697 OFFCURVE",
"400 702 OFFCURVE",
"371 702 CURVE SMOOTH"
);
},
{
closed = 1;
nodes = (
"328 494 OFFCURVE",
"330 472 OFFCURVE",
"335 451 CURVE SMOOTH",
"375 273 LINE",
"221 273 LINE",
"301 451 LINE SMOOTH",
"310 471 OFFCURVE",
"317 494 OFFCURVE",
"323 515 CURVE",
"327 515 LINE"
);
}
);
};
layerId = "CA8B1BB9-00EE-4EB8-A32A-88DCC3F8503F";
name = "Bold SemiCondensed Italic Jun 13 15, 20:40";
paths = (
{
closed = 1;
nodes = (
"319 702 LINE SMOOTH",
"290 702 OFFCURVE",
"267 697 OFFCURVE",
"260 681 CURVE SMOOTH",
"-31 38 LINE SMOOTH",
"-35 30 OFFCURVE",
"-37 24 OFFCURVE",
"-37 18 CURVE SMOOTH",
"-37 5 OFFCURVE",
"-18 -2 OFFCURVE",
"21 -2 CURVE SMOOTH",
"61 -2 LINE SMOOTH",
"85 -2 OFFCURVE",
"102 4 OFFCURVE",
"109 19 CURVE SMOOTH",
"164 141 LINE",
"406 141 LINE",
"435 19 LINE SMOOTH",
"439 3 OFFCURVE",
"459 -2 OFFCURVE",
"489 -2 CURVE SMOOTH",
"533 -2 LINE SMOOTH",
"568 -2 OFFCURVE",
"587 7 OFFCURVE",
"587 21 CURVE SMOOTH",
"587 24 OFFCURVE",
"585 35 OFFCURVE",
"584 38 CURVE SMOOTH",
"426 681 LINE SMOOTH",
"422 697 OFFCURVE",
"400 702 OFFCURVE",
"371 702 CURVE SMOOTH"
);
},
{
closed = 1;
nodes = (
"328 494 OFFCURVE",
"330 472 OFFCURVE",
"335 451 CURVE SMOOTH",
"375 273 LINE",
"221 273 LINE",
"301 451 LINE SMOOTH",
"310 471 OFFCURVE",
"317 494 OFFCURVE",
"323 515 CURVE",
"327 515 LINE"
);
}
);
width = 491;
}
);
leftKerningGroup = A;
rightKerningGroup = A;
unicode = 0041;
},
{
glyphname = Aringacute;
layers = (
{
components = (
{
name = ringcomb.case;
transform = "{1, 0, 0, 1, 154, 47}";
}
);
layerId = "373C5ECE-2403-4F88-B498-8D3B1E7E9A2C";
paths = (
{
closed = 1;
nodes = (
"75 -2 LINE SMOOTH",
"100 -2 OFFCURVE",
"120 3 OFFCURVE",
"124 19 CURVE SMOOTH",
"164 141 LINE",
"320 141 LINE",
"333 19 LINE SMOOTH",
"336 3 OFFCURVE",
"356 -2 OFFCURVE",
"384 -2 CURVE SMOOTH",
"433 -2 LINE SMOOTH",
"464 -2 OFFCURVE",
"477 6 OFFCURVE",
"478 20 CURVE SMOOTH",
"479 25 OFFCURVE",
"479 31 OFFCURVE",
"478 38 CURVE SMOOTH",
"385 674 LINE",
"326 635 LINE",
"270 635 LINE",
"206 674 LINE",
"-18 38 LINE SMOOTH",
"-21 31 OFFCURVE",
"-22 25 OFFCURVE",
"-23 20 CURVE SMOOTH",
"-24 6 OFFCURVE",
"-10 -2 OFFCURVE",
"23 -2 CURVE SMOOTH"
);
},
{
closed = 1;
nodes = (
"262 475 LINE SMOOTH",
"270 500 OFFCURVE",
"276 526 OFFCURVE",
"282 551 CURVE",
"287 551 LINE",
"287 526 OFFCURVE",
"289 500 OFFCURVE",
"291 475 CURVE SMOOTH",
"312 263 LINE",
"194 263 LINE"
);
},
{
closed = 1;
nodes = (
"336 812 OFFCURVE",
"354 825 OFFCURVE",
"366 837 CURVE SMOOTH",
"449 907 OFFCURVE",
"454 909 OFFCURVE",
"455 917 CURVE SMOOTH",
"456 928 OFFCURVE",
"436 931 OFFCURVE",
"396 931 CURVE SMOOTH",
"356 931 OFFCURVE",
"323 925 OFFCURVE",
"308 904 CURVE SMOOTH",
"291 881 OFFCURVE",
"279 864 OFFCURVE",
"259 827 CURVE SMOOTH",
"258 816 OFFCURVE",
"265 812 OFFCURVE",
"289 812 CURVE SMOOTH"
);
}
);
width = 505;
},
{
components = (
{
name = ringcomb.case;
transform = "{1, 0, 0, 1, 171, 60}";
}
);
layerId = "E8E506BC-BBFD-46D4-BF6A-32B0AB7FBD03";
paths = (
{
closed = 1;
nodes = (
"38 -2 LINE SMOOTH",
"56 -2 OFFCURVE",
"71 2 OFFCURVE",
"76 14 CURVE SMOOTH",
"135 178 LINE",
"353 178 LINE",
"379 14 LINE SMOOTH",
"380 2 OFFCURVE",
"394 -2 OFFCURVE",
"410 -2 CURVE SMOOTH",
"427 -2 LINE SMOOTH",
"452 -2 OFFCURVE",
"465 5 OFFCURVE",
"466 15 CURVE SMOOTH",
"466 19 OFFCURVE",
"465 23 OFFCURVE",
"464 28 CURVE SMOOTH",
"349 683 LINE",
"308 644 LINE",
"279 644 LINE",
"240 683 LINE",
"-10 28 LINE SMOOTH",
"-11 23 OFFCURVE",
"-13 19 OFFCURVE",
"-13 15 CURVE SMOOTH",
"-14 5 OFFCURVE",
"-4 -2 OFFCURVE",
"22 -2 CURVE SMOOTH"
);
},
{
closed = 1;
nodes = (
"265 533 LINE SMOOTH",
"272 552 OFFCURVE",
"279 575 OFFCURVE",
"285 594 CURVE",
"290 594 LINE",
"291 575 OFFCURVE",
"293 552 OFFCURVE",
"296 533 CURVE SMOOTH",
"340 250 LINE",
"161 250 LINE"
);
},
{
closed = 1;
nodes = (
"315 822 OFFCURVE",
"335 828 OFFCURVE",
"347 840 CURVE SMOOTH",
"418 904 OFFCURVE",
"428 909 OFFCURVE",
"428 916 CURVE SMOOTH",
"429 926 OFFCURVE",
"414 929 OFFCURVE",
"382 929 CURVE SMOOTH",
"350 929 OFFCURVE",
"330 923 OFFCURVE",
"317 903 CURVE SMOOTH",
"303 881 OFFCURVE",
"294 868 OFFCURVE",
"272 832 CURVE SMOOTH",
"272 825 OFFCURVE",
"278 822 OFFCURVE",
"294 822 CURVE SMOOTH"
);
}
);
width = 505;
}
);
leftKerningGroup = A;
leftMetricsKey = A;
rightKerningGroup = A;
rightMetricsKey = A;
unicode = 01FA;
},
{
glyphname = AE;
layers = (
{
anchors = (
{
name = top;
position = "{491, 700}";
}
);
background = {
paths = (
{
closed = 1;
nodes = (
"101 -2 LINE SMOOTH",
"123 -2 OFFCURVE",
"135 5 OFFCURVE",
"140 19 CURVE SMOOTH",
"187 141 LINE",
"347 141 LINE",
"359 30 LINE SMOOTH",
"361 9 OFFCURVE",
"368 0 OFFCURVE",
"386 0 CURVE SMOOTH",
"673 0 LINE SMOOTH",
"693 0 OFFCURVE",
"702 15 OFFCURVE",
"702 50 CURVE SMOOTH",
"702 81 LINE SMOOTH",
"702 116 OFFCURVE",
"693 131 OFFCURVE",
"673 131 CURVE SMOOTH",
"493 131 LINE",
"476 293 LINE",
"652 293 LINE SMOOTH",
"672 293 OFFCURVE",
"681 308 OFFCURVE",
"681 343 CURVE SMOOTH",
"681 374 LINE SMOOTH",
"681 409 OFFCURVE",
"672 424 OFFCURVE",
"652 424 CURVE SMOOTH",
"459 424 LINE",
"444 569 LINE",
"672 569 LINE SMOOTH",
"692 569 OFFCURVE",
"701 584 OFFCURVE",
"701 619 CURVE SMOOTH",
"701 650 LINE SMOOTH",
"701 685 OFFCURVE",
"692 700 OFFCURVE",
"672 700 CURVE SMOOTH",
"280 700 LINE SMOOTH",
"263 700 OFFCURVE",
"252 692 OFFCURVE",
"245 673 CURVE SMOOTH",
"-1 38 LINE SMOOTH",
"-3 32 OFFCURVE",
"-4 25 OFFCURVE",
"-4 20 CURVE SMOOTH",
"-4 6 OFFCURVE",
"16 -2 OFFCURVE",
"55 -2 CURVE SMOOTH"
);
},
{
closed = 1;
nodes = (
"292 455 LINE",
"315 526 LINE",
"319 526 LINE",
"319 454 LINE",
"335 273 LINE",
"228 273 LINE"
);
}
);
};
layerId = "373C5ECE-2403-4F88-B498-8D3B1E7E9A2C";
paths = (
{
closed = 1;
nodes = (
"80 -2 LINE SMOOTH",
"102 -2 OFFCURVE",
"115 5 OFFCURVE",
"122 19 CURVE SMOOTH",
"181 141 LINE",
"341 141 LINE",
"342 30 LINE SMOOTH",
"341 9 OFFCURVE",
"348 0 OFFCURVE",
"366 0 CURVE SMOOTH",
"653 0 LINE SMOOTH",
"673 0 OFFCURVE",
"683 15 OFFCURVE",
"687 50 CURVE SMOOTH",
"690 81 LINE SMOOTH",
"694 116 OFFCURVE",
"686 131 OFFCURVE",
"666 131 CURVE SMOOTH",
"486 131 LINE",
"486 293 LINE",
"662 293 LINE SMOOTH",
"682 293 OFFCURVE",
"693 308 OFFCURVE",
"697 343 CURVE SMOOTH",
"700 374 LINE SMOOTH",
"704 409 OFFCURVE",
"696 424 OFFCURVE",
"676 424 CURVE SMOOTH",
"483 424 LINE",
"483 569 LINE",
"691 569 LINE SMOOTH",
"711 569 OFFCURVE",
"722 584 OFFCURVE",
"726 619 CURVE SMOOTH",
"729 650 LINE SMOOTH",
"733 685 OFFCURVE",
"725 700 OFFCURVE",
"705 700 CURVE SMOOTH",
"333 700 LINE SMOOTH",
"316 700 OFFCURVE",
"304 692 OFFCURVE",
"295 673 CURVE SMOOTH",
"-17 38 LINE SMOOTH",
"-20 32 OFFCURVE",
"-22 25 OFFCURVE",
"-22 20 CURVE SMOOTH",
"-24 6 OFFCURVE",
"-5 -2 OFFCURVE",
"34 -2 CURVE SMOOTH"
);
},
{
closed = 1;
nodes = (
"319 455 LINE",
"350 526 LINE",
"354 526 LINE",
"346 454 LINE",
"343 273 LINE",
"236 273 LINE"
);
}
);
width = 746;
},
{
anchors = (
{
name = top;
position = "{481, 700}";
}
);
background = {
paths = (
{
closed = 1;
nodes = (
"46 -2 LINE SMOOTH",
"63 -2 OFFCURVE",
"75 3 OFFCURVE",
"79 14 CURVE SMOOTH",
"142 178 LINE",
"358 178 LINE",
"380 29 LINE SMOOTH",
"383 9 OFFCURVE",
"392 0 OFFCURVE",
"409 0 CURVE SMOOTH",
"652 0 LINE SMOOTH",
"665 0 OFFCURVE",
"671 9 OFFCURVE",
"671 30 CURVE SMOOTH",
"671 46 LINE SMOOTH",
"671 67 OFFCURVE",
"665 76 OFFCURVE",
"652 76 CURVE SMOOTH",
"460 76 LINE",
"422 320 LINE",
"628 320 LINE SMOOTH",
"641 320 OFFCURVE",
"647 329 OFFCURVE",
"647 350 CURVE SMOOTH",
"647 366 LINE SMOOTH",
"647 387 OFFCURVE",
"641 396 OFFCURVE",
"628 396 CURVE SMOOTH",
"410 396 LINE",
"375 624 LINE",
"651 624 LINE SMOOTH",
"664 624 OFFCURVE",
"670 633 OFFCURVE",
"670 654 CURVE SMOOTH",
"670 670 LINE SMOOTH",
"670 691 OFFCURVE",
"664 700 OFFCURVE",
"651 700 CURVE SMOOTH",
"289 700 LINE SMOOTH",
"272 700 OFFCURVE",
"262 692 OFFCURVE",
"254 673 CURVE SMOOTH",
"-2 31 LINE SMOOTH",
"-5 25 OFFCURVE",
"-6 19 OFFCURVE",
"-6 15 CURVE SMOOTH",
"-6 4 OFFCURVE",
"5 -2 OFFCURVE",
"32 -2 CURVE SMOOTH"
);
}
);
};
layerId = "E8E506BC-BBFD-46D4-BF6A-32B0AB7FBD03";
paths = (
{
closed = 1;
nodes = (
"25 -2 LINE SMOOTH",
"42 -2 OFFCURVE",
"55 3 OFFCURVE",
"60 14 CURVE SMOOTH",
"140 178 LINE",
"356 178 LINE",
"363 29 LINE SMOOTH",
"363 9 OFFCURVE",
"372 0 OFFCURVE",
"389 0 CURVE SMOOTH",
"632 0 LINE SMOOTH",
"645 0 OFFCURVE",
"651 9 OFFCURVE",
"654 30 CURVE SMOOTH",
"655 46 LINE SMOOTH",
"658 67 OFFCURVE",
"653 76 OFFCURVE",
"640 76 CURVE SMOOTH",
"448 76 LINE",
"435 320 LINE",
"641 320 LINE SMOOTH",
"654 320 OFFCURVE",
"661 329 OFFCURVE",
"663 350 CURVE SMOOTH",
"665 366 LINE SMOOTH",
"667 387 OFFCURVE",
"662 396 OFFCURVE",
"649 396 CURVE SMOOTH",
"431 396 LINE",
"420 624 LINE",
"676 624 LINE SMOOTH",
"689 624 OFFCURVE",
"696 633 OFFCURVE",
"698 654 CURVE SMOOTH",
"700 670 LINE SMOOTH",
"702 691 OFFCURVE",
"697 700 OFFCURVE",
"684 700 CURVE SMOOTH",
"342 700 LINE SMOOTH",
"325 700 OFFCURVE",
"314 692 OFFCURVE",
"304 673 CURVE SMOOTH",
"-19 31 LINE SMOOTH",
"-23 25 OFFCURVE",
"-24 19 OFFCURVE",
"-25 15 CURVE SMOOTH",
"-26 4 OFFCURVE",
"-16 -2 OFFCURVE",
"11 -2 CURVE SMOOTH"
);
},
{
closed = 1;
nodes = (
"316 526 LINE",
"341 584 LINE",
"343 584 LINE",
"339 526 LINE",
"351 253 LINE",
"180 253 LINE"
);
}
);
width = 746;
}
);
leftKerningGroup = AE;
rightKerningGroup = E;
unicode = 00C6;
},
{
glyphname = B;
layers = (
{
anchors = (
{
name = bottom;
position = "{225, 0}";
},
{
name = top;
position = "{299, 700}";
}
);
background = {
paths = (
{
closed = 1;
nodes = (
"237 0 LINE SMOOTH",
"385 0 OFFCURVE",
"458 73 OFFCURVE",
"471 196 CURVE SMOOTH",
"480 285 OFFCURVE",
"442 342 OFFCURVE",
"373 362 CURVE",
"373 366 LINE",
"436 398 OFFCURVE",
"478 454 OFFCURVE",
"486 528 CURVE SMOOTH",
"497 639 OFFCURVE",
"440 700 OFFCURVE",
"288 700 CURVE SMOOTH",
"129 700 LINE SMOOTH",
"103 700 OFFCURVE",
"91 688 OFFCURVE",
"88 661 CURVE SMOOTH",
"22 40 LINE SMOOTH",
"19 12 OFFCURVE",
"29 0 OFFCURVE",
"55 0 CURVE SMOOTH"
);
},
{
closed = 1;
nodes = (
"202 291 LINE",
"253 291 LINE SMOOTH",
"302 291 OFFCURVE",
"323 270 OFFCURVE",
"316 212 CURVE SMOOTH",
"310 152 OFFCURVE",
"287 129 OFFCURVE",
"246 129 CURVE SMOOTH",
"185 129 LINE"
);
},
{
closed = 1;
nodes = (
"231 572 LINE",
"277 572 LINE SMOOTH",
"320 572 OFFCURVE",
"336 552 OFFCURVE",
"330 497 CURVE SMOOTH",
"325 444 OFFCURVE",
"301 420 OFFCURVE",
"259 420 CURVE SMOOTH",
"215 420 LINE"
);
}
);
};
layerId = "373C5ECE-2403-4F88-B498-8D3B1E7E9A2C";
paths = (
{
closed = 1;
nodes = (
"252 0 LINE SMOOTH",
"414 0 OFFCURVE",
"501 63 OFFCURVE",
"501 213 CURVE SMOOTH",
"501 290 OFFCURVE",
"467 343 OFFCURVE",
"408 362 CURVE",
"408 366 LINE",
"481 404 OFFCURVE",
"517 461 OFFCURVE",
"517 547 CURVE SMOOTH",
"517 645 OFFCURVE",
"457 700 OFFCURVE",
"313 700 CURVE SMOOTH",
"144 700 LINE SMOOTH",
"118 700 OFFCURVE",
"106 688 OFFCURVE",
"103 661 CURVE SMOOTH",
"37 40 LINE SMOOTH",
"34 12 OFFCURVE",
"44 0 OFFCURVE",
"70 0 CURVE SMOOTH"
);
},
{
closed = 1;
nodes = (
"212 296 LINE",
"278 296 LINE SMOOTH",
"331 296 OFFCURVE",
"352 276 OFFCURVE",
"352 223 CURVE SMOOTH",
"352 153 OFFCURVE",
"336 121 OFFCURVE",
"270 121 CURVE SMOOTH",
"194 121 LINE"
);
},
{
closed = 1;
nodes = (
"242 580 LINE",
"303 580 LINE SMOOTH",
"350 580 OFFCURVE",
"367 561 OFFCURVE",
"367 511 CURVE SMOOTH",
"367 449 OFFCURVE",
"350 415 OFFCURVE",
"294 415 CURVE SMOOTH",
"225 415 LINE"
);
}
);
width = 539;
},
{
anchors = (
{
name = bottom;
position = "{243, 0}";
},
{
name = top;
position = "{316, 700}";
}
);
background = {
paths = (
{
closed = 1;
nodes = (
"222 0 LINE SMOOTH",
"361 0 OFFCURVE",
"442 62 OFFCURVE",
"456 201 CURVE SMOOTH",
"469 326 OFFCURVE",
"382 359 OFFCURVE",
"360 367 CURVE",
"360 371 LINE",
"409 387 OFFCURVE",
"459 456 OFFCURVE",
"466 523 CURVE SMOOTH",
"477 628 OFFCURVE",
"425 700 OFFCURVE",
"296 700 CURVE SMOOTH",
"143 700 LINE SMOOTH",
"123 700 OFFCURVE",
"114 691 OFFCURVE",
"112 670 CURVE SMOOTH",
"44 30 LINE SMOOTH",
"42 9 OFFCURVE",
"49 0 OFFCURVE",
"69 0 CURVE SMOOTH"
);
},
{
closed = 1;
nodes = (
"165 322 LINE",
"260 322 LINE SMOOTH",
"336 322 OFFCURVE",
"372 278 OFFCURVE",
"365 205 CURVE SMOOTH",
"356 126 OFFCURVE",
"313 76 OFFCURVE",
"248 76 CURVE SMOOTH",
"139 76 LINE"
);
},
{
closed = 1;
nodes = (
"197 624 LINE",
"279 624 LINE SMOOTH",
"351 624 OFFCURVE",
"380 589 OFFCURVE",
"372 515 CURVE SMOOTH",
"366 450 OFFCURVE",
"319 398 OFFCURVE",
"257 398 CURVE SMOOTH",
"173 398 LINE"
);
}
);
};
layerId = "E8E506BC-BBFD-46D4-BF6A-32B0AB7FBD03";
paths = (
{
closed = 1;
nodes = (
"258 0 LINE SMOOTH",
"420 0 OFFCURVE",
"493 70 OFFCURVE",
"493 216 CURVE SMOOTH",
"493 330 OFFCURVE",
"416 360 OFFCURVE",
"396 367 CURVE",
"396 371 LINE",
"456 391 OFFCURVE",
"503 455 OFFCURVE",
"503 549 CURVE SMOOTH",
"503 640 OFFCURVE",
"448 700 OFFCURVE",
"312 700 CURVE SMOOTH",
"159 700 LINE SMOOTH",
"139 700 OFFCURVE",
"130 691 OFFCURVE",
"128 670 CURVE SMOOTH",
"60 30 LINE SMOOTH",
"58 9 OFFCURVE",
"65 0 OFFCURVE",
"85 0 CURVE SMOOTH"
);
},
{
closed = 1;
nodes = (
"181 322 LINE",
"286 322 LINE SMOOTH",
"366 322 OFFCURVE",
"402 285 OFFCURVE",
"402 212 CURVE SMOOTH",
"402 136 OFFCURVE",
"370 76 OFFCURVE",
"284 76 CURVE SMOOTH",
"155 76 LINE"
);
},
{
closed = 1;
nodes = (
"213 624 LINE",
"305 624 LINE SMOOTH",
"379 624 OFFCURVE",
"409 596 OFFCURVE",
"409 537 CURVE SMOOTH",
"409 443 OFFCURVE",
"373 398 OFFCURVE",
"293 398 CURVE SMOOTH",
"189 398 LINE"
);
}
);
width = 539;
},
{
anchors = (
{
name = bottom;
position = "{244, 0}";
},
{
name = top;
position = "{244, 700}";
}
);
associatedMasterId = "E8E506BC-BBFD-46D4-BF6A-32B0AB7FBD03";
layerId = "76F17502-367F-435E-B23E-ED9D928E777B";
name = "SemiCondensed Italic Condensed Regular";
paths = (
{
closed = 1;
nodes = (
"252 0 LINE SMOOTH",
"391 0 OFFCURVE",
"465 62 OFFCURVE",
"465 201 CURVE SMOOTH",
"465 326 OFFCURVE",
"374 359 OFFCURVE",
"351 367 CURVE",
"351 371 LINE",
"398 387 OFFCURVE",
"441 456 OFFCURVE",
"441 523 CURVE SMOOTH",
"441 628 OFFCURVE",
"381 700 OFFCURVE",
"252 700 CURVE SMOOTH",
"99 700 LINE SMOOTH",
"79 700 OFFCURVE",
"71 691 OFFCURVE",
"71 670 CURVE SMOOTH",
"71 30 LINE SMOOTH",
"71 9 OFFCURVE",
"79 0 OFFCURVE",
"99 0 CURVE SMOOTH"
);
},
{
closed = 1;
nodes = (
"161 322 LINE",
"256 322 LINE SMOOTH",
"332 322 OFFCURVE",
"373 278 OFFCURVE",
"373 205 CURVE SMOOTH",
"373 126 OFFCURVE",
"335 76 OFFCURVE",
"270 76 CURVE SMOOTH",
"161 76 LINE"
);
},
{
closed = 1;
nodes = (
"161 624 LINE",
"243 624 LINE SMOOTH",
"315 624 OFFCURVE",
"348 589 OFFCURVE",
"348 515 CURVE SMOOTH",
"348 450 OFFCURVE",
"307 398 OFFCURVE",
"245 398 CURVE SMOOTH",
"161 398 LINE"
);
}
);
width = 490;
},
{
anchors = (
{
name = bottom;
position = "{250, 0}";
},
{
name = top;
position = "{250, 700}";
}
);
associatedMasterId = "373C5ECE-2403-4F88-B498-8D3B1E7E9A2C";
layerId = "6662946B-F990-402F-A6FD-22D24AB84B33";
name = "Bold SemiCondensed Italic Condensed Bold";
paths = (
{
closed = 1;
nodes = (
"269 0 LINE SMOOTH",
"417 0 OFFCURVE",
"482 73 OFFCURVE",
"482 196 CURVE SMOOTH",
"482 285 OFFCURVE",
"438 342 OFFCURVE",
"367 362 CURVE",
"366 366 LINE",
"426 398 OFFCURVE",
"462 454 OFFCURVE",
"462 528 CURVE SMOOTH",
"462 639 OFFCURVE",
"398 700 OFFCURVE",
"246 700 CURVE SMOOTH",
"87 700 LINE SMOOTH",
"61 700 OFFCURVE",
"50 688 OFFCURVE",
"50 661 CURVE SMOOTH",
"50 40 LINE SMOOTH",
"50 12 OFFCURVE",
"61 0 OFFCURVE",
"87 0 CURVE SMOOTH"
);
},
{
closed = 1;
nodes = (
"203 291 LINE",
"254 291 LINE SMOOTH",
"303 291 OFFCURVE",
"326 270 OFFCURVE",
"326 212 CURVE SMOOTH",
"326 152 OFFCURVE",
"305 129 OFFCURVE",
"264 129 CURVE SMOOTH",
"203 129 LINE"
);
},
{
closed = 1;
nodes = (
"203 572 LINE",
"249 572 LINE SMOOTH",
"292 572 OFFCURVE",
"310 552 OFFCURVE",
"310 497 CURVE SMOOTH",
"310 444 OFFCURVE",
"289 420 OFFCURVE",
"247 420 CURVE SMOOTH",
"203 420 LINE"
);
}
);
width = 490;
},
{
associatedMasterId = "373C5ECE-2403-4F88-B498-8D3B1E7E9A2C";
background = {
paths = (
{
closed = 1;
nodes = (
"149 700 LINE SMOOTH",
"121 700 OFFCURVE",
"108 688 OFFCURVE",
"105 660 CURVE SMOOTH",
"44 69 OFFCURVE",
"40 41 OFFCURVE",
"40 32 CURVE SMOOTH",
"40 8 OFFCURVE",
"49 0 OFFCURVE",
"76 0 CURVE SMOOTH",
"288 0 LINE SMOOTH",
"458 0 OFFCURVE",
"560 80 OFFCURVE",
"560 220 CURVE SMOOTH",
"560 290 OFFCURVE",
"514 352 OFFCURVE",
"441 367 CURVE",
"441 371 LINE",
"512 400 OFFCURVE",
"566 467 OFFCURVE",
"566 546 CURVE SMOOTH",
"566 638 OFFCURVE",
"503 700 OFFCURVE",
"347 700 CURVE SMOOTH"
);
},
{
closed = 1;
nodes = (
"367 290 OFFCURVE",
"402 267 OFFCURVE",
"402 221 CURVE SMOOTH",
"402 163 OFFCURVE",
"361 131 OFFCURVE",
"301 131 CURVE SMOOTH",
"203 131 LINE",
"220 290 LINE",
"302 290 LINE SMOOTH"
);
},
{
closed = 1;
nodes = (
"377 570 OFFCURVE",
"404 549 OFFCURVE",
"404 507 CURVE SMOOTH",
"404 460 OFFCURVE",
"368 421 OFFCURVE",
"303 421 CURVE SMOOTH",
"234 421 LINE",
"250 570 LINE",
"321 570 LINE SMOOTH"
);
}
);
};
layerId = "8285EB7D-8746-489F-84DD-85A121E677C0";
name = "Bold SemiCondensed Italic Jun 13 15, 20:40";
paths = (
{
closed = 1;
nodes = (
"149 700 LINE SMOOTH",
"121 700 OFFCURVE",
"108 688 OFFCURVE",
"105 660 CURVE SMOOTH",
"44 69 OFFCURVE",
"40 41 OFFCURVE",
"40 32 CURVE SMOOTH",
"40 8 OFFCURVE",
"49 0 OFFCURVE",
"76 0 CURVE SMOOTH",
"288 0 LINE SMOOTH",
"458 0 OFFCURVE",
"560 80 OFFCURVE",
"560 220 CURVE SMOOTH",
"560 290 OFFCURVE",
"514 352 OFFCURVE",
"441 367 CURVE",
"441 371 LINE",
"512 400 OFFCURVE",
"566 467 OFFCURVE",
"566 546 CURVE SMOOTH",
"566 638 OFFCURVE",
"503 700 OFFCURVE",
"347 700 CURVE SMOOTH"
);
},
{
closed = 1;
nodes = (
"367 290 OFFCURVE",
"402 267 OFFCURVE",
"402 221 CURVE SMOOTH",
"402 163 OFFCURVE",
"361 131 OFFCURVE",
"301 131 CURVE SMOOTH",
"203 131 LINE",
"220 290 LINE",
"302 290 LINE SMOOTH"
);
},
{
closed = 1;
nodes = (
"377 570 OFFCURVE",
"404 549 OFFCURVE",
"404 507 CURVE SMOOTH",
"404 460 OFFCURVE",
"368 421 OFFCURVE",
"303 421 CURVE SMOOTH",
"234 421 LINE",
"250 570 LINE",
"321 570 LINE SMOOTH"
);
}
);
width = 490;
}
);
leftKerningGroup = H;
rightKerningGroup = B;
unicode = 0042;
},
{
glyphname = C;
layers = (
{
anchors = (
{
name = bottom;
position = "{291, 0}";
},
{
name = top;
position = "{329, 700}";
}
);
background = {
anchors = (
{
name = bottom;
position = "{222, 0}";
},
{
name = top;
position = "{324, 700}";
}
);
paths = (
{
closed = 1;
nodes = (
"323 -8 OFFCURVE",
"352 -5 OFFCURVE",
"375 6 CURVE SMOOTH",
"399 18 OFFCURVE",
"415 39 OFFCURVE",
"415 76 CURVE SMOOTH",
"416 119 OFFCURVE",
"403 147 OFFCURVE",
"374 139 CURVE SMOOTH",
"352 133 OFFCURVE",
"336 128 OFFCURVE",
"307 128 CURVE SMOOTH",
"225 128 OFFCURVE",
"191 204 OFFCURVE",
"206 351 CURVE SMOOTH",
"222 499 OFFCURVE",
"268 573 OFFCURVE",
"349 573 CURVE SMOOTH",
"376 573 OFFCURVE",
"396 568 OFFCURVE",
"412 563 CURVE SMOOTH",
"438 553 OFFCURVE",
"462 604 OFFCURVE",
"468 650 CURVE SMOOTH",
"471 671 OFFCURVE",
"467 690 OFFCURVE",
"442 697 CURVE SMOOTH",
"424 702 OFFCURVE",
"392 708 OFFCURVE",
"356 708 CURVE SMOOTH",
"169 708 OFFCURVE",
"72 590 OFFCURVE",
"47 352 CURVE SMOOTH",
"21 105 OFFCURVE",
"110 -8 OFFCURVE",
"293 -8 CURVE SMOOTH"
);
}
);
};
layerId = "373C5ECE-2403-4F88-B498-8D3B1E7E9A2C";
paths = (
{
closed = 1;
nodes = (
"320 -8 OFFCURVE",
"360 0 OFFCURVE",
"381 7 CURVE SMOOTH",
"407 16 OFFCURVE",
"416 31 OFFCURVE",
"416 77 CURVE SMOOTH",
"416 121 OFFCURVE",
"403 147 OFFCURVE",
"375 139 CURVE SMOOTH",
"351 132 OFFCURVE",
"333 128 OFFCURVE",
"308 128 CURVE SMOOTH",
"235 128 OFFCURVE",
"203 181 OFFCURVE",
"203 281 CURVE SMOOTH",
"203 461 OFFCURVE",
"259 573 OFFCURVE",
"350 573 CURVE SMOOTH",
"377 573 OFFCURVE",
"397 568 OFFCURVE",
"412 563 CURVE SMOOTH",
"439 554 OFFCURVE",
"462 604 OFFCURVE",
"469 651 CURVE SMOOTH",
"472 671 OFFCURVE",
"467 690 OFFCURVE",
"443 697 CURVE SMOOTH",
"425 702 OFFCURVE",
"392 708 OFFCURVE",
"357 708 CURVE SMOOTH",
"152 708 OFFCURVE",
"42 550 OFFCURVE",
"42 258 CURVE SMOOTH",
"42 77 OFFCURVE",
"114 -8 OFFCURVE",
"277 -8 CURVE SMOOTH"
);
}
);
width = 459;
},
{
anchors = (
{
name = bottom;
position = "{285, 0}";
},
{
name = top;
position = "{338, 700}";
}
);
background = {
paths = (
{
closed = 1;
nodes = (
"327 -6 OFFCURVE",
"369 5 OFFCURVE",
"390 15 CURVE SMOOTH",
"411 25 OFFCURVE",
"416 36 OFFCURVE",
"418 48 CURVE SMOOTH",
"419 66 OFFCURVE",
"413 109 OFFCURVE",
"386 97 CURVE SMOOTH",
"362 84 OFFCURVE",
"330 72 OFFCURVE",
"289 72 CURVE SMOOTH",
"175 72 OFFCURVE",
"131 160 OFFCURVE",
"151 351 CURVE SMOOTH",
"172 543 OFFCURVE",
"235 628 OFFCURVE",
"349 628 CURVE SMOOTH",
"388 628 OFFCURVE",
"414 617 OFFCURVE",
"433 607 CURVE SMOOTH",
"455 594 OFFCURVE",
"469 648 OFFCURVE",
"470 660 CURVE SMOOTH",
"471 675 OFFCURVE",
"468 682 OFFCURVE",
"456 687 CURVE SMOOTH",
"432 698 OFFCURVE",
"395 706 OFFCURVE",
"357 706 CURVE SMOOTH",
"165 706 OFFCURVE",
"84 592 OFFCURVE",
"58 350 CURVE SMOOTH",
"33 106 OFFCURVE",
"104 -6 OFFCURVE",
"281 -6 CURVE SMOOTH"
);
}
);
};
layerId = "E8E506BC-BBFD-46D4-BF6A-32B0AB7FBD03";
paths = (
{
closed = 1;
nodes = (
"327 -6 OFFCURVE",
"370 5 OFFCURVE",
"391 15 CURVE SMOOTH",
"412 25 OFFCURVE",
"419 37 OFFCURVE",
"419 54 CURVE SMOOTH",
"419 76 OFFCURVE",
"409 108 OFFCURVE",
"387 97 CURVE SMOOTH",
"357 82 OFFCURVE",
"330 72 OFFCURVE",
"290 72 CURVE SMOOTH",
"194 72 OFFCURVE",
"147 135 OFFCURVE",
"147 269 CURVE SMOOTH",
"147 498 OFFCURVE",
"221 628 OFFCURVE",
"349 628 CURVE SMOOTH",
"390 628 OFFCURVE",
"420 615 OFFCURVE",
"434 607 CURVE SMOOTH",
"456 594 OFFCURVE",
"471 649 OFFCURVE",
"471 666 CURVE SMOOTH",
"471 676 OFFCURVE",
"467 683 OFFCURVE",
"457 687 CURVE SMOOTH",
"432 697 OFFCURVE",
"394 706 OFFCURVE",
"357 706 CURVE SMOOTH",
"163 706 OFFCURVE",
"54 547 OFFCURVE",
"54 261 CURVE SMOOTH",
"54 79 OFFCURVE",
"128 -6 OFFCURVE",
"282 -6 CURVE SMOOTH"
);
}
);
width = 459;
},
{
anchors = (
{
name = bottom;
position = "{296, 0}";
},
{
name = top;
position = "{290, 700}";
}
);
associatedMasterId = "E8E506BC-BBFD-46D4-BF6A-32B0AB7FBD03";
layerId = "76F17502-367F-435E-B23E-ED9D928E777B";
name = "SemiCondensed Italic Condensed Regular";
paths = (
{
closed = 1;
nodes = (
"394 -6 OFFCURVE",
"472 39 OFFCURVE",
"472 66 CURVE SMOOTH",
"472 81 OFFCURVE",
"453 120 OFFCURVE",
"437 120 CURVE SMOOTH",
"424 120 OFFCURVE",
"382 72 OFFCURVE",
"302 72 CURVE SMOOTH",
"188 72 OFFCURVE",
"135 160 OFFCURVE",
"135 351 CURVE SMOOTH",
"135 543 OFFCURVE",
"189 628 OFFCURVE",
"303 628 CURVE SMOOTH",
"378 628 OFFCURVE",
"414 586 OFFCURVE",
"426 586 CURVE SMOOTH",
"443 586 OFFCURVE",
"462 626 OFFCURVE",
"462 643 CURVE SMOOTH",
"462 668 OFFCURVE",
"386 706 OFFCURVE",
"303 706 CURVE SMOOTH",
"128 706 OFFCURVE",
"42 592 OFFCURVE",
"42 350 CURVE SMOOTH",
"42 106 OFFCURVE",
"125 -6 OFFCURVE",
"302 -6 CURVE SMOOTH"
);
}
);
width = 496;
},
{
anchors = (
{
name = bottom;
position = "{295, 0}";
},
{
name = top;
position = "{290, 700}";
}
);
associatedMasterId = "373C5ECE-2403-4F88-B498-8D3B1E7E9A2C";
layerId = "6662946B-F990-402F-A6FD-22D24AB84B33";
name = "Bold SemiCondensed Italic Condensed Bold";
paths = (
{
closed = 1;
nodes = (
"397 -8 OFFCURVE",
"483 34 OFFCURVE",
"483 76 CURVE SMOOTH",
"483 92 OFFCURVE",
"459 159 OFFCURVE",
"424 159 CURVE SMOOTH",
"407 159 OFFCURVE",
"374 128 OFFCURVE",
"308 128 CURVE SMOOTH",
"230 128 OFFCURVE",
"190 204 OFFCURVE",
"190 351 CURVE SMOOTH",
"190 499 OFFCURVE",
"228 573 OFFCURVE",
"309 573 CURVE SMOOTH",
"374 573 OFFCURVE",
"402 547 OFFCURVE",
"415 547 CURVE SMOOTH",
"440 547 OFFCURVE",
"479 611 OFFCURVE",
"479 638 CURVE SMOOTH",
"479 667 OFFCURVE",
"401 708 OFFCURVE",
"302 708 CURVE SMOOTH",
"115 708 OFFCURVE",
"30 590 OFFCURVE",
"30 352 CURVE SMOOTH",
"30 105 OFFCURVE",
"109 -8 OFFCURVE",
"297 -8 CURVE SMOOTH"
);
}
);
width = 496;
},
{
anchors = (
{
name = bottom;
position = "{310, 0}";
},
{
name = top;
position = "{399, 700}";
}
);
associatedMasterId = "373C5ECE-2403-4F88-B498-8D3B1E7E9A2C";
background = {
anchors = (
{
name = bottom;
position = "{310, 0}";
},
{
name = top;
position = "{399, 700}";
}
);
paths = (
{
closed = 1;
nodes = (
"133 708 OFFCURVE",
"42 506 OFFCURVE",
"42 276 CURVE SMOOTH",
"42 82 OFFCURVE",
"137 -8 OFFCURVE",
"337 -8 CURVE SMOOTH",
"386 -8 OFFCURVE",
"542 6 OFFCURVE",
"554 68 CURVE SMOOTH",
"563 116 OFFCURVE",
"564 156 OFFCURVE",
"564 163 CURVE SMOOTH",
"564 176 OFFCURVE",
"558 178 OFFCURVE",
"552 178 CURVE SMOOTH",
"538 178 OFFCURVE",
"464 123 OFFCURVE",
"351 123 CURVE SMOOTH",
"250 123 OFFCURVE",
"201 183 OFFCURVE",
"201 298 CURVE SMOOTH",
"201 483 OFFCURVE",
"272 576 OFFCURVE",
"400 576 CURVE SMOOTH",
"495 576 OFFCURVE",
"532 544 OFFCURVE",
"544 544 CURVE SMOOTH",
"569 544 OFFCURVE",
"619 613 OFFCURVE",
"619 640 CURVE SMOOTH",
"619 681 OFFCURVE",
"503 708 OFFCURVE",
"417 708 CURVE SMOOTH"
);
}
);
};
layerId = "6EEFC54B-0627-4D6E-9206-38B36CEC36CB";
name = "Bold SemiCondensed Italic Jun 13 15, 20:40";
paths = (
{
closed = 1;
nodes = (
"133 708 OFFCURVE",
"42 506 OFFCURVE",
"42 276 CURVE SMOOTH",
"42 82 OFFCURVE",
"137 -8 OFFCURVE",
"337 -8 CURVE SMOOTH",
"386 -8 OFFCURVE",
"542 6 OFFCURVE",
"554 68 CURVE SMOOTH",
"563 116 OFFCURVE",
"564 156 OFFCURVE",
"564 163 CURVE SMOOTH",
"564 176 OFFCURVE",
"558 178 OFFCURVE",
"552 178 CURVE SMOOTH",
"538 178 OFFCURVE",
"464 123 OFFCURVE",
"351 123 CURVE SMOOTH",
"250 123 OFFCURVE",
"201 183 OFFCURVE",
"201 298 CURVE SMOOTH",
"201 483 OFFCURVE",
"272 576 OFFCURVE",
"400 576 CURVE SMOOTH",
"495 576 OFFCURVE",
"532 544 OFFCURVE",
"544 544 CURVE SMOOTH",
"569 544 OFFCURVE",
"619 613 OFFCURVE",
"619 640 CURVE SMOOTH",
"619 681 OFFCURVE",
"503 708 OFFCURVE",
"417 708 CURVE SMOOTH"
);
}
);
width = 496;
}
);
leftKerningGroup = O;
rightKerningGroup = C;
unicode = 0043;
},
{
glyphname = D;
layers = (
{
anchors = (
{
name = bottom;
position = "{243, 0}";
},
{
name = center;
position = "{141, 350}";
},
{
name = top;
position = "{324, 700}";
}
);
layerId = "373C5ECE-2403-4F88-B498-8D3B1E7E9A2C";
paths = (
{
closed = 1;
nodes = (
"267 0 LINE SMOOTH",
"478 0 OFFCURVE",
"562 178 OFFCURVE",
"562 397 CURVE SMOOTH",
"562 608 OFFCURVE",
"490 700 OFFCURVE",
"321 700 CURVE SMOOTH",
"151 700 LINE SMOOTH",
"125 700 OFFCURVE",
"113 688 OFFCURVE",
"110 660 CURVE SMOOTH",
"44 40 LINE SMOOTH",
"41 12 OFFCURVE",
"51 0 OFFCURVE",
"77 0 CURVE SMOOTH"
);
},
{
closed = 1;
nodes = (
"258 569 LINE",
"302 569 LINE SMOOTH",
"374 569 OFFCURVE",
"403 530 OFFCURVE",
"403 398 CURVE SMOOTH",
"403 282 OFFCURVE",
"375 131 OFFCURVE",
"276 131 CURVE SMOOTH",
"212 131 LINE"
);
}
);
width = 577;
},
{
anchors = (
{
name = bottom;
position = "{247, 0}";
},
{
name = center;
position = "{134, 350}";
},
{
name = top;
position = "{320, 700}";
}
);
layerId = "E8E506BC-BBFD-46D4-BF6A-32B0AB7FBD03";
paths = (
{
closed = 1;
nodes = (
"252 0 LINE SMOOTH",
"478 0 OFFCURVE",
"545 188 OFFCURVE",
"545 424 CURVE SMOOTH",
"545 626 OFFCURVE",
"457 700 OFFCURVE",
"316 700 CURVE SMOOTH",
"158 700 LINE SMOOTH",
"139 700 OFFCURVE",
"130 691 OFFCURVE",
"128 670 CURVE SMOOTH",
"60 30 LINE SMOOTH",
"58 9 OFFCURVE",
"65 0 OFFCURVE",
"84 0 CURVE SMOOTH"
);
},
{
closed = 1;
nodes = (
"214 624 LINE",
"306 624 LINE SMOOTH",
"397 624 OFFCURVE",
"452 565 OFFCURVE",
"452 415 CURVE SMOOTH",
"452 247 OFFCURVE",
"415 76 OFFCURVE",
"258 76 CURVE SMOOTH",
"156 76 LINE"
);
}
);
width = 577;
},
{
anchors = (
{
name = bottom;
position = "{266, 0}";
},
{
name = center;
position = "{116, 350}";
},
{
name = top;
position = "{265, 700}";
}
);
associatedMasterId = "E8E506BC-BBFD-46D4-BF6A-32B0AB7FBD03";
layerId = "76F17502-367F-435E-B23E-ED9D928E777B";
name = "SemiCondensed Italic Condensed Regular";
paths = (
{
closed = 1;
nodes = (
"266 0 LINE SMOOTH",
"414 0 OFFCURVE",
"517 90 OFFCURVE",
"517 350 CURVE SMOOTH",
"517 609 OFFCURVE",
"414 700 OFFCURVE",
"266 700 CURVE SMOOTH",
"98 700 LINE SMOOTH",
"79 700 OFFCURVE",
"71 691 OFFCURVE",
"71 670 CURVE SMOOTH",
"71 30 LINE SMOOTH",
"71 9 OFFCURVE",
"79 0 OFFCURVE",
"98 0 CURVE SMOOTH"
);
},
{
closed = 1;
nodes = (
"162 624 LINE",
"264 624 LINE SMOOTH",
"358 624 OFFCURVE",
"425 549 OFFCURVE",
"425 350 CURVE SMOOTH",
"425 150 OFFCURVE",
"358 76 OFFCURVE",
"264 76 CURVE SMOOTH",
"162 76 LINE"
);
}
);
width = 560;
},
{
anchors = (
{
name = bottom;
position = "{268, 0}";
},
{
name = center;
position = "{129, 350}";
},
{
name = top;
position = "{275, 700}";
}
);
associatedMasterId = "373C5ECE-2403-4F88-B498-8D3B1E7E9A2C";
layerId = "6662946B-F990-402F-A6FD-22D24AB84B33";
name = "Bold SemiCondensed Italic Condensed Bold";
paths = (
{
closed = 1;
nodes = (
"277 0 LINE SMOOTH",
"453 0 OFFCURVE",
"530 118 OFFCURVE",
"530 350 CURVE SMOOTH",
"530 582 OFFCURVE",
"453 700 OFFCURVE",
"277 700 CURVE SMOOTH",
"87 700 LINE SMOOTH",
"61 700 OFFCURVE",
"50 688 OFFCURVE",
"50 660 CURVE SMOOTH",
"50 40 LINE SMOOTH",
"50 12 OFFCURVE",
"61 0 OFFCURVE",
"87 0 CURVE SMOOTH"
);
},
{
closed = 1;
nodes = (
"208 569 LINE",
"272 569 LINE SMOOTH",
"342 569 OFFCURVE",
"371 511 OFFCURVE",
"371 350 CURVE SMOOTH",
"371 189 OFFCURVE",
"342 131 OFFCURVE",
"272 131 CURVE SMOOTH",
"208 131 LINE"
);
}
);
width = 563;
},
{
anchors = (
{
name = bottom;
position = "{291, 0}";
},
{
name = center;
position = "{348, 350}";
},
{
name = top;
position = "{348, 700}";
}
);
associatedMasterId = "373C5ECE-2403-4F88-B498-8D3B1E7E9A2C";
background = {
anchors = (
{
name = bottom;
position = "{291, 0}";
},
{
name = center;
position = "{348, 350}";
},
{
name = top;
position = "{348, 700}";
}
);
paths = (
{
closed = 1;
nodes = (
"149 700 LINE SMOOTH",
"121 700 OFFCURVE",
"108 688 OFFCURVE",
"105 660 CURVE SMOOTH",
"83 451 OFFCURVE",
"40 45 OFFCURVE",
"40 33 CURVE SMOOTH",
"40 9 OFFCURVE",
"49 0 OFFCURVE",
"76 0 CURVE SMOOTH",
"300 0 LINE SMOOTH",
"519 0 OFFCURVE",
"660 146 OFFCURVE",
"660 411 CURVE SMOOTH",
"660 598 OFFCURVE",
"560 700 OFFCURVE",
"373 700 CURVE SMOOTH"
);
},
{
closed = 1;
nodes = (
"454 569 OFFCURVE",
"501 509 OFFCURVE",
"501 397 CURVE SMOOTH",
"501 225 OFFCURVE",
"428 131 OFFCURVE",
"313 131 CURVE SMOOTH",
"204 131 LINE",
"251 569 LINE",
"360 569 LINE SMOOTH"
);
}
);
};
layerId = "8958A612-DDD3-4DA7-AE9E-3A076403F9AF";
name = "Bold SemiCondensed Italic Jun 13 15, 20:40";
paths = (
{
closed = 1;
nodes = (
"149 700 LINE SMOOTH",
"121 700 OFFCURVE",
"108 688 OFFCURVE",
"105 660 CURVE SMOOTH",
"83 451 OFFCURVE",
"40 45 OFFCURVE",
"40 33 CURVE SMOOTH",
"40 9 OFFCURVE",
"49 0 OFFCURVE",
"76 0 CURVE SMOOTH",
"300 0 LINE SMOOTH",
"519 0 OFFCURVE",
"660 146 OFFCURVE",
"660 411 CURVE SMOOTH",
"660 598 OFFCURVE",
"560 700 OFFCURVE",
"373 700 CURVE SMOOTH"
);
},
{
closed = 1;
nodes = (
"454 569 OFFCURVE",
"501 509 OFFCURVE",
"501 397 CURVE SMOOTH",
"501 225 OFFCURVE",
"428 131 OFFCURVE",
"313 131 CURVE SMOOTH",
"204 131 LINE",
"251 569 LINE",
"360 569 LINE SMOOTH"
);
}
);
width = 563;
}
);
leftKerningGroup = H;
rightKerningGroup = O;
unicode = 0044;
},
{
glyphname = Eth;
layers = (
{
background = {
paths = (
{
closed = 1;
nodes = (
"287 290 LINE",
"316 290 OFFCURVE",
"325 329 OFFCURVE",
"325 381 CURVE SMOOTH",
"325 409 OFFCURVE",
"317 421 OFFCURVE",
"299 421 CURVE",
"54 421 LINE",
"25 421 OFFCURVE",
"16 382 OFFCURVE",
"16 330 CURVE SMOOTH",
"16 302 OFFCURVE",
"24 290 OFFCURVE",
"42 290 CURVE"
);
}
);
};
components = (
{
name = D;
}
);
layerId = "373C5ECE-2403-4F88-B498-8D3B1E7E9A2C";
paths = (
{
closed = 1;
nodes = (
"284 290 LINE SMOOTH",
"307 290 OFFCURVE",
"316 307 OFFCURVE",
"321 347 CURVE SMOOTH",
"323 364 LINE SMOOTH",
"328 404 OFFCURVE",
"319 421 OFFCURVE",
"296 421 CURVE SMOOTH",
"59 421 LINE SMOOTH",
"35 421 OFFCURVE",
"25 405 OFFCURVE",
"21 365 CURVE SMOOTH",
"19 347 LINE SMOOTH",
"15 307 OFFCURVE",
"23 290 OFFCURVE",
"47 290 CURVE SMOOTH"
);
}
);
width = 577;
},
{
background = {
paths = (
{
closed = 1;
nodes = (
"287 320 LINE",
"312 320 OFFCURVE",
"312 351 OFFCURVE",
"312 374 CURVE SMOOTH",
"312 389 OFFCURVE",
"307 396 OFFCURVE",
"295 396 CURVE",
"45 396 LINE",
"20 396 OFFCURVE",
"20 365 OFFCURVE",
"20 342 CURVE SMOOTH",
"20 327 OFFCURVE",
"25 320 OFFCURVE",
"37 320 CURVE"
);
}
);
};
components = (
{
name = D;
}
);
layerId = "E8E506BC-BBFD-46D4-BF6A-32B0AB7FBD03";
paths = (
{
closed = 1;
nodes = (
"292 320 LINE SMOOTH",
"306 320 OFFCURVE",
"313 330 OFFCURVE",
"315 352 CURVE SMOOTH",
"316 364 LINE SMOOTH",
"318 386 OFFCURVE",
"312 396 OFFCURVE",
"296 396 CURVE SMOOTH",
"48 396 LINE SMOOTH",
"33 396 OFFCURVE",
"24 389 OFFCURVE",
"22 367 CURVE SMOOTH",
"20 349 LINE SMOOTH",
"18 330 OFFCURVE",
"25 320 OFFCURVE",
"39 320 CURVE SMOOTH"
);
}
);
width = 577;
}
);
leftKerningGroup = H;
rightKerningGroup = O;
rightMetricsKey = "=D";
unicode = 00D0;
},
{
glyphname = E;
layers = (
{
anchors = (
{
name = bottom;
position = "{219, 0}";
},
{
name = ogonek;
position = "{365, 0}";
},
{
name = top;
position = "{283, 700}";
}
);
layerId = "373C5ECE-2403-4F88-B498-8D3B1E7E9A2C";
paths = (
{
closed = 1;
nodes = (
"363 0 LINE SMOOTH",
"383 0 OFFCURVE",
"394 15 OFFCURVE",
"397 50 CURVE SMOOTH",
"400 81 LINE SMOOTH",
"403 116 OFFCURVE",
"397 131 OFFCURVE",
"377 131 CURVE SMOOTH",
"200 131 LINE",
"217 293 LINE",
"373 293 LINE SMOOTH",
"393 293 OFFCURVE",
"405 308 OFFCURVE",
"408 343 CURVE SMOOTH",
"411 374 LINE SMOOTH",
"414 409 OFFCURVE",
"407 424 OFFCURVE",
"387 424 CURVE SMOOTH",
"231 424 LINE",
"246 569 LINE",
"422 569 LINE SMOOTH",
"442 569 OFFCURVE",
"454 584 OFFCURVE",
"457 619 CURVE SMOOTH",
"460 650 LINE SMOOTH",
"463 685 OFFCURVE",
"456 700 OFFCURVE",
"436 700 CURVE SMOOTH",
"141 700 LINE SMOOTH",
"115 700 OFFCURVE",
"103 688 OFFCURVE",
"100 660 CURVE SMOOTH",
"34 40 LINE SMOOTH",
"31 12 OFFCURVE",
"41 0 OFFCURVE",
"67 0 CURVE SMOOTH"
);
}
);
width = 457;
},
{
anchors = (
{
name = bottom;
position = "{221, 0}";
},
{
name = ogonek;
position = "{379, 0}";
},
{
name = top;
position = "{290, 700}";
}
);
background = {
paths = (
{
closed = 1;
nodes = (
"304 0 LINE",
"367 0 LINE SMOOTH",
"381 0 OFFCURVE",
"387 9 OFFCURVE",
"389 30 CURVE SMOOTH",
"391 46 LINE SMOOTH",
"393 67 OFFCURVE",
"389 76 OFFCURVE",
"375 76 CURVE SMOOTH",
"312 76 LINE"
);
},
{
closed = 1;
nodes = (
"338 320 LINE",
"378 320 LINE SMOOTH",
"391 320 OFFCURVE",
"398 329 OFFCURVE",
"400 350 CURVE SMOOTH",
"402 366 LINE SMOOTH",
"404 387 OFFCURVE",
"399 396 OFFCURVE",
"386 396 CURVE SMOOTH",
"345 396 LINE"
);
},
{
closed = 1;
nodes = (
"369 624 LINE",
"433 624 LINE SMOOTH",
"446 624 OFFCURVE",
"453 633 OFFCURVE",
"455 654 CURVE SMOOTH",
"457 670 LINE SMOOTH",
"459 691 OFFCURVE",
"454 700 OFFCURVE",
"441 700 CURVE SMOOTH",
"377 700 LINE"
);
},
{
closed = 1;
nodes = (
"377 700 LINE",
"153 700 LINE SMOOTH",
"134 700 OFFCURVE",
"125 691 OFFCURVE",
"123 670 CURVE SMOOTH",
"55 30 LINE SMOOTH",
"53 9 OFFCURVE",
"60 0 OFFCURVE",
"79 0 CURVE SMOOTH",
"304 0 LINE",
"312 76 LINE",
"150 76 LINE",
"176 320 LINE",
"338 320 LINE",
"345 396 LINE",
"184 396 LINE",
"208 624 LINE",
"369 624 LINE"
);
}
);
};
layerId = "E8E506BC-BBFD-46D4-BF6A-32B0AB7FBD03";
paths = (
{
closed = 1;
nodes = (
"367 0 LINE SMOOTH",
"381 0 OFFCURVE",
"387 9 OFFCURVE",
"389 30 CURVE SMOOTH",
"391 46 LINE SMOOTH",
"393 67 OFFCURVE",
"389 76 OFFCURVE",
"375 76 CURVE SMOOTH",
"150 76 LINE",
"176 320 LINE",
"378 320 LINE SMOOTH",
"391 320 OFFCURVE",
"398 329 OFFCURVE",
"400 350 CURVE SMOOTH",
"402 366 LINE SMOOTH",
"404 387 OFFCURVE",
"399 396 OFFCURVE",
"386 396 CURVE SMOOTH",
"184 396 LINE",
"208 624 LINE",
"433 624 LINE SMOOTH",
"446 624 OFFCURVE",
"453 633 OFFCURVE",
"455 654 CURVE SMOOTH",
"457 670 LINE SMOOTH",
"459 691 OFFCURVE",
"454 700 OFFCURVE",
"441 700 CURVE SMOOTH",
"153 700 LINE SMOOTH",
"134 700 OFFCURVE",
"125 691 OFFCURVE",
"123 670 CURVE SMOOTH",
"55 30 LINE SMOOTH",
"53 9 OFFCURVE",
"60 0 OFFCURVE",
"79 0 CURVE SMOOTH"
);
}
);
width = 457;
},
{
anchors = (
{
name = bottom;
position = "{240, 0}";
},
{
name = ogonek;
position = "{403, 10}";
},
{
name = top;
position = "{238, 700}";
}
);
associatedMasterId = "E8E506BC-BBFD-46D4-BF6A-32B0AB7FBD03";
layerId = "76F17502-367F-435E-B23E-ED9D928E777B";
name = "SemiCondensed Italic Condensed Regular";
paths = (
{
closed = 1;
nodes = (
"386 0 LINE SMOOTH",
"400 0 OFFCURVE",
"405 9 OFFCURVE",
"405 30 CURVE SMOOTH",
"405 46 LINE SMOOTH",
"405 67 OFFCURVE",
"400 76 OFFCURVE",
"386 76 CURVE SMOOTH",
"161 76 LINE",
"161 320 LINE",
"363 320 LINE SMOOTH",
"376 320 OFFCURVE",
"382 329 OFFCURVE",
"382 350 CURVE SMOOTH",
"382 366 LINE SMOOTH",
"382 387 OFFCURVE",
"376 396 OFFCURVE",
"363 396 CURVE SMOOTH",
"161 396 LINE",
"161 624 LINE",
"386 624 LINE SMOOTH",
"399 624 OFFCURVE",
"405 633 OFFCURVE",
"405 654 CURVE SMOOTH",
"405 670 LINE SMOOTH",
"405 691 OFFCURVE",
"399 700 OFFCURVE",
"386 700 CURVE SMOOTH",
"98 700 LINE SMOOTH",
"79 700 OFFCURVE",
"71 691 OFFCURVE",
"71 670 CURVE SMOOTH",
"71 30 LINE SMOOTH",
"71 9 OFFCURVE",
"79 0 OFFCURVE",
"98 0 CURVE SMOOTH"
);
}
);
width = 443;
},
{
anchors = (
{
name = bottom;
position = "{230, 0}";
},
{
name = ogonek;
position = "{403, 10}";
},
{
name = top;
position = "{241, 700}";
}
);
associatedMasterId = "373C5ECE-2403-4F88-B498-8D3B1E7E9A2C";
layerId = "6662946B-F990-402F-A6FD-22D24AB84B33";
name = "Bold SemiCondensed Italic Condensed Bold";
paths = (
{
closed = 1;
nodes = (
"383 0 LINE SMOOTH",
"403 0 OFFCURVE",
"411 15 OFFCURVE",
"411 50 CURVE SMOOTH",
"411 81 LINE SMOOTH",
"411 116 OFFCURVE",
"403 131 OFFCURVE",
"383 131 CURVE SMOOTH",
"206 131 LINE",
"206 293 LINE",
"362 293 LINE SMOOTH",
"382 293 OFFCURVE",
"391 308 OFFCURVE",
"391 343 CURVE SMOOTH",
"391 374 LINE SMOOTH",
"391 409 OFFCURVE",
"382 424 OFFCURVE",
"362 424 CURVE SMOOTH",
"206 424 LINE",
"206 569 LINE",
"382 569 LINE SMOOTH",
"402 569 OFFCURVE",
"411 584 OFFCURVE",
"411 619 CURVE SMOOTH",
"411 650 LINE SMOOTH",
"411 685 OFFCURVE",
"402 700 OFFCURVE",
"382 700 CURVE SMOOTH",
"87 700 LINE SMOOTH",
"61 700 OFFCURVE",
"50 688 OFFCURVE",
"50 660 CURVE SMOOTH",
"50 40 LINE SMOOTH",
"50 12 OFFCURVE",
"61 0 OFFCURVE",
"87 0 CURVE SMOOTH"
);
}
);
width = 443;
},
{
anchors = (
{
name = bottom;
position = "{253, 0}";
},
{
name = ogonek;
position = "{444, 0}";
},
{
name = top;
position = "{328, 700}";
}
);
associatedMasterId = "373C5ECE-2403-4F88-B498-8D3B1E7E9A2C";
background = {
anchors = (
{
name = bottom;
position = "{253, 0}";
},
{
name = ogonek;
position = "{444, 0}";
},
{
name = top;
position = "{328, 700}";
}
);
paths = (
{
closed = 1;
nodes = (
"149 700 LINE SMOOTH",
"121 700 OFFCURVE",
"108 688 OFFCURVE",
"105 660 CURVE",
"105 660 OFFCURVE",
"40 38 OFFCURVE",
"40 32 CURVE SMOOTH",
"40 8 OFFCURVE",
"49 0 OFFCURVE",
"76 0 CURVE SMOOTH",
"444 0 LINE SMOOTH",
"473 0 OFFCURVE",
"482 39 OFFCURVE",
"482 91 CURVE SMOOTH",
"482 119 OFFCURVE",
"474 131 OFFCURVE",
"456 131 CURVE SMOOTH",
"204 131 LINE",
"222 293 LINE",
"447 293 LINE SMOOTH",
"476 293 OFFCURVE",
"485 332 OFFCURVE",
"485 384 CURVE SMOOTH",
"485 412 OFFCURVE",
"477 424 OFFCURVE",
"459 424 CURVE SMOOTH",
"235 424 LINE",
"251 569 LINE",
"503 569 LINE SMOOTH",
"532 569 OFFCURVE",
"541 608 OFFCURVE",
"541 660 CURVE SMOOTH",
"541 688 OFFCURVE",
"533 700 OFFCURVE",
"515 700 CURVE SMOOTH"
);
}
);
};
layerId = "E7629A84-C404-45BF-BFC5-29539406C1C5";
name = "Bold SemiCondensed Italic Jun 13 15, 20:40";
paths = (
{
closed = 1;
nodes = (
"149 700 LINE SMOOTH",
"121 700 OFFCURVE",
"108 688 OFFCURVE",
"105 660 CURVE",
"105 660 OFFCURVE",
"40 38 OFFCURVE",
"40 32 CURVE SMOOTH",
"40 8 OFFCURVE",
"49 0 OFFCURVE",
"76 0 CURVE SMOOTH",
"444 0 LINE SMOOTH",
"473 0 OFFCURVE",
"482 39 OFFCURVE",
"482 91 CURVE SMOOTH",
"482 119 OFFCURVE",
"474 131 OFFCURVE",
"456 131 CURVE SMOOTH",
"204 131 LINE",
"222 293 LINE",
"447 293 LINE SMOOTH",
"476 293 OFFCURVE",
"485 332 OFFCURVE",
"485 384 CURVE SMOOTH",
"485 412 OFFCURVE",
"477 424 OFFCURVE",
"459 424 CURVE SMOOTH",
"235 424 LINE",
"251 569 LINE",
"503 569 LINE SMOOTH",
"532 569 OFFCURVE",
"541 608 OFFCURVE",
"541 660 CURVE SMOOTH",
"541 688 OFFCURVE",
"533 700 OFFCURVE",
"515 700 CURVE SMOOTH"
);
}
);
width = 443;
}
);
leftKerningGroup = H;
rightKerningGroup = E;
unicode = 0045;
},
{
glyphname = F;
layers = (
{
anchors = (
{
name = bottom;
position = "{108, 0}";
},
{
name = top;
position = "{280, 700}";
}
);
background = {
paths = (
{
closed = 1;
nodes = (
"128 -2 LINE SMOOTH",
"169 -2 OFFCURVE",
"187 9 OFFCURVE",
"189 30 CURVE SMOOTH",
"217 292 LINE",
"364 292 LINE SMOOTH",
"384 292 OFFCURVE",
"395 307 OFFCURVE",
"398 342 CURVE SMOOTH",
"402 373 LINE SMOOTH",
"405 408 OFFCURVE",
"398 423 OFFCURVE",
"378 423 CURVE SMOOTH",
"231 423 LINE",
"246 569 LINE",
"402 569 LINE SMOOTH",
"422 569 OFFCURVE",
"433 584 OFFCURVE",
"436 619 CURVE SMOOTH",
"440 650 LINE SMOOTH",
"443 685 OFFCURVE",
"436 700 OFFCURVE",
"416 700 CURVE SMOOTH",
"141 700 LINE SMOOTH",
"115 700 OFFCURVE",
"103 688 OFFCURVE",
"100 660 CURVE SMOOTH",
"33 30 LINE SMOOTH",
"31 9 OFFCURVE",
"47 -2 OFFCURVE",
"88 -2 CURVE SMOOTH"
);
}
);
};
layerId = "373C5ECE-2403-4F88-B498-8D3B1E7E9A2C";
paths = (
{
closed = 1;
nodes = (
"128 -2 LINE SMOOTH",
"169 -2 OFFCURVE",
"187 9 OFFCURVE",
"189 30 CURVE SMOOTH",
"212 272 LINE",
"359 272 LINE SMOOTH",
"379 272 OFFCURVE",
"388 287 OFFCURVE",
"393 322 CURVE SMOOTH",
"397 353 LINE SMOOTH",
"402 388 OFFCURVE",
"393 403 OFFCURVE",
"373 403 CURVE SMOOTH",
"226 403 LINE",
"246 569 LINE",
"402 569 LINE SMOOTH",
"422 569 OFFCURVE",
"433 584 OFFCURVE",
"436 619 CURVE SMOOTH",
"440 650 LINE SMOOTH",
"443 685 OFFCURVE",
"436 700 OFFCURVE",
"416 700 CURVE SMOOTH",
"141 700 LINE SMOOTH",
"115 700 OFFCURVE",
"103 688 OFFCURVE",
"100 660 CURVE SMOOTH",
"33 30 LINE SMOOTH",
"31 9 OFFCURVE",
"47 -2 OFFCURVE",
"88 -2 CURVE SMOOTH"
);
}
);
width = 423;
},
{
anchors = (
{
name = bottom;
position = "{97, 0}";
},
{
name = top;
position = "{282, 700}";
}
);
background = {
paths = (
{
closed = 1;
nodes = (
"104 -2 LINE SMOOTH",
"131 -2 OFFCURVE",
"143 6 OFFCURVE",
"144 20 CURVE SMOOTH",
"176 320 LINE",
"356 320 LINE SMOOTH",
"369 320 OFFCURVE",
"376 329 OFFCURVE",
"378 350 CURVE SMOOTH",
"380 366 LINE SMOOTH",
"382 387 OFFCURVE",
"377 396 OFFCURVE",
"364 396 CURVE SMOOTH",
"184 396 LINE",
"208 624 LINE",
"405 624 LINE SMOOTH",
"418 624 OFFCURVE",
"425 633 OFFCURVE",
"427 654 CURVE SMOOTH",
"429 670 LINE SMOOTH",
"431 691 OFFCURVE",
"426 700 OFFCURVE",
"413 700 CURVE SMOOTH",
"153 700 LINE SMOOTH",
"134 700 OFFCURVE",
"125 691 OFFCURVE",
"123 670 CURVE SMOOTH",
"54 20 LINE SMOOTH",
"53 6 OFFCURVE",
"63 -2 OFFCURVE",
"90 -2 CURVE SMOOTH"
);
}
);
};
layerId = "E8E506BC-BBFD-46D4-BF6A-32B0AB7FBD03";
paths = (
{
closed = 1;
nodes = (
"104 -2 LINE SMOOTH",
"131 -2 OFFCURVE",
"142 6 OFFCURVE",
"144 20 CURVE SMOOTH",
"174 300 LINE",
"354 300 LINE SMOOTH",
"367 300 OFFCURVE",
"373 309 OFFCURVE",
"376 330 CURVE SMOOTH",
"378 346 LINE SMOOTH",
"381 367 OFFCURVE",
"375 376 OFFCURVE",
"362 376 CURVE SMOOTH",
"182 376 LINE",
"208 624 LINE",
"405 624 LINE SMOOTH",
"418 624 OFFCURVE",
"425 633 OFFCURVE",
"427 654 CURVE SMOOTH",
"429 670 LINE SMOOTH",
"431 691 OFFCURVE",
"426 700 OFFCURVE",
"413 700 CURVE SMOOTH",
"153 700 LINE SMOOTH",
"134 700 OFFCURVE",
"125 691 OFFCURVE",
"123 670 CURVE SMOOTH",
"54 20 LINE SMOOTH",
"53 6 OFFCURVE",
"63 -2 OFFCURVE",
"90 -2 CURVE SMOOTH"
);
}
);
width = 423;
},
{
anchors = (
{
name = bottom;
position = "{116, 0}";
},
{
name = top;
position = "{227, 700}";
}
);
associatedMasterId = "E8E506BC-BBFD-46D4-BF6A-32B0AB7FBD03";
layerId = "76F17502-367F-435E-B23E-ED9D928E777B";
name = "SemiCondensed Italic Condensed Regular";
paths = (
{
closed = 1;
nodes = (
"123 -2 LINE SMOOTH",
"150 -2 OFFCURVE",
"161 6 OFFCURVE",
"161 20 CURVE SMOOTH",
"161 320 LINE",
"341 320 LINE SMOOTH",
"354 320 OFFCURVE",
"360 329 OFFCURVE",
"360 350 CURVE SMOOTH",
"360 366 LINE SMOOTH",
"360 387 OFFCURVE",
"354 396 OFFCURVE",
"341 396 CURVE SMOOTH",
"161 396 LINE",
"161 624 LINE",
"358 624 LINE SMOOTH",
"371 624 OFFCURVE",
"377 633 OFFCURVE",
"377 654 CURVE SMOOTH",
"377 670 LINE SMOOTH",
"377 691 OFFCURVE",
"371 700 OFFCURVE",
"358 700 CURVE SMOOTH",
"98 700 LINE SMOOTH",
"79 700 OFFCURVE",
"71 691 OFFCURVE",
"71 670 CURVE SMOOTH",
"71 20 LINE SMOOTH",
"71 6 OFFCURVE",
"82 -2 OFFCURVE",
"109 -2 CURVE SMOOTH"
);
}
);
width = 409;
},
{
anchors = (
{
name = bottom;
position = "{128, 0}";
},
{
name = top;
position = "{226, 700}";
}
);
associatedMasterId = "373C5ECE-2403-4F88-B498-8D3B1E7E9A2C";
layerId = "6662946B-F990-402F-A6FD-22D24AB84B33";
name = "Bold SemiCondensed Italic Condensed Bold";
paths = (
{
closed = 1;
nodes = (
"148 -2 LINE SMOOTH",
"189 -2 OFFCURVE",
"206 9 OFFCURVE",
"206 30 CURVE SMOOTH",
"206 292 LINE",
"353 292 LINE SMOOTH",
"373 292 OFFCURVE",
"382 307 OFFCURVE",
"382 342 CURVE SMOOTH",
"382 373 LINE SMOOTH",
"382 408 OFFCURVE",
"373 423 OFFCURVE",
"353 423 CURVE SMOOTH",
"206 423 LINE",
"206 569 LINE",
"362 569 LINE SMOOTH",
"382 569 OFFCURVE",
"391 584 OFFCURVE",
"391 619 CURVE SMOOTH",
"391 650 LINE SMOOTH",
"391 685 OFFCURVE",
"382 700 OFFCURVE",
"362 700 CURVE SMOOTH",
"87 700 LINE SMOOTH",
"61 700 OFFCURVE",
"50 688 OFFCURVE",
"50 660 CURVE SMOOTH",
"50 30 LINE SMOOTH",
"50 9 OFFCURVE",
"67 -2 OFFCURVE",
"108 -2 CURVE SMOOTH"
);
}
);
width = 409;
},
{
associatedMasterId = "373C5ECE-2403-4F88-B498-8D3B1E7E9A2C";
background = {
paths = (
{
closed = 1;
nodes = (
"152 700 LINE SMOOTH",
"124 700 OFFCURVE",
"111 688 OFFCURVE",
"108 660 CURVE",
"86 450 OFFCURVE",
"64 239 OFFCURVE",
"42 29 CURVE",
"42 0 OFFCURVE",
"82 -2 OFFCURVE",
"99 -2 CURVE SMOOTH",
"134 -2 LINE SMOOTH",
"173 -2 OFFCURVE",
"195 9 OFFCURVE",
"197 30 CURVE SMOOTH",
"225 292 LINE",
"439 292 LINE SMOOTH",
"468 292 OFFCURVE",
"477 331 OFFCURVE",
"477 383 CURVE SMOOTH",
"477 411 OFFCURVE",
"469 423 OFFCURVE",
"451 423 CURVE SMOOTH",
"238 423 LINE",
"254 569 LINE",
"475 569 LINE SMOOTH",
"504 569 OFFCURVE",
"513 608 OFFCURVE",
"513 660 CURVE SMOOTH",
"513 688 OFFCURVE",
"505 700 OFFCURVE",
"487 700 CURVE SMOOTH"
);
}
);
};
layerId = "8F40C119-E9CF-473F-B575-282800D88F7D";
name = "Bold SemiCondensed Italic Jun 13 15, 20:40";
paths = (
{
closed = 1;
nodes = (
"152 700 LINE SMOOTH",
"124 700 OFFCURVE",
"111 688 OFFCURVE",
"108 660 CURVE",
"86 450 OFFCURVE",
"64 239 OFFCURVE",
"42 29 CURVE",
"42 0 OFFCURVE",
"82 -2 OFFCURVE",
"99 -2 CURVE SMOOTH",
"134 -2 LINE SMOOTH",
"173 -2 OFFCURVE",
"195 9 OFFCURVE",
"197 30 CURVE SMOOTH",
"225 292 LINE",
"439 292 LINE SMOOTH",
"468 292 OFFCURVE",
"477 331 OFFCURVE",
"477 383 CURVE SMOOTH",
"477 411 OFFCURVE",
"469 423 OFFCURVE",
"451 423 CURVE SMOOTH",
"238 423 LINE",
"254 569 LINE",
"475 569 LINE SMOOTH",
"504 569 OFFCURVE",
"513 608 OFFCURVE",
"513 660 CURVE SMOOTH",
"513 688 OFFCURVE",
"505 700 OFFCURVE",
"487 700 CURVE SMOOTH"
);
}
);
width = 409;
}
);
leftKerningGroup = H;
rightKerningGroup = F;
unicode = 0046;
},
{
glyphname = G;
layers = (
{
anchors = (
{
name = bottom;
position = "{277, 0}";
},
{
name = top;
position = "{346, 700}";
}
);
layerId = "373C5ECE-2403-4F88-B498-8D3B1E7E9A2C";
paths = (
{
closed = 1;
nodes = (
"362 -8 OFFCURVE",
"479 23 OFFCURVE",
"484 72 CURVE SMOOTH",
"515 370 LINE SMOOTH",
"518 398 OFFCURVE",
"507 410 OFFCURVE",
"482 410 CURVE SMOOTH",
"317 410 LINE SMOOTH",
"297 410 OFFCURVE",
"287 395 OFFCURVE",
"283 360 CURVE SMOOTH",
"280 328 LINE SMOOTH",
"276 293 OFFCURVE",
"283 278 OFFCURVE",
"303 278 CURVE SMOOTH",
"354 278 LINE",
"339 132 LINE",
"326 129 OFFCURVE",
"313 128 OFFCURVE",
"298 128 CURVE SMOOTH",
"240 128 OFFCURVE",
"204 164 OFFCURVE",
"204 275 CURVE SMOOTH",
"204 421 OFFCURVE",
"235 573 OFFCURVE",
"355 573 CURVE SMOOTH",
"422 573 OFFCURVE",
"449 547 OFFCURVE",
"462 547 CURVE SMOOTH",
"487 547 OFFCURVE",
"531 610 OFFCURVE",
"534 637 CURVE SMOOTH",
"538 671 OFFCURVE",
"454 708 OFFCURVE",
"361 708 CURVE SMOOTH",
"130 708 OFFCURVE",
"43 526 OFFCURVE",
"43 268 CURVE SMOOTH",
"43 79 OFFCURVE",
"126 -8 OFFCURVE",
"283 -8 CURVE SMOOTH"
);
}
);
width = 552;
},
{
anchors = (
{
name = bottom;
position = "{284, 0}";
},
{
name = top;
position = "{339, 700}";
}
);
layerId = "E8E506BC-BBFD-46D4-BF6A-32B0AB7FBD03";
paths = (
{
closed = 1;
nodes = (
"354 -6 OFFCURVE",
"458 10 OFFCURVE",
"464 66 CURVE SMOOTH",
"494 352 LINE SMOOTH",
"496 373 OFFCURVE",
"488 382 OFFCURVE",
"470 382 CURVE SMOOTH",
"322 382 LINE SMOOTH",
"308 382 OFFCURVE",
"301 373 OFFCURVE",
"299 352 CURVE SMOOTH",
"298 336 LINE SMOOTH",
"295 315 OFFCURVE",
"300 306 OFFCURVE",
"314 306 CURVE SMOOTH",
"399 306 LINE",
"376 83 LINE",
"353 75 OFFCURVE",
"322 70 OFFCURVE",
"286 70 CURVE SMOOTH",
"183 70 OFFCURVE",
"148 159 OFFCURVE",
"148 277 CURVE SMOOTH",
"148 460 OFFCURVE",
"198 627 OFFCURVE",
"351 627 CURVE SMOOTH",
"427 627 OFFCURVE",
"460 586 OFFCURVE",
"470 586 CURVE SMOOTH",
"484 586 OFFCURVE",
"510 627 OFFCURVE",
"512 644 CURVE SMOOTH",
"515 671 OFFCURVE",
"434 706 OFFCURVE",
"358 706 CURVE SMOOTH",
"135 706 OFFCURVE",
"54 520 OFFCURVE",
"54 270 CURVE SMOOTH",
"54 83 OFFCURVE",
"141 -6 OFFCURVE",
"275 -6 CURVE SMOOTH"
);
}
);
width = 552;
},
{
anchors = (
{
name = bottom;
position = "{304, 0}";
},
{
name = top;
position = "{285, 700}";
}
);
associatedMasterId = "E8E506BC-BBFD-46D4-BF6A-32B0AB7FBD03";
layerId = "76F17502-367F-435E-B23E-ED9D928E777B";
name = "SemiCondensed Italic Condensed Regular";
paths = (
{
closed = 1;
nodes = (
"374 -6 OFFCURVE",
"477 10 OFFCURVE",
"477 66 CURVE SMOOTH",
"477 352 LINE SMOOTH",
"477 373 OFFCURVE",
"468 382 OFFCURVE",
"450 382 CURVE SMOOTH",
"302 382 LINE SMOOTH",
"288 382 OFFCURVE",
"282 373 OFFCURVE",
"282 352 CURVE SMOOTH",
"282 336 LINE SMOOTH",
"282 315 OFFCURVE",
"288 306 OFFCURVE",
"302 306 CURVE SMOOTH",
"387 306 LINE",
"387 49 LINE",
"403 90 LINE",
"382 78 OFFCURVE",
"345 70 OFFCURVE",
"298 70 CURVE SMOOTH",
"174 70 OFFCURVE",
"135 200 OFFCURVE",
"135 353 CURVE SMOOTH",
"135 525 OFFCURVE",
"180 627 OFFCURVE",
"305 627 CURVE SMOOTH",
"381 627 OFFCURVE",
"418 586 OFFCURVE",
"428 586 CURVE SMOOTH",
"442 586 OFFCURVE",
"464 627 OFFCURVE",
"464 644 CURVE SMOOTH",
"464 671 OFFCURVE",
"380 706 OFFCURVE",
"304 706 CURVE SMOOTH",
"133 706 OFFCURVE",
"42 593 OFFCURVE",
"42 344 CURVE SMOOTH",
"42 106 OFFCURVE",
"129 -6 OFFCURVE",
"295 -6 CURVE SMOOTH"
);
}
);
width = 538;
},
{
anchors = (
{
name = bottom;
position = "{296, 0}";
},
{
name = top;
position = "{291, 700}";
}
);
associatedMasterId = "373C5ECE-2403-4F88-B498-8D3B1E7E9A2C";
layerId = "6662946B-F990-402F-A6FD-22D24AB84B33";
name = "Bold SemiCondensed Italic Condensed Bold";
paths = (
{
closed = 1;
nodes = (
"382 -8 OFFCURVE",
"495 23 OFFCURVE",
"495 72 CURVE SMOOTH",
"495 370 LINE SMOOTH",
"495 398 OFFCURVE",
"483 410 OFFCURVE",
"458 410 CURVE SMOOTH",
"293 410 LINE SMOOTH",
"273 410 OFFCURVE",
"264 395 OFFCURVE",
"264 360 CURVE SMOOTH",
"264 328 LINE SMOOTH",
"264 293 OFFCURVE",
"273 278 OFFCURVE",
"293 278 CURVE SMOOTH",
"344 278 LINE",
"344 79 LINE",
"385 145 LINE",
"351 132 OFFCURVE",
"332 128 OFFCURVE",
"303 128 CURVE SMOOTH",
"233 128 OFFCURVE",
"190 180 OFFCURVE",
"190 351 CURVE SMOOTH",
"190 503 OFFCURVE",
"228 573 OFFCURVE",
"314 573 CURVE SMOOTH",
"381 573 OFFCURVE",
"410 547 OFFCURVE",
"423 547 CURVE SMOOTH",
"448 547 OFFCURVE",
"486 610 OFFCURVE",
"486 637 CURVE SMOOTH",
"486 671 OFFCURVE",
"398 708 OFFCURVE",
"305 708 CURVE SMOOTH",
"116 708 OFFCURVE",
"30 590 OFFCURVE",
"30 352 CURVE SMOOTH",
"30 105 OFFCURVE",
"117 -8 OFFCURVE",
"303 -8 CURVE SMOOTH"
);
}
);
width = 538;
},
{
anchors = (
{
name = bottom;
position = "{336, 0}";
},
{
name = top;
position = "{397, 700}";
}
);
associatedMasterId = "373C5ECE-2403-4F88-B498-8D3B1E7E9A2C";
background = {
anchors = (
{
name = bottom;
position = "{336, 0}";
},
{
name = top;
position = "{397, 700}";
}
);
paths = (
{
closed = 1;
nodes = (
"175 708 OFFCURVE",
"41 565 OFFCURVE",
"41 276 CURVE SMOOTH",
"41 82 OFFCURVE",
"136 -8 OFFCURVE",
"336 -8 CURVE SMOOTH",
"406 -8 OFFCURVE",
"569 2 OFFCURVE",
"577 71 CURVE SMOOTH",
"587 167 OFFCURVE",
"608 350 OFFCURVE",
"608 358 CURVE SMOOTH",
"608 381 OFFCURVE",
"598 389 OFFCURVE",
"571 389 CURVE SMOOTH",
"367 389 LINE SMOOTH",
"338 389 OFFCURVE",
"329 350 OFFCURVE",
"329 298 CURVE SMOOTH",
"329 270 OFFCURVE",
"337 258 OFFCURVE",
"355 258 CURVE SMOOTH",
"442 258 LINE",
"428 130 LINE",
"401 125 OFFCURVE",
"378 123 OFFCURVE",
"350 123 CURVE SMOOTH",
"249 123 OFFCURVE",
"200 183 OFFCURVE",
"200 298 CURVE SMOOTH",
"200 483 OFFCURVE",
"271 576 OFFCURVE",
"399 576 CURVE SMOOTH",
"495 576 OFFCURVE",
"532 544 OFFCURVE",
"544 544 CURVE SMOOTH",
"569 544 OFFCURVE",
"619 613 OFFCURVE",
"619 640 CURVE SMOOTH",
"619 681 OFFCURVE",
"502 708 OFFCURVE",
"416 708 CURVE SMOOTH"
);
}
);
};
layerId = "5E8EF6E1-79E0-4E57-ABCF-B300089ACFC5";
name = "Bold SemiCondensed Italic Jun 13 15, 20:40";
paths = (
{
closed = 1;
nodes = (
"175 708 OFFCURVE",
"41 565 OFFCURVE",
"41 276 CURVE SMOOTH",
"41 82 OFFCURVE",
"136 -8 OFFCURVE",
"336 -8 CURVE SMOOTH",
"406 -8 OFFCURVE",
"569 2 OFFCURVE",
"577 71 CURVE SMOOTH",
"587 167 OFFCURVE",
"608 350 OFFCURVE",
"608 358 CURVE SMOOTH",
"608 381 OFFCURVE",
"598 389 OFFCURVE",
"571 389 CURVE SMOOTH",
"367 389 LINE SMOOTH",
"338 389 OFFCURVE",
"329 350 OFFCURVE",
"329 298 CURVE SMOOTH",
"329 270 OFFCURVE",
"337 258 OFFCURVE",
"355 258 CURVE SMOOTH",
"442 258 LINE",
"428 130 LINE",
"401 125 OFFCURVE",
"378 123 OFFCURVE",
"350 123 CURVE SMOOTH",
"249 123 OFFCURVE",
"200 183 OFFCURVE",
"200 298 CURVE SMOOTH",
"200 483 OFFCURVE",
"271 576 OFFCURVE",
"399 576 CURVE SMOOTH",
"495 576 OFFCURVE",
"532 544 OFFCURVE",
"544 544 CURVE SMOOTH",
"569 544 OFFCURVE",
"619 613 OFFCURVE",
"619 640 CURVE SMOOTH",
"619 681 OFFCURVE",
"502 708 OFFCURVE",
"416 708 CURVE SMOOTH"
);
}
);
width = 538;
}
);
leftKerningGroup = O;
rightKerningGroup = G;
unicode = 0047;
},
{
glyphname = H;
layers = (
{
anchors = (
{
name = bottom;
position = "{273, 0}";
},
{
name = center;
position = "{328, 523}";
},
{
name = top;
position = "{347, 700}";
}
);
layerId = "373C5ECE-2403-4F88-B498-8D3B1E7E9A2C";
paths = (
{
closed = 1;
nodes = (
"130 -2 LINE SMOOTH",
"170 -2 OFFCURVE",
"188 9 OFFCURVE",
"190 30 CURVE SMOOTH",
"218 291 LINE",
"389 291 LINE",
"361 30 LINE SMOOTH",
"359 9 OFFCURVE",
"375 -2 OFFCURVE",
"416 -2 CURVE SMOOTH",
"457 -2 LINE SMOOTH",
"498 -2 OFFCURVE",
"516 9 OFFCURVE",
"518 30 CURVE SMOOTH",
"586 670 LINE SMOOTH",
"588 691 OFFCURVE",
"572 702 OFFCURVE",
"531 702 CURVE SMOOTH",
"490 702 LINE SMOOTH",
"449 702 OFFCURVE",
"431 691 OFFCURVE",
"429 670 CURVE SMOOTH",
"403 423 LINE",
"232 423 LINE",
"258 670 LINE SMOOTH",
"260 691 OFFCURVE",
"244 702 OFFCURVE",
"204 702 CURVE SMOOTH",
"162 702 LINE SMOOTH",
"121 702 OFFCURVE",
"103 691 OFFCURVE",
"101 670 CURVE SMOOTH",
"33 30 LINE SMOOTH",
"31 9 OFFCURVE",
"47 -2 OFFCURVE",
"88 -2 CURVE SMOOTH"
);
}
);
width = 601;
},
{
anchors = (
{
name = bottom;
position = "{274, 0}";
},
{
name = center;
position = "{329, 523}";
},
{
name = top;
position = "{348, 700}";
}
);
layerId = "E8E506BC-BBFD-46D4-BF6A-32B0AB7FBD03";
paths = (
{
closed = 1;
nodes = (
"105 -2 LINE SMOOTH",
"131 -2 OFFCURVE",
"143 6 OFFCURVE",
"144 20 CURVE SMOOTH",
"176 321 LINE",
"439 321 LINE",
"407 20 LINE SMOOTH",
"406 6 OFFCURVE",
"416 -2 OFFCURVE",
"443 -2 CURVE SMOOTH",
"457 -2 LINE SMOOTH",
"484 -2 OFFCURVE",
"496 6 OFFCURVE",
"497 20 CURVE SMOOTH",
"567 680 LINE SMOOTH",
"568 694 OFFCURVE",
"558 702 OFFCURVE",
"531 702 CURVE SMOOTH",
"517 702 LINE SMOOTH",
"490 702 OFFCURVE",
"478 694 OFFCURVE",
"477 680 CURVE SMOOTH",
"447 397 LINE",
"184 397 LINE",
"214 680 LINE SMOOTH",
"215 694 OFFCURVE",
"205 702 OFFCURVE",
"179 702 CURVE SMOOTH",
"164 702 LINE SMOOTH",
"137 702 OFFCURVE",
"125 694 OFFCURVE",
"124 680 CURVE SMOOTH",
"54 20 LINE SMOOTH",
"53 6 OFFCURVE",
"63 -2 OFFCURVE",
"90 -2 CURVE SMOOTH"
);
}
);
width = 601;
},
{
anchors = (
{
name = bottom;
position = "{293, 0}";
},
{
name = center;
position = "{293, 523}";
},
{
name = top;
position = "{293, 700}";
}
);
associatedMasterId = "E8E506BC-BBFD-46D4-BF6A-32B0AB7FBD03";
layerId = "76F17502-367F-435E-B23E-ED9D928E777B";
name = "SemiCondensed Italic Condensed Regular";
paths = (
{
closed = 1;
nodes = (
"124 -2 LINE SMOOTH",
"150 -2 OFFCURVE",
"161 6 OFFCURVE",
"161 20 CURVE SMOOTH",
"161 321 LINE",
"424 321 LINE",
"424 20 LINE SMOOTH",
"424 6 OFFCURVE",
"435 -2 OFFCURVE",
"462 -2 CURVE SMOOTH",
"476 -2 LINE SMOOTH",
"503 -2 OFFCURVE",
"514 6 OFFCURVE",
"514 20 CURVE SMOOTH",
"514 680 LINE SMOOTH",
"514 694 OFFCURVE",
"503 702 OFFCURVE",
"476 702 CURVE SMOOTH",
"462 702 LINE SMOOTH",
"435 702 OFFCURVE",
"424 694 OFFCURVE",
"424 680 CURVE SMOOTH",
"424 397 LINE",
"161 397 LINE",
"161 680 LINE SMOOTH",
"161 694 OFFCURVE",
"150 702 OFFCURVE",
"124 702 CURVE SMOOTH",
"109 702 LINE SMOOTH",
"82 702 OFFCURVE",
"71 694 OFFCURVE",
"71 680 CURVE SMOOTH",
"71 20 LINE SMOOTH",
"71 6 OFFCURVE",
"82 -2 OFFCURVE",
"109 -2 CURVE SMOOTH"
);
}
);
width = 587;
},
{
anchors = (
{
name = bottom;
position = "{293, 0}";
},
{
name = center;
position = "{293, 523}";
},
{
name = top;
position = "{293, 700}";
}
);
associatedMasterId = "373C5ECE-2403-4F88-B498-8D3B1E7E9A2C";
layerId = "6662946B-F990-402F-A6FD-22D24AB84B33";
name = "Bold SemiCondensed Italic Condensed Bold";
paths = (
{
closed = 1;
nodes = (
"150 -2 LINE SMOOTH",
"190 -2 OFFCURVE",
"207 9 OFFCURVE",
"207 30 CURVE SMOOTH",
"207 291 LINE",
"378 291 LINE",
"378 30 LINE SMOOTH",
"378 9 OFFCURVE",
"395 -2 OFFCURVE",
"436 -2 CURVE SMOOTH",
"477 -2 LINE SMOOTH",
"518 -2 OFFCURVE",
"535 9 OFFCURVE",
"535 30 CURVE SMOOTH",
"535 670 LINE SMOOTH",
"535 691 OFFCURVE",
"518 702 OFFCURVE",
"477 702 CURVE SMOOTH",
"436 702 LINE SMOOTH",
"395 702 OFFCURVE",
"378 691 OFFCURVE",
"378 670 CURVE SMOOTH",
"378 423 LINE",
"207 423 LINE",
"207 670 LINE SMOOTH",
"207 691 OFFCURVE",
"190 702 OFFCURVE",
"150 702 CURVE SMOOTH",
"108 702 LINE SMOOTH",
"67 702 OFFCURVE",
"50 691 OFFCURVE",
"50 670 CURVE SMOOTH",
"50 30 LINE SMOOTH",
"50 9 OFFCURVE",
"67 -2 OFFCURVE",
"108 -2 CURVE SMOOTH"
);
}
);
width = 586;
},
{
anchors = (
{
name = bottom;
position = "{341, 0}";
},
{
name = center;
position = "{381, 523}";
},
{
name = top;
position = "{399, 700}";
}
);
associatedMasterId = "373C5ECE-2403-4F88-B498-8D3B1E7E9A2C";
background = {
anchors = (
{
name = bottom;
position = "{341, 0}";
},
{
name = center;
position = "{381, 523}";
},
{
name = top;
position = "{399, 700}";
}
);
paths = (
{
closed = 1;
nodes = (
"597 702 LINE SMOOTH",
"558 702 OFFCURVE",
"536 691 OFFCURVE",
"534 670 CURVE SMOOTH",
"508 423 LINE",
"238 423 LINE",
"264 671 LINE",
"264 700 OFFCURVE",
"224 702 OFFCURVE",
"207 702 CURVE SMOOTH",
"172 702 LINE SMOOTH",
"133 702 OFFCURVE",
"111 691 OFFCURVE",
"109 670 CURVE SMOOTH",
"42 29 LINE",
"42 0 OFFCURVE",
"82 -2 OFFCURVE",
"99 -2 CURVE SMOOTH",
"134 -2 LINE SMOOTH",
"173 -2 OFFCURVE",
"195 9 OFFCURVE",
"197 30 CURVE SMOOTH",
"224 291 LINE",
"494 291 LINE",
"467 29 LINE",
"467 0 OFFCURVE",
"507 -2 OFFCURVE",
"524 -2 CURVE SMOOTH",
"559 -2 LINE SMOOTH",
"598 -2 OFFCURVE",
"620 9 OFFCURVE",
"622 30 CURVE SMOOTH",
"689 671 LINE",
"689 700 OFFCURVE",
"649 702 OFFCURVE",
"632 702 CURVE SMOOTH"
);
}
);
};
layerId = "241EB39D-9E82-4920-9BFC-E78C56B946A7";
name = "Bold SemiCondensed Italic Jun 13 15, 20:40";
paths = (
{
closed = 1;
nodes = (
"597 702 LINE SMOOTH",
"558 702 OFFCURVE",
"536 691 OFFCURVE",
"534 670 CURVE SMOOTH",
"508 423 LINE",
"238 423 LINE",
"264 671 LINE",
"264 700 OFFCURVE",
"224 702 OFFCURVE",
"207 702 CURVE SMOOTH",
"172 702 LINE SMOOTH",
"133 702 OFFCURVE",
"111 691 OFFCURVE",
"109 670 CURVE SMOOTH",
"42 29 LINE",
"42 0 OFFCURVE",
"82 -2 OFFCURVE",
"99 -2 CURVE SMOOTH",
"134 -2 LINE SMOOTH",
"173 -2 OFFCURVE",
"195 9 OFFCURVE",
"197 30 CURVE SMOOTH",
"224 291 LINE",
"494 291 LINE",
"467 29 LINE",
"467 0 OFFCURVE",
"507 -2 OFFCURVE",
"524 -2 CURVE SMOOTH",
"559 -2 LINE SMOOTH",
"598 -2 OFFCURVE",
"620 9 OFFCURVE",
"622 30 CURVE SMOOTH",
"689 671 LINE",
"689 700 OFFCURVE",
"649 702 OFFCURVE",
"632 702 CURVE SMOOTH"
);
}
);
width = 586;
}
);
leftKerningGroup = H;
rightKerningGroup = H;
unicode = 0048;
},
{
glyphname = I;
layers = (
{
anchors = (
{
name = bottom;
position = "{104, 0}";
},
{
name = ogonek;
position = "{142, 0}";
},
{
name = top;
position = "{178, 700}";
}
);
layerId = "373C5ECE-2403-4F88-B498-8D3B1E7E9A2C";
paths = (
{
closed = 1;
nodes = (
"125 -3 LINE SMOOTH",
"165 -3 OFFCURVE",
"183 9 OFFCURVE",
"185 30 CURVE SMOOTH",
"253 670 LINE SMOOTH",
"255 691 OFFCURVE",
"239 703 OFFCURVE",
"199 703 CURVE SMOOTH",
"157 703 LINE SMOOTH",
"116 703 OFFCURVE",
"98 691 OFFCURVE",
"96 670 CURVE SMOOTH",
"28 30 LINE SMOOTH",
"26 9 OFFCURVE",
"42 -3 OFFCURVE",
"83 -3 CURVE SMOOTH"
);
}
);
width = 262;
},
{
anchors = (
{
name = bottom;
position = "{102, 0}";
},
{
name = ogonek;
position = "{139, 0}";
},
{
name = top;
position = "{177, 700}";
}
);
layerId = "E8E506BC-BBFD-46D4-BF6A-32B0AB7FBD03";
paths = (
{
closed = 1;
nodes = (
"112 -2 LINE SMOOTH",
"138 -2 OFFCURVE",
"150 6 OFFCURVE",
"151 20 CURVE SMOOTH",
"221 680 LINE SMOOTH",
"222 694 OFFCURVE",
"212 702 OFFCURVE",
"186 702 CURVE SMOOTH",
"171 702 LINE SMOOTH",
"144 702 OFFCURVE",
"132 694 OFFCURVE",
"131 680 CURVE SMOOTH",
"61 20 LINE SMOOTH",
"60 6 OFFCURVE",
"70 -2 OFFCURVE",
"97 -2 CURVE SMOOTH"
);
}
);
width = 262;
},
{
anchors = (
{
name = bottom;
position = "{123, 0}";
},
{
name = ogonek;
position = "{167, 11}";
},
{
name = top;
position = "{124, 700}";
}
);
associatedMasterId = "E8E506BC-BBFD-46D4-BF6A-32B0AB7FBD03";
layerId = "76F17502-367F-435E-B23E-ED9D928E777B";
name = "SemiCondensed Italic Condensed Regular";
paths = (
{
closed = 1;
nodes = (
"132 -2 LINE SMOOTH",
"158 -2 OFFCURVE",
"169 6 OFFCURVE",
"169 20 CURVE SMOOTH",
"169 680 LINE SMOOTH",
"169 694 OFFCURVE",
"158 702 OFFCURVE",
"132 702 CURVE SMOOTH",
"117 702 LINE SMOOTH",
"90 702 OFFCURVE",
"79 694 OFFCURVE",
"79 680 CURVE SMOOTH",
"79 20 LINE SMOOTH",
"79 6 OFFCURVE",
"90 -2 OFFCURVE",
"117 -2 CURVE SMOOTH"
);
}
);
width = 248;
},
{
anchors = (
{
name = bottom;
position = "{124, 0}";
},
{
name = ogonek;
position = "{198, 15}";
},
{
name = top;
position = "{124, 700}";
}
);
associatedMasterId = "373C5ECE-2403-4F88-B498-8D3B1E7E9A2C";
layerId = "6662946B-F990-402F-A6FD-22D24AB84B33";
name = "Bold SemiCondensed Italic Condensed Bold";
paths = (
{
closed = 1;
nodes = (
"145 -3 LINE SMOOTH",
"185 -3 OFFCURVE",
"202 9 OFFCURVE",
"202 30 CURVE SMOOTH",
"202 670 LINE SMOOTH",
"202 691 OFFCURVE",
"185 703 OFFCURVE",
"145 703 CURVE SMOOTH",
"103 703 LINE SMOOTH",
"62 703 OFFCURVE",
"45 691 OFFCURVE",
"45 670 CURVE SMOOTH",
"45 30 LINE SMOOTH",
"45 9 OFFCURVE",
"62 -3 OFFCURVE",
"103 -3 CURVE SMOOTH"
);
}
);
width = 248;
},
{
anchors = (
{
name = bottom;
position = "{103, 0}";
},
{
name = ogonek;
position = "{142, 0}";
},
{
name = top;
position = "{181, 700}";
}
);
associatedMasterId = "373C5ECE-2403-4F88-B498-8D3B1E7E9A2C";
background = {
anchors = (
{
name = bottom;
position = "{103, 0}";
},
{
name = ogonek;
position = "{142, 0}";
},
{
name = top;
position = "{181, 700}";
}
);
paths = (
{
closed = 1;
nodes = (
"160 702 LINE SMOOTH",
"121 702 OFFCURVE",
"99 691 OFFCURVE",
"97 670 CURVE SMOOTH",
"30 29 LINE",
"30 0 OFFCURVE",
"70 -2 OFFCURVE",
"87 -2 CURVE SMOOTH",
"122 -2 LINE SMOOTH",
"161 -2 OFFCURVE",
"183 9 OFFCURVE",
"185 30 CURVE SMOOTH",
"252 671 LINE",
"252 700 OFFCURVE",
"212 702 OFFCURVE",
"195 702 CURVE SMOOTH"
);
}
);
};
layerId = "DB6B8A9E-FE80-4737-9FC0-67D97CD1DD70";
name = "Bold SemiCondensed Italic Jun 13 15, 20:40";
paths = (
{
closed = 1;
nodes = (
"160 702 LINE SMOOTH",
"121 702 OFFCURVE",
"99 691 OFFCURVE",
"97 670 CURVE SMOOTH",
"30 29 LINE",
"30 0 OFFCURVE",
"70 -2 OFFCURVE",
"87 -2 CURVE SMOOTH",
"122 -2 LINE SMOOTH",
"161 -2 OFFCURVE",
"183 9 OFFCURVE",
"185 30 CURVE SMOOTH",
"252 671 LINE",
"252 700 OFFCURVE",
"212 702 OFFCURVE",
"195 702 CURVE SMOOTH"
);
}
);
width = 248;
}
);
leftKerningGroup = H;
rightKerningGroup = H;
unicode = 0049;
},
{
glyphname = J;
layers = (
{
anchors = (
{
name = top;
position = "{260, 700}";
}
);
layerId = "373C5ECE-2403-4F88-B498-8D3B1E7E9A2C";
paths = (
{
closed = 1;
nodes = (
"211 -8 OFFCURVE",
"274 67 OFFCURVE",
"288 202 CURVE SMOOTH",
"337 670 LINE SMOOTH",
"339 691 OFFCURVE",
"322 703 OFFCURVE",
"282 703 CURVE SMOOTH",
"240 703 LINE SMOOTH",
"200 703 OFFCURVE",
"182 691 OFFCURVE",
"180 670 CURVE SMOOTH",
"133 227 LINE SMOOTH",
"126 156 OFFCURVE",
"111 125 OFFCURVE",
"74 125 CURVE SMOOTH",
"48 125 OFFCURVE",
"38 131 OFFCURVE",
"27 131 CURVE",
"4 130 OFFCURVE",
"-21 73 OFFCURVE",
"-25 38 CURVE SMOOTH",
"-27 10 OFFCURVE",
"30 -8 OFFCURVE",
"85 -8 CURVE SMOOTH"
);
}
);
width = 355;
},
{
anchors = (
{
name = top;
position = "{265, 700}";
}
);
layerId = "E8E506BC-BBFD-46D4-BF6A-32B0AB7FBD03";
paths = (
{
closed = 1;
nodes = (
"188 -6 OFFCURVE",
"247 79 OFFCURVE",
"260 205 CURVE SMOOTH",
"310 680 LINE SMOOTH",
"311 694 OFFCURVE",
"300 702 OFFCURVE",
"273 702 CURVE SMOOTH",
"259 702 LINE SMOOTH",
"233 702 OFFCURVE",
"220 694 OFFCURVE",
"219 680 CURVE SMOOTH",
"168 195 LINE SMOOTH",
"159 109 OFFCURVE",
"127 72 OFFCURVE",
"60 72 CURVE SMOOTH",
"34 72 OFFCURVE",
"12 81 OFFCURVE",
"4 81 CURVE SMOOTH",
"-9 81 OFFCURVE",
"-23 39 OFFCURVE",
"-25 26 CURVE SMOOTH",
"-27 4 OFFCURVE",
"26 -6 OFFCURVE",
"62 -6 CURVE SMOOTH"
);
}
);
width = 355;
},
{
anchors = (
{
name = top;
position = "{221, 700}";
}
);
associatedMasterId = "E8E506BC-BBFD-46D4-BF6A-32B0AB7FBD03";
layerId = "76F17502-367F-435E-B23E-ED9D928E777B";
name = "SemiCondensed Italic Condensed Regular";
paths = (
{
closed = 1;
nodes = (
"218 -6 OFFCURVE",
"268 79 OFFCURVE",
"268 205 CURVE SMOOTH",
"268 680 LINE SMOOTH",
"268 694 OFFCURVE",
"256 702 OFFCURVE",
"229 702 CURVE SMOOTH",
"215 702 LINE SMOOTH",
"189 702 OFFCURVE",
"177 694 OFFCURVE",
"177 680 CURVE SMOOTH",
"177 195 LINE SMOOTH",
"177 109 OFFCURVE",
"149 72 OFFCURVE",
"82 72 CURVE SMOOTH",
"56 72 OFFCURVE",
"33 81 OFFCURVE",
"25 81 CURVE SMOOTH",
"12 81 OFFCURVE",
"2 39 OFFCURVE",
"2 26 CURVE SMOOTH",
"2 4 OFFCURVE",
"56 -6 OFFCURVE",
"92 -6 CURVE SMOOTH"
);
}
);
width = 341;
},
{
anchors = (
{
name = top;
position = "{216, 700}";
}
);
associatedMasterId = "373C5ECE-2403-4F88-B498-8D3B1E7E9A2C";
layerId = "6662946B-F990-402F-A6FD-22D24AB84B33";
name = "Bold SemiCondensed Italic Condensed Bold";
paths = (
{
closed = 1;
nodes = (
"241 -8 OFFCURVE",
"296 67 OFFCURVE",
"296 202 CURVE SMOOTH",
"296 670 LINE SMOOTH",
"296 691 OFFCURVE",
"278 703 OFFCURVE",
"238 703 CURVE SMOOTH",
"196 703 LINE SMOOTH",
"156 703 OFFCURVE",
"139 691 OFFCURVE",
"139 670 CURVE SMOOTH",
"139 227 LINE SMOOTH",
"139 156 OFFCURVE",
"127 125 OFFCURVE",
"90 125 CURVE SMOOTH",
"64 125 OFFCURVE",
"54 131 OFFCURVE",
"43 131 CURVE",
"20 130 OFFCURVE",
"1 73 OFFCURVE",
"1 38 CURVE SMOOTH",
"1 10 OFFCURVE",
"60 -8 OFFCURVE",
"115 -8 CURVE SMOOTH"
);
}
);
width = 341;
},
{
anchors = (
{
name = top;
position = "{290, 700}";
}
);
associatedMasterId = "373C5ECE-2403-4F88-B498-8D3B1E7E9A2C";
background = {
anchors = (
{
name = top;
position = "{290, 700}";
}
);
paths = (
{
closed = 1;
nodes = (
"271 702 LINE SMOOTH",
"232 702 OFFCURVE",
"210 691 OFFCURVE",
"208 670 CURVE SMOOTH",
"161 227 LINE SMOOTH",
"153 154 OFFCURVE",
"126 123 OFFCURVE",
"66 123 CURVE SMOOTH",
"22 123 OFFCURVE",
"11 132 OFFCURVE",
"3 132 CURVE SMOOTH",
"-4 132 OFFCURVE",
"-17 121 OFFCURVE",
"-17 35 CURVE SMOOTH",
"-17 -2 OFFCURVE",
"39 -8 OFFCURVE",
"79 -8 CURVE SMOOTH",
"228 -8 OFFCURVE",
"299 75 OFFCURVE",
"313 202 CURVE SMOOTH",
"363 671 LINE",
"363 700 OFFCURVE",
"323 702 OFFCURVE",
"306 702 CURVE SMOOTH"
);
}
);
};
layerId = "3A5DA414-3407-49B0-88E3-0D189E40D610";
name = "Bold SemiCondensed Italic Jun 13 15, 20:40";
paths = (
{
closed = 1;
nodes = (
"271 702 LINE SMOOTH",
"232 702 OFFCURVE",
"210 691 OFFCURVE",
"208 670 CURVE SMOOTH",
"161 227 LINE SMOOTH",
"153 154 OFFCURVE",
"126 123 OFFCURVE",
"66 123 CURVE SMOOTH",
"22 123 OFFCURVE",
"11 132 OFFCURVE",
"3 132 CURVE SMOOTH",
"-4 132 OFFCURVE",
"-17 121 OFFCURVE",
"-17 35 CURVE SMOOTH",
"-17 -2 OFFCURVE",
"39 -8 OFFCURVE",
"79 -8 CURVE SMOOTH",
"228 -8 OFFCURVE",
"299 75 OFFCURVE",
"313 202 CURVE SMOOTH",
"363 671 LINE",
"363 700 OFFCURVE",
"323 702 OFFCURVE",
"306 702 CURVE SMOOTH"
);
}
);
width = 341;
}
);
leftKerningGroup = J;
rightKerningGroup = J;
unicode = 004A;
},
{
glyphname = K;
layers = (
{
anchors = (
{
name = bottom;
position = "{238, 0}";
},
{
name = top;
position = "{322, 700}";
}
);
background = {
paths = (
{
closed = 1;
nodes = (
"118 -2 LINE SMOOTH",
"159 -2 OFFCURVE",
"178 9 OFFCURVE",
"180 30 CURVE SMOOTH",
"211 320 LINE",
"214 321 LINE",
"301 17 LINE SMOOTH",
"305 2 OFFCURVE",
"325 -2 OFFCURVE",
"353 -2 CURVE SMOOTH",
"419 -2 LINE SMOOTH",
"455 -2 OFFCURVE",
"472 4 OFFCURVE",
"473 13 CURVE SMOOTH",
"473 18 OFFCURVE",
"473 25 OFFCURVE",
"469 34 CURVE SMOOTH",
"334 431 LINE",
"317 280 LINE",
"524 666 LINE SMOOTH",
"529 675 OFFCURVE",
"532 682 OFFCURVE",
"532 687 CURVE SMOOTH",
"533 696 OFFCURVE",
"518 702 OFFCURVE",
"479 702 CURVE SMOOTH",
"424 702 LINE SMOOTH",
"397 702 OFFCURVE",
"379 699 OFFCURVE",
"371 683 CURVE SMOOTH",
"220 371 LINE",
"216 372 LINE",
"248 670 LINE SMOOTH",
"250 691 OFFCURVE",
"233 702 OFFCURVE",
"192 702 CURVE SMOOTH",
"152 702 LINE SMOOTH",
"111 702 OFFCURVE",
"93 691 OFFCURVE",
"91 670 CURVE SMOOTH",
"23 30 LINE SMOOTH",
"21 9 OFFCURVE",
"37 -2 OFFCURVE",
"78 -2 CURVE SMOOTH"
);
}
);
};
layerId = "373C5ECE-2403-4F88-B498-8D3B1E7E9A2C";
paths = (
{
closed = 1;
nodes = (
"128 -2 LINE SMOOTH",
"169 -2 OFFCURVE",
"188 9 OFFCURVE",
"190 30 CURVE SMOOTH",
"218 333 LINE",
"224 333 LINE",
"321 17 LINE SMOOTH",
"326 2 OFFCURVE",
"345 -2 OFFCURVE",
"373 -2 CURVE SMOOTH",
"431 -2 LINE SMOOTH",
"467 -2 OFFCURVE",
"484 4 OFFCURVE",
"485 13 CURVE",
"485 18 OFFCURVE",
"485 25 OFFCURVE",
"481 34 CURVE",
"358 353 LINE",
"544 666 LINE SMOOTH",
"549 675 OFFCURVE",
"552 682 OFFCURVE",
"552 687 CURVE",
"553 696 OFFCURVE",
"538 702 OFFCURVE",
"499 702 CURVE SMOOTH",
"444 702 LINE SMOOTH",
"417 702 OFFCURVE",
"399 699 OFFCURVE",
"391 683 CURVE SMOOTH",
"230 380 LINE",
"223 380 LINE",
"258 670 LINE SMOOTH",
"261 691 OFFCURVE",
"243 702 OFFCURVE",
"202 702 CURVE SMOOTH",
"162 702 LINE SMOOTH",
"121 702 OFFCURVE",
"103 691 OFFCURVE",
"101 670 CURVE SMOOTH",
"33 30 LINE SMOOTH",
"31 9 OFFCURVE",
"47 -2 OFFCURVE",
"88 -2 CURVE SMOOTH"
);
}
);
width = 510;
},
{
anchors = (
{
name = bottom;
position = "{229, 0}";
},
{
name = top;
position = "{303, 700}";
}
);
background = {
paths = (
{
closed = 1;
nodes = (
"265 357 LINE",
"513 669 LINE",
"520 677 OFFCURVE",
"523 684 OFFCURVE",
"524 689 CURVE SMOOTH",
"525 696 OFFCURVE",
"514 702 OFFCURVE",
"490 702 CURVE SMOOTH",
"473 702 LINE SMOOTH",
"453 702 OFFCURVE",
"434 700 OFFCURVE",
"425 688 CURVE SMOOTH",
"179 368 LINE",
"176 368 LINE",
"209 680 LINE SMOOTH",
"210 694 OFFCURVE",
"199 702 OFFCURVE",
"172 702 CURVE SMOOTH",
"159 702 LINE SMOOTH",
"132 702 OFFCURVE",
"120 694 OFFCURVE",
"119 680 CURVE SMOOTH",
"50 20 LINE SMOOTH",
"48 6 OFFCURVE",
"58 -2 OFFCURVE",
"85 -2 CURVE SMOOTH",
"98 -2 LINE SMOOTH",
"125 -2 OFFCURVE",
"138 6 OFFCURVE",
"140 20 CURVE SMOOTH",
"173 337 LINE",
"176 337 LINE",
"361 11 LINE SMOOTH",
"368 -2 OFFCURVE",
"387 -2 OFFCURVE",
"407 -2 CURVE SMOOTH",
"428 -2 LINE SMOOTH",
"456 -2 OFFCURVE",
"469 1 OFFCURVE",
"470 12 CURVE SMOOTH",
"470 16 OFFCURVE",
"470 20 OFFCURVE",
"464 28 CURVE SMOOTH"
);
}
);
};
layerId = "E8E506BC-BBFD-46D4-BF6A-32B0AB7FBD03";
paths = (
{
closed = 1;
nodes = (
"103 -2 LINE SMOOTH",
"130 -2 OFFCURVE",
"143 6 OFFCURVE",
"144 20 CURVE SMOOTH",
"177 333 LINE",
"180 333 LINE",
"375 11 LINE SMOOTH",
"383 -2 OFFCURVE",
"402 -2 OFFCURVE",
"422 -2 CURVE SMOOTH",
"433 -2 LINE SMOOTH",
"461 -2 OFFCURVE",
"473 1 OFFCURVE",
"474 12 CURVE",
"475 16 OFFCURVE",
"474 20 OFFCURVE",
"469 28 CURVE SMOOTH",
"270 352 LINE",
"508 669 LINE",
"514 676 OFFCURVE",
"518 684 OFFCURVE",
"519 689 CURVE",
"519 696 OFFCURVE",
"509 702 OFFCURVE",
"485 702 CURVE SMOOTH",
"468 702 LINE SMOOTH",
"448 702 OFFCURVE",
"429 700 OFFCURVE",
"420 688 CURVE SMOOTH",
"185 374 LINE",
"182 374 LINE",
"214 680 LINE SMOOTH",
"215 694 OFFCURVE",
"204 702 OFFCURVE",
"177 702 CURVE SMOOTH",
"164 702 LINE SMOOTH",
"137 702 OFFCURVE",
"125 694 OFFCURVE",
"124 680 CURVE SMOOTH",
"54 20 LINE SMOOTH",
"53 6 OFFCURVE",
"63 -2 OFFCURVE",
"90 -2 CURVE SMOOTH"
);
}
);
width = 510;
},
{
anchors = (
{
name = bottom;
position = "{252, 0}";
},
{
name = top;
position = "{252, 700}";
}
);
associatedMasterId = "E8E506BC-BBFD-46D4-BF6A-32B0AB7FBD03";
layerId = "76F17502-367F-435E-B23E-ED9D928E777B";
name = "SemiCondensed Italic Condensed Regular";
paths = (
{
closed = 1;
nodes = (
"126 -2 LINE SMOOTH",
"153 -2 OFFCURVE",
"165 6 OFFCURVE",
"165 20 CURVE SMOOTH",
"165 333 LINE",
"168 333 LINE",
"387 11 LINE SMOOTH",
"396 -2 OFFCURVE",
"415 -2 OFFCURVE",
"435 -2 CURVE SMOOTH",
"456 -2 LINE SMOOTH",
"484 -2 OFFCURVE",
"496 1 OFFCURVE",
"496 12 CURVE SMOOTH",
"496 16 OFFCURVE",
"495 20 OFFCURVE",
"489 28 CURVE SMOOTH",
"252 357 LINE",
"450 669 LINE SMOOTH",
"455 677 OFFCURVE",
"459 684 OFFCURVE",
"459 689 CURVE SMOOTH",
"459 696 OFFCURVE",
"448 702 OFFCURVE",
"424 702 CURVE SMOOTH",
"407 702 LINE SMOOTH",
"387 702 OFFCURVE",
"368 700 OFFCURVE",
"360 688 CURVE SMOOTH",
"168 374 LINE",
"165 374 LINE",
"165 680 LINE SMOOTH",
"165 694 OFFCURVE",
"153 702 OFFCURVE",
"126 702 CURVE SMOOTH",
"113 702 LINE SMOOTH",
"86 702 OFFCURVE",
"75 694 OFFCURVE",
"75 680 CURVE SMOOTH",
"75 20 LINE SMOOTH",
"75 6 OFFCURVE",
"86 -2 OFFCURVE",
"113 -2 CURVE SMOOTH"
);
}
);
width = 490;
},
{
anchors = (
{
name = bottom;
position = "{255, 0}";
},
{
name = top;
position = "{265, 700}";
}
);
associatedMasterId = "373C5ECE-2403-4F88-B498-8D3B1E7E9A2C";
layerId = "6662946B-F990-402F-A6FD-22D24AB84B33";
name = "Bold SemiCondensed Italic Condensed Bold";
paths = (
{
closed = 1;
nodes = (
"145 -2 LINE SMOOTH",
"186 -2 OFFCURVE",
"204 9 OFFCURVE",
"204 30 CURVE SMOOTH",
"204 320 LINE",
"207 321 LINE",
"326 17 LINE SMOOTH",
"332 2 OFFCURVE",
"352 -2 OFFCURVE",
"380 -2 CURVE SMOOTH",
"446 -2 LINE SMOOTH",
"482 -2 OFFCURVE",
"498 4 OFFCURVE",
"498 13 CURVE SMOOTH",
"498 18 OFFCURVE",
"497 25 OFFCURVE",
"492 34 CURVE SMOOTH",
"342 370 LINE",
"481 666 LINE SMOOTH",
"485 675 OFFCURVE",
"487 682 OFFCURVE",
"487 687 CURVE SMOOTH",
"487 696 OFFCURVE",
"471 702 OFFCURVE",
"432 702 CURVE SMOOTH",
"377 702 LINE SMOOTH",
"350 702 OFFCURVE",
"332 699 OFFCURVE",
"326 683 CURVE SMOOTH",
"208 401 LINE",
"204 402 LINE",
"204 670 LINE SMOOTH",
"204 691 OFFCURVE",
"186 702 OFFCURVE",
"145 702 CURVE SMOOTH",
"105 702 LINE SMOOTH",
"64 702 OFFCURVE",
"47 691 OFFCURVE",
"47 670 CURVE SMOOTH",
"47 30 LINE SMOOTH",
"47 9 OFFCURVE",
"64 -2 OFFCURVE",
"105 -2 CURVE SMOOTH"
);
}
);
width = 490;
},
{
anchors = (
{
name = bottom;
position = "{270, 0}";
},
{
name = top;
position = "{340, 700}";
}
);
associatedMasterId = "373C5ECE-2403-4F88-B498-8D3B1E7E9A2C";
background = {
anchors = (
{
name = bottom;
position = "{270, 0}";
},
{
name = top;
position = "{340, 700}";
}
);
paths = (
{
closed = 1;
nodes = (
"498 702 LINE SMOOTH",
"469 702 OFFCURVE",
"447 698 OFFCURVE",
"436 683 CURVE SMOOTH",
"233 401 LINE",
"229 402 LINE",
"257 670 LINE",
"257 691 OFFCURVE",
"243 702 OFFCURVE",
"200 702 CURVE SMOOTH",
"165 702 LINE SMOOTH",
"123 702 OFFCURVE",
"104 691 OFFCURVE",
"102 670 CURVE SMOOTH",
"35 30 LINE",
"35 9 OFFCURVE",
"49 -2 OFFCURVE",
"92 -2 CURVE SMOOTH",
"127 -2 LINE SMOOTH",
"169 -2 OFFCURVE",
"188 9 OFFCURVE",
"190 30 CURVE SMOOTH",
"220 320 LINE",
"224 321 LINE",
"381 17 LINE SMOOTH",
"388 2 OFFCURVE",
"408 -2 OFFCURVE",
"440 -2 CURVE SMOOTH",
"498 -2 LINE SMOOTH",
"542 -2 OFFCURVE",
"555 5 OFFCURVE",
"555 16 CURVE SMOOTH",
"555 20 OFFCURVE",
"553 26 OFFCURVE",
"549 34 CURVE SMOOTH",
"366 370 LINE",
"590 666 LINE SMOOTH",
"597 675 OFFCURVE",
"600 683 OFFCURVE",
"600 688 CURVE SMOOTH",
"600 696 OFFCURVE",
"583 702 OFFCURVE",
"545 702 CURVE SMOOTH"
);
}
);
};
layerId = "CE3BFF3D-BB72-49B1-9070-A8DC88AAA39B";
name = "Bold SemiCondensed Italic Jun 13 15, 20:40";
paths = (
{
closed = 1;
nodes = (
"498 702 LINE SMOOTH",
"469 702 OFFCURVE",
"447 698 OFFCURVE",
"436 683 CURVE SMOOTH",
"233 401 LINE",
"229 402 LINE",
"257 670 LINE",
"257 691 OFFCURVE",
"243 702 OFFCURVE",
"200 702 CURVE SMOOTH",
"165 702 LINE SMOOTH",
"123 702 OFFCURVE",
"104 691 OFFCURVE",
"102 670 CURVE SMOOTH",
"35 30 LINE",
"35 9 OFFCURVE",
"49 -2 OFFCURVE",
"92 -2 CURVE SMOOTH",
"127 -2 LINE SMOOTH",
"169 -2 OFFCURVE",
"188 9 OFFCURVE",
"190 30 CURVE SMOOTH",
"220 320 LINE",
"224 321 LINE",
"381 17 LINE SMOOTH",
"388 2 OFFCURVE",
"408 -2 OFFCURVE",
"440 -2 CURVE SMOOTH",
"498 -2 LINE SMOOTH",
"542 -2 OFFCURVE",
"555 5 OFFCURVE",
"555 16 CURVE SMOOTH",
"555 20 OFFCURVE",
"553 26 OFFCURVE",
"549 34 CURVE SMOOTH",
"366 370 LINE",
"590 666 LINE SMOOTH",
"597 675 OFFCURVE",
"600 683 OFFCURVE",
"600 688 CURVE SMOOTH",
"600 696 OFFCURVE",
"583 702 OFFCURVE",
"545 702 CURVE SMOOTH"
);
}
);
width = 490;
}
);
leftKerningGroup = H;
rightKerningGroup = K;
unicode = 004B;
},
{
glyphname = L;
layers = (
{
anchors = (
{
name = bottom;
position = "{188, 0}";
},
{
name = center;
position = "{344, 335}";
},
{
name = top;
position = "{184, 700}";
},
{
name = topright;
position = "{333, 702}";
}
);
layerId = "373C5ECE-2403-4F88-B498-8D3B1E7E9A2C";
paths = (
{
closed = 1;
nodes = (
"335 0 LINE SMOOTH",
"356 0 OFFCURVE",
"367 15 OFFCURVE",
"370 50 CURVE SMOOTH",
"374 81 LINE SMOOTH",
"377 116 OFFCURVE",
"370 131 OFFCURVE",
"349 131 CURVE SMOOTH",
"200 131 LINE",
"257 670 LINE SMOOTH",
"259 691 OFFCURVE",
"243 702 OFFCURVE",
"202 702 CURVE SMOOTH",
"162 702 LINE SMOOTH",
"121 702 OFFCURVE",
"103 691 OFFCURVE",
"101 670 CURVE SMOOTH",
"34 40 LINE SMOOTH",
"31 12 OFFCURVE",
"41 0 OFFCURVE",
"67 0 CURVE SMOOTH"
);
}
);
width = 408;
},
{
anchors = (
{
name = bottom;
position = "{210, 0}";
},
{
name = center;
position = "{330, 335}";
},
{
name = top;
position = "{173, 702}";
},
{
name = topright;
position = "{332, 700}";
}
);
layerId = "E8E506BC-BBFD-46D4-BF6A-32B0AB7FBD03";
paths = (
{
closed = 1;
nodes = (
"350 0 LINE SMOOTH",
"364 0 OFFCURVE",
"371 9 OFFCURVE",
"373 30 CURVE SMOOTH",
"375 46 LINE SMOOTH",
"377 67 OFFCURVE",
"372 76 OFFCURVE",
"358 76 CURVE SMOOTH",
"150 76 LINE",
"214 680 LINE SMOOTH",
"215 694 OFFCURVE",
"205 702 OFFCURVE",
"178 702 CURVE SMOOTH",
"164 702 LINE SMOOTH",
"137 702 OFFCURVE",
"125 694 OFFCURVE",
"124 680 CURVE SMOOTH",
"55 30 LINE SMOOTH",
"53 9 OFFCURVE",
"60 0 OFFCURVE",
"79 0 CURVE SMOOTH"
);
}
);
width = 408;
},
{
anchors = (
{
name = bottom;
position = "{229, 0}";
},
{
name = caron;
position = "{201, 700}";
},
{
name = center;
position = "{283, 335}";
},
{
name = top;
position = "{118, 702}";
}
);
associatedMasterId = "E8E506BC-BBFD-46D4-BF6A-32B0AB7FBD03";
layerId = "76F17502-367F-435E-B23E-ED9D928E777B";
name = "SemiCondensed Italic Condensed Regular";
paths = (
{
closed = 1;
nodes = (
"369 0 LINE SMOOTH",
"383 0 OFFCURVE",
"389 9 OFFCURVE",
"389 30 CURVE SMOOTH",
"389 46 LINE SMOOTH",
"389 67 OFFCURVE",
"383 76 OFFCURVE",
"369 76 CURVE SMOOTH",
"161 76 LINE",
"161 680 LINE SMOOTH",
"161 694 OFFCURVE",
"150 702 OFFCURVE",
"123 702 CURVE SMOOTH",
"109 702 LINE SMOOTH",
"82 702 OFFCURVE",
"71 694 OFFCURVE",
"71 680 CURVE SMOOTH",
"71 30 LINE SMOOTH",
"71 9 OFFCURVE",
"79 0 OFFCURVE",
"98 0 CURVE SMOOTH"
);
}
);
width = 394;
},
{
anchors = (
{
name = bottom;
position = "{208, 0}";
},
{
name = caron;
position = "{231, 700}";
},
{
name = center;
position = "{308, 335}";
},
{
name = top;
position = "{130, 700}";
}
);
associatedMasterId = "373C5ECE-2403-4F88-B498-8D3B1E7E9A2C";
layerId = "6662946B-F990-402F-A6FD-22D24AB84B33";
name = "Bold SemiCondensed Italic Condensed Bold";
paths = (
{
closed = 1;
nodes = (
"355 0 LINE SMOOTH",
"376 0 OFFCURVE",
"385 15 OFFCURVE",
"385 50 CURVE SMOOTH",
"385 81 LINE SMOOTH",
"385 116 OFFCURVE",
"376 131 OFFCURVE",
"355 131 CURVE SMOOTH",
"206 131 LINE",
"206 670 LINE SMOOTH",
"206 691 OFFCURVE",
"189 702 OFFCURVE",
"148 702 CURVE SMOOTH",
"108 702 LINE SMOOTH",
"67 702 OFFCURVE",
"50 691 OFFCURVE",
"50 670 CURVE SMOOTH",
"50 40 LINE SMOOTH",
"50 12 OFFCURVE",
"61 0 OFFCURVE",
"87 0 CURVE SMOOTH"
);
}
);
width = 394;
},
{
anchors = (
{
name = bottom;
position = "{218, 0}";
},
{
name = caron;
position = "{281, 700}";
},
{
name = center;
position = "{330, 335}";
},
{
name = top;
position = "{184, 700}";
}
);
associatedMasterId = "373C5ECE-2403-4F88-B498-8D3B1E7E9A2C";
background = {
anchors = (
{
name = bottom;
position = "{218, 0}";
},
{
name = caron;
position = "{281, 700}";
},
{
name = center;
position = "{330, 335}";
},
{
name = top;
position = "{184, 700}";
}
);
paths = (
{
closed = 1;
nodes = (
"166 702 LINE SMOOTH",
"127 702 OFFCURVE",
"105 691 OFFCURVE",
"103 670 CURVE SMOOTH",
"36 32 LINE",
"36 8 OFFCURVE",
"45 0 OFFCURVE",
"72 0 CURVE SMOOTH",
"412 0 LINE SMOOTH",
"441 0 OFFCURVE",
"450 39 OFFCURVE",
"450 91 CURVE SMOOTH",
"450 119 OFFCURVE",
"442 131 OFFCURVE",
"424 131 CURVE SMOOTH",
"201 131 LINE",
"258 671 LINE",
"258 700 OFFCURVE",
"218 702 OFFCURVE",
"201 702 CURVE SMOOTH"
);
}
);
};
layerId = "6521F3AD-C855-44CE-A2A1-C10BF213BC0F";
name = "Bold SemiCondensed Italic Jun 13 15, 20:40";
paths = (
{
closed = 1;
nodes = (
"166 702 LINE SMOOTH",
"127 702 OFFCURVE",
"105 691 OFFCURVE",
"103 670 CURVE SMOOTH",
"36 32 LINE",
"36 8 OFFCURVE",
"45 0 OFFCURVE",
"72 0 CURVE SMOOTH",
"412 0 LINE SMOOTH",
"441 0 OFFCURVE",
"450 39 OFFCURVE",
"450 91 CURVE SMOOTH",
"450 119 OFFCURVE",
"442 131 OFFCURVE",
"424 131 CURVE SMOOTH",
"201 131 LINE",
"258 671 LINE",
"258 700 OFFCURVE",
"218 702 OFFCURVE",
"201 702 CURVE SMOOTH"
);
}
);
width = 394;
}
);
leftKerningGroup = H;
rightKerningGroup = L;
unicode = 004C;
},
{
glyphname = LJ;
layers = (
{
background = {
paths = (
{
closed = 1;
nodes = (
"166 702 LINE SMOOTH",
"124 702 OFFCURVE",
"105 691 OFFCURVE",
"103 670 CURVE SMOOTH",
"37 40 LINE SMOOTH",
"34 12 OFFCURVE",
"45 0 OFFCURVE",
"73 0 CURVE SMOOTH",
"340 0 LINE SMOOTH",
"361 0 OFFCURVE",
"371 15 OFFCURVE",
"375 50 CURVE SMOOTH",
"378 81 LINE SMOOTH",
"382 116 OFFCURVE",
"374 131 OFFCURVE",
"353 131 CURVE SMOOTH",
"200 131 LINE",
"257 670 LINE SMOOTH",
"259 691 OFFCURVE",
"242 702 OFFCURVE",
"200 702 CURVE SMOOTH"
);
},
{
closed = 1;
nodes = (
"602 703 LINE SMOOTH",
"560 703 OFFCURVE",
"541 691 OFFCURVE",
"539 670 CURVE SMOOTH",
"474 54 LINE SMOOTH",
"467 -19 OFFCURVE",
"439 -50 OFFCURVE",
"379 -50 CURVE SMOOTH",
"347 -50 OFFCURVE",
"334 -42 OFFCURVE",
"324 -42 CURVE",
"293 -45 OFFCURVE",
"275 -117 OFFCURVE",
"273 -135 CURVE SMOOTH",
"269 -178 OFFCURVE",
"369 -181 OFFCURVE",
"393 -181 CURVE SMOOTH",
"542 -181 OFFCURVE",
"615 -85 OFFCURVE",
"628 42 CURVE SMOOTH",
"694 670 LINE SMOOTH",
"696 691 OFFCURVE",
"679 703 OFFCURVE",
"637 703 CURVE SMOOTH"
);
}
);
};
layerId = "373C5ECE-2403-4F88-B498-8D3B1E7E9A2C";
paths = (
{
closed = 1;
nodes = (
"166 702 LINE SMOOTH",
"127 702 OFFCURVE",
"105 691 OFFCURVE",
"103 670 CURVE SMOOTH",
"36 32 LINE",
"36 8 OFFCURVE",
"45 0 OFFCURVE",
"72 0 CURVE SMOOTH",
"292 0 LINE SMOOTH",
"321 0 OFFCURVE",
"330 39 OFFCURVE",
"330 91 CURVE SMOOTH",
"330 119 OFFCURVE",
"322 131 OFFCURVE",
"304 131 CURVE SMOOTH",
"201 131 LINE",
"258 671 LINE",
"258 700 OFFCURVE",
"218 702 OFFCURVE",
"201 702 CURVE SMOOTH"
);
},
{
closed = 1;
nodes = (
"534 702 LINE SMOOTH",
"495 702 OFFCURVE",
"473 691 OFFCURVE",
"471 670 CURVE SMOOTH",
"404 53 LINE SMOOTH",
"396 -20 OFFCURVE",
"369 -51 OFFCURVE",
"309 -51 CURVE SMOOTH",
"265 -51 OFFCURVE",
"254 -42 OFFCURVE",
"246 -42 CURVE SMOOTH",
"239 -42 OFFCURVE",
"226 -53 OFFCURVE",
"226 -139 CURVE SMOOTH",
"226 -176 OFFCURVE",
"282 -182 OFFCURVE",
"322 -182 CURVE SMOOTH",
"471 -182 OFFCURVE",
"542 -99 OFFCURVE",
"556 28 CURVE SMOOTH",
"626 671 LINE",
"626 700 OFFCURVE",
"586 702 OFFCURVE",
"569 702 CURVE SMOOTH"
);
}
);
width = 645;
},
{
background = {
paths = (
{
closed = 1;
nodes = (
"482 -157 OFFCURVE",
"541 -72 OFFCURVE",
"554 54 CURVE SMOOTH",
"620 680 LINE SMOOTH",
"621 694 OFFCURVE",
"610 702 OFFCURVE",
"583 702 CURVE SMOOTH",
"569 702 LINE SMOOTH",
"543 702 OFFCURVE",
"530 694 OFFCURVE",
"529 680 CURVE SMOOTH",
"462 44 LINE SMOOTH",
"453 -42 OFFCURVE",
"421 -79 OFFCURVE",
"354 -79 CURVE SMOOTH",
"328 -79 OFFCURVE",
"306 -70 OFFCURVE",
"298 -70 CURVE SMOOTH",
"285 -70 OFFCURVE",
"271 -111 OFFCURVE",
"269 -125 CURVE SMOOTH",
"267 -146 OFFCURVE",
"320 -157 OFFCURVE",
"356 -157 CURVE SMOOTH"
);
},
{
closed = 1;
nodes = (
"315 0 LINE SMOOTH",
"329 0 OFFCURVE",
"336 9 OFFCURVE",
"339 30 CURVE SMOOTH",
"340 46 LINE SMOOTH",
"342 67 OFFCURVE",
"337 76 OFFCURVE",
"323 76 CURVE SMOOTH",
"147 76 LINE",
"211 680 LINE SMOOTH",
"212 694 OFFCURVE",
"202 702 OFFCURVE",
"175 702 CURVE SMOOTH",
"161 702 LINE SMOOTH",
"134 702 OFFCURVE",
"122 694 OFFCURVE",
"121 680 CURVE SMOOTH",
"53 30 LINE SMOOTH",
"50 9 OFFCURVE",
"57 0 OFFCURVE",
"76 0 CURVE SMOOTH"
);
}
);
};
layerId = "E8E506BC-BBFD-46D4-BF6A-32B0AB7FBD03";
paths = (
{
closed = 1;
nodes = (
"160 702 LINE SMOOTH",
"132 702 OFFCURVE",
"119 694 OFFCURVE",
"118 680 CURVE SMOOTH",
"50 30 LINE",
"50 9 OFFCURVE",
"55 0 OFFCURVE",
"77 0 CURVE SMOOTH",
"332 0 LINE SMOOTH",
"357 0 OFFCURVE",
"357 31 OFFCURVE",
"357 54 CURVE SMOOTH",
"357 69 OFFCURVE",
"352 76 OFFCURVE",
"340 76 CURVE SMOOTH",
"143 76 LINE",
"206 680 LINE",
"206 694 OFFCURVE",
"197 702 OFFCURVE",
"168 702 CURVE SMOOTH"
);
},
{
closed = 1;
nodes = (
"575 702 LINE SMOOTH",
"546 702 OFFCURVE",
"534 694 OFFCURVE",
"533 680 CURVE SMOOTH",
"466 48 LINE SMOOTH",
"457 -38 OFFCURVE",
"414 -77 OFFCURVE",
"321 -77 CURVE SMOOTH",
"281 -77 OFFCURVE",
"264 -68 OFFCURVE",
"255 -68 CURVE SMOOTH",
"246 -68 OFFCURVE",
"240 -83 OFFCURVE",
"240 -127 CURVE SMOOTH",
"240 -152 OFFCURVE",
"285 -159 OFFCURVE",
"328 -159 CURVE SMOOTH",
"475 -159 OFFCURVE",
"542 -74 OFFCURVE",
"555 52 CURVE SMOOTH",
"621 680 LINE",
"621 694 OFFCURVE",
"612 702 OFFCURVE",
"583 702 CURVE SMOOTH"
);
}
);
width = 645;
}
);
leftKerningGroup = H;
rightKerningGroup = J;
unicode = 01C7;
},
{
glyphname = Lslash;
layers = (
{
components = (
{
name = L;
transform = "{1, 0, 0, 1, -1, 0}";
}
);
layerId = "373C5ECE-2403-4F88-B498-8D3B1E7E9A2C";
paths = (
{
closed = 1;
nodes = (
"22 224 OFFCURVE",
"27 225 OFFCURVE",
"33 229 CURVE",
"272 375 LINE",
"290 386 OFFCURVE",
"298 400 OFFCURVE",
"298 421 CURVE SMOOTH",
"298 441 LINE SMOOTH",
"298 454 OFFCURVE",
"294 461 OFFCURVE",
"287 461 CURVE SMOOTH",
"283 461 OFFCURVE",
"278 459 OFFCURVE",
"272 455 CURVE",
"33 309 LINE",
"15 298 OFFCURVE",
"7 286 OFFCURVE",
"7 264 CURVE SMOOTH",
"7 244 LINE SMOOTH",
"7 230 OFFCURVE",
"10 224 OFFCURVE",
"18 224 CURVE SMOOTH"
);
}
);
width = 408;
},
{
components = (
{
name = L;
transform = "{1, 0, 0, 1, -2, 0}";
}
);
layerId = "E8E506BC-BBFD-46D4-BF6A-32B0AB7FBD03";
paths = (
{
closed = 1;
nodes = (
"20 254 OFFCURVE",
"24 256 OFFCURVE",
"28 258 CURVE",
"255 393 LINE",
"267 400 OFFCURVE",
"274 409 OFFCURVE",
"274 423 CURVE SMOOTH",
"274 429 LINE SMOOTH",
"274 438 OFFCURVE",
"270 443 OFFCURVE",
"265 443 CURVE SMOOTH",
"262 443 OFFCURVE",
"259 441 OFFCURVE",
"255 439 CURVE",
"28 304 LINE",
"16 297 OFFCURVE",
"9 288 OFFCURVE",
"9 274 CURVE SMOOTH",
"9 268 LINE SMOOTH",
"9 259 OFFCURVE",
"13 254 OFFCURVE",
"18 254 CURVE SMOOTH"
);
}
);
width = 408;
}
);
leftKerningGroup = H;
rightKerningGroup = L;
unicode = 0141;
},
{
glyphname = M;
layers = (
{
background = {
paths = (
{
closed = 1;
nodes = (
"109 -2 LINE SMOOTH",
"150 -2 OFFCURVE",
"168 8 OFFCURVE",
"170 30 CURVE SMOOTH",
"207 386 LINE",
"211 387 LINE",
"282 201 LINE",
"289 184 OFFCURVE",
"298 177 OFFCURVE",
"319 177 CURVE SMOOTH",
"337 177 LINE SMOOTH",
"357 177 OFFCURVE",
"369 184 OFFCURVE",
"378 201 CURVE",
"489 392 LINE",
"493 391 LINE",
"455 30 LINE SMOOTH",
"453 8 OFFCURVE",
"469 -2 OFFCURVE",
"510 -2 CURVE SMOOTH",
"544 -2 LINE SMOOTH",
"585 -2 OFFCURVE",
"603 8 OFFCURVE",
"605 30 CURVE SMOOTH",
"673 670 LINE SMOOTH",
"675 692 OFFCURVE",
"659 702 OFFCURVE",
"618 702 CURVE SMOOTH",
"577 702 LINE SMOOTH",
"546 702 OFFCURVE",
"527 694 OFFCURVE",
"515 674 CURVE SMOOTH",
"356 400 LINE",
"349 385 LINE",
"345 400 LINE",
"247 674 LINE SMOOTH",
"240 694 OFFCURVE",
"222 702 OFFCURVE",
"190 702 CURVE SMOOTH",
"149 702 LINE SMOOTH",
"108 702 OFFCURVE",
"90 692 OFFCURVE",
"88 670 CURVE SMOOTH",
"20 30 LINE SMOOTH",
"18 8 OFFCURVE",
"34 -2 OFFCURVE",
"75 -2 CURVE SMOOTH"
);
}
);
};
layerId = "373C5ECE-2403-4F88-B498-8D3B1E7E9A2C";
paths = (
{
closed = 1;
nodes = (
"117 -2 LINE SMOOTH",
"158 -2 OFFCURVE",
"177 8 OFFCURVE",
"179 30 CURVE SMOOTH",
"215 376 LINE SMOOTH",
"217 394 OFFCURVE",
"216 413 OFFCURVE",
"215 431 CURVE",
"219 432 LINE",
"224 416 OFFCURVE",
"229 400 OFFCURVE",
"235 385 CURVE SMOOTH",
"294 247 LINE SMOOTH",
"301 230 OFFCURVE",
"311 223 OFFCURVE",
"332 223 CURVE SMOOTH",
"349 223 LINE SMOOTH",
"370 223 OFFCURVE",
"380 230 OFFCURVE",
"391 247 CURVE SMOOTH",
"480 385 LINE SMOOTH",
"490 400 OFFCURVE",
"499 416 OFFCURVE",
"507 432 CURVE",
"511 431 LINE",
"505 413 OFFCURVE",
"500 394 OFFCURVE",
"498 376 CURVE SMOOTH",
"462 30 LINE SMOOTH",
"460 8 OFFCURVE",
"475 -2 OFFCURVE",
"516 -2 CURVE SMOOTH",
"550 -2 LINE SMOOTH",
"591 -2 OFFCURVE",
"610 8 OFFCURVE",
"612 30 CURVE SMOOTH",
"679 670 LINE SMOOTH",
"681 692 OFFCURVE",
"665 702 OFFCURVE",
"624 702 CURVE SMOOTH",
"591 702 LINE SMOOTH",
"559 702 OFFCURVE",
"541 694 OFFCURVE",
"528 674 CURVE SMOOTH",
"380 439 LINE SMOOTH",
"370 424 OFFCURVE",
"362 407 OFFCURVE",
"357 391 CURVE",
"353 407 OFFCURVE",
"349 424 OFFCURVE",
"343 439 CURVE SMOOTH",
"243 674 LINE SMOOTH",
"234 694 OFFCURVE",
"218 702 OFFCURVE",
"186 702 CURVE SMOOTH",
"157 702 LINE SMOOTH",
"116 702 OFFCURVE",
"98 692 OFFCURVE",
"96 670 CURVE SMOOTH",
"29 30 LINE SMOOTH",
"27 8 OFFCURVE",
"42 -2 OFFCURVE",
"83 -2 CURVE SMOOTH"
);
}
);
width = 689;
},
{
background = {
paths = (
{
closed = 1;
nodes = (
"88 -2 LINE SMOOTH",
"115 -2 OFFCURVE",
"127 6 OFFCURVE",
"128 20 CURVE SMOOTH",
"181 523 LINE",
"185 521 LINE",
"296 222 LINE SMOOTH",
"299 213 OFFCURVE",
"305 209 OFFCURVE",
"316 209 CURVE SMOOTH",
"349 209 LINE SMOOTH",
"360 209 OFFCURVE",
"369 213 OFFCURVE",
"374 222 CURVE SMOOTH",
"544 515 LINE",
"548 517 LINE",
"495 20 LINE SMOOTH",
"494 6 OFFCURVE",
"504 -2 OFFCURVE",
"531 -2 CURVE SMOOTH",
"543 -2 LINE SMOOTH",
"570 -2 OFFCURVE",
"582 6 OFFCURVE",
"583 20 CURVE SMOOTH",
"653 680 LINE SMOOTH",
"654 694 OFFCURVE",
"644 702 OFFCURVE",
"617 702 CURVE SMOOTH",
"588 702 LINE SMOOTH",
"568 702 OFFCURVE",
"554 696 OFFCURVE",
"548 684 CURVE SMOOTH",
"365 368 LINE",
"344 323 LINE",
"334 371 LINE",
"217 684 LINE SMOOTH",
"213 696 OFFCURVE",
"201 702 OFFCURVE",
"181 702 CURVE SMOOTH",
"150 702 LINE SMOOTH",
"123 702 OFFCURVE",
"111 694 OFFCURVE",
"110 680 CURVE SMOOTH",
"40 20 LINE SMOOTH",
"39 6 OFFCURVE",
"49 -2 OFFCURVE",
"76 -2 CURVE SMOOTH"
);
}
);
};
layerId = "E8E506BC-BBFD-46D4-BF6A-32B0AB7FBD03";
paths = (
{
closed = 1;
nodes = (
"94 -2 LINE SMOOTH",
"121 -2 OFFCURVE",
"134 6 OFFCURVE",
"135 20 CURVE SMOOTH",
"183 478 LINE SMOOTH",
"186 502 OFFCURVE",
"186 525 OFFCURVE",
"185 549 CURVE",
"189 551 LINE",
"196 528 OFFCURVE",
"203 504 OFFCURVE",
"212 482 CURVE SMOOTH",
"305 252 LINE SMOOTH",
"309 243 OFFCURVE",
"315 239 OFFCURVE",
"326 239 CURVE SMOOTH",
"360 239 LINE SMOOTH",
"371 239 OFFCURVE",
"378 243 OFFCURVE",
"383 252 CURVE SMOOTH",
"524 482 LINE SMOOTH",
"537 504 OFFCURVE",
"550 528 OFFCURVE",
"561 551 CURVE",
"565 549 LINE",
"560 525 OFFCURVE",
"556 502 OFFCURVE",
"553 478 CURVE SMOOTH",
"505 20 LINE SMOOTH",
"504 6 OFFCURVE",
"513 -2 OFFCURVE",
"540 -2 CURVE SMOOTH",
"552 -2 LINE SMOOTH",
"579 -2 OFFCURVE",
"592 6 OFFCURVE",
"593 20 CURVE SMOOTH",
"662 680 LINE SMOOTH",
"663 694 OFFCURVE",
"653 702 OFFCURVE",
"626 702 CURVE SMOOTH",
"603 702 LINE SMOOTH",
"583 702 OFFCURVE",
"571 696 OFFCURVE",
"563 684 CURVE SMOOTH",
"380 385 LINE SMOOTH",
"363 359 OFFCURVE",
"356 335 OFFCURVE",
"351 317 CURVE",
"350 335 OFFCURVE",
"345 358 OFFCURVE",
"332 388 CURVE SMOOTH",
"211 684 LINE SMOOTH",
"206 696 OFFCURVE",
"195 702 OFFCURVE",
"175 702 CURVE SMOOTH",
"156 702 LINE SMOOTH",
"129 702 OFFCURVE",
"117 694 OFFCURVE",
"116 680 CURVE SMOOTH",
"47 20 LINE SMOOTH",
"46 6 OFFCURVE",
"55 -2 OFFCURVE",
"82 -2 CURVE SMOOTH"
);
}
);
width = 689;
},
{
associatedMasterId = "E8E506BC-BBFD-46D4-BF6A-32B0AB7FBD03";
layerId = "76F17502-367F-435E-B23E-ED9D928E777B";
name = "SemiCondensed Italic Condensed Regular";
paths = (
{
closed = 1;
nodes = (
"116 -2 LINE SMOOTH",
"143 -2 OFFCURVE",
"154 6 OFFCURVE",
"154 20 CURVE SMOOTH",
"154 523 LINE",
"158 521 LINE",
"300 222 LINE SMOOTH",
"304 213 OFFCURVE",
"311 209 OFFCURVE",
"322 209 CURVE SMOOTH",
"355 209 LINE SMOOTH",
"366 209 OFFCURVE",
"374 213 OFFCURVE",
"378 222 CURVE SMOOTH",
"518 515 LINE",
"521 517 LINE",
"521 20 LINE SMOOTH",
"521 6 OFFCURVE",
"532 -2 OFFCURVE",
"559 -2 CURVE SMOOTH",
"571 -2 LINE SMOOTH",
"598 -2 OFFCURVE",
"609 6 OFFCURVE",
"609 20 CURVE SMOOTH",
"609 680 LINE SMOOTH",
"609 694 OFFCURVE",
"598 702 OFFCURVE",
"571 702 CURVE SMOOTH",
"542 702 LINE SMOOTH",
"522 702 OFFCURVE",
"509 696 OFFCURVE",
"504 684 CURVE SMOOTH",
"354 368 LINE",
"338 323 LINE",
"323 371 LINE",
"173 684 LINE SMOOTH",
"168 696 OFFCURVE",
"155 702 OFFCURVE",
"135 702 CURVE SMOOTH",
"104 702 LINE SMOOTH",
"77 702 OFFCURVE",
"66 694 OFFCURVE",
"66 680 CURVE SMOOTH",
"66 20 LINE SMOOTH",
"66 6 OFFCURVE",
"77 -2 OFFCURVE",
"104 -2 CURVE SMOOTH"
);
}
);
width = 675;
},
{
associatedMasterId = "373C5ECE-2403-4F88-B498-8D3B1E7E9A2C";
layerId = "6662946B-F990-402F-A6FD-22D24AB84B33";
name = "Bold SemiCondensed Italic Condensed Bold";
paths = (
{
closed = 1;
nodes = (
"137 -2 LINE SMOOTH",
"178 -2 OFFCURVE",
"195 8 OFFCURVE",
"195 30 CURVE SMOOTH",
"195 381 LINE",
"199 382 LINE",
"289 191 LINE",
"297 174 OFFCURVE",
"307 167 OFFCURVE",
"328 167 CURVE SMOOTH",
"346 167 LINE SMOOTH",
"366 167 OFFCURVE",
"377 174 OFFCURVE",
"385 191 CURVE",
"476 382 LINE",
"480 381 LINE",
"480 30 LINE SMOOTH",
"480 8 OFFCURVE",
"497 -2 OFFCURVE",
"538 -2 CURVE SMOOTH",
"572 -2 LINE SMOOTH",
"613 -2 OFFCURVE",
"630 8 OFFCURVE",
"630 30 CURVE SMOOTH",
"630 670 LINE SMOOTH",
"630 692 OFFCURVE",
"613 702 OFFCURVE",
"572 702 CURVE SMOOTH",
"521 702 LINE SMOOTH",
"490 702 OFFCURVE",
"471 694 OFFCURVE",
"462 674 CURVE SMOOTH",
"342 412 LINE",
"336 395 LINE",
"331 410 LINE",
"214 674 LINE SMOOTH",
"205 694 OFFCURVE",
"186 702 OFFCURVE",
"154 702 CURVE SMOOTH",
"103 702 LINE SMOOTH",
"62 702 OFFCURVE",
"45 692 OFFCURVE",
"45 670 CURVE SMOOTH",
"45 30 LINE SMOOTH",
"45 8 OFFCURVE",
"62 -2 OFFCURVE",
"103 -2 CURVE SMOOTH"
);
}
);
width = 675;
},
{
associatedMasterId = "373C5ECE-2403-4F88-B498-8D3B1E7E9A2C";
background = {
paths = (
{
closed = 1;
nodes = (
"704 702 LINE SMOOTH",
"675 702 OFFCURVE",
"652 695 OFFCURVE",
"639 675 CURVE SMOOTH",
"449 394 LINE",
"428 362 LINE",
"417 386 LINE",
"285 675 LINE SMOOTH",
"276 695 OFFCURVE",
"253 702 OFFCURVE",
"224 702 CURVE SMOOTH",
"171 702 LINE SMOOTH",
"129 702 OFFCURVE",
"110 691 OFFCURVE",
"108 670 CURVE SMOOTH",
"41 30 LINE",
"41 9 OFFCURVE",
"55 -2 OFFCURVE",
"98 -2 CURVE SMOOTH",
"127 -2 LINE SMOOTH",
"169 -2 OFFCURVE",
"188 9 OFFCURVE",
"190 30 CURVE SMOOTH",
"233 444 LINE",
"237 445 LINE",
"355 186 LINE",
"363 174 OFFCURVE",
"374 167 OFFCURVE",
"393 167 CURVE SMOOTH",
"422 167 LINE SMOOTH",
"441 167 OFFCURVE",
"454 174 OFFCURVE",
"464 186 CURVE",
"636 445 LINE",
"640 444 LINE",
"597 30 LINE",
"597 9 OFFCURVE",
"611 -2 OFFCURVE",
"654 -2 CURVE SMOOTH",
"683 -2 LINE SMOOTH",
"725 -2 OFFCURVE",
"744 9 OFFCURVE",
"746 30 CURVE SMOOTH",
"813 670 LINE",
"813 691 OFFCURVE",
"799 702 OFFCURVE",
"756 702 CURVE SMOOTH"
);
}
);
};
layerId = "66694EA6-60A8-42C9-8EAE-2C4FB3E91821";
name = "Bold SemiCondensed Italic Jun 13 15, 20:40";
paths = (
{
closed = 1;
nodes = (
"704 702 LINE SMOOTH",
"675 702 OFFCURVE",
"652 695 OFFCURVE",
"639 675 CURVE SMOOTH",
"449 394 LINE",
"428 362 LINE",
"417 386 LINE",
"285 675 LINE SMOOTH",
"276 695 OFFCURVE",
"253 702 OFFCURVE",
"224 702 CURVE SMOOTH",
"171 702 LINE SMOOTH",
"129 702 OFFCURVE",
"110 691 OFFCURVE",
"108 670 CURVE SMOOTH",
"41 30 LINE",
"41 9 OFFCURVE",
"55 -2 OFFCURVE",
"98 -2 CURVE SMOOTH",
"127 -2 LINE SMOOTH",
"169 -2 OFFCURVE",
"188 9 OFFCURVE",
"190 30 CURVE SMOOTH",
"233 444 LINE",
"237 445 LINE",
"355 186 LINE",
"363 174 OFFCURVE",
"374 167 OFFCURVE",
"393 167 CURVE SMOOTH",
"422 167 LINE SMOOTH",
"441 167 OFFCURVE",
"454 174 OFFCURVE",
"464 186 CURVE",
"636 445 LINE",
"640 444 LINE",
"597 30 LINE",
"597 9 OFFCURVE",
"611 -2 OFFCURVE",
"654 -2 CURVE SMOOTH",
"683 -2 LINE SMOOTH",
"725 -2 OFFCURVE",
"744 9 OFFCURVE",
"746 30 CURVE SMOOTH",
"813 670 LINE",
"813 691 OFFCURVE",
"799 702 OFFCURVE",
"756 702 CURVE SMOOTH"
);
}
);
width = 675;
}
);
leftKerningGroup = H;
rightKerningGroup = H;
unicode = 004D;
},
{
glyphname = N;
layers = (
{
anchors = (
{
name = bottom;
position = "{277, 0}";
},
{
name = top;
position = "{343, 700}";
}
);
background = {
paths = (
{
closed = 1;
nodes = (
"109 -2 LINE SMOOTH",
"150 -2 OFFCURVE",
"168 9 OFFCURVE",
"170 30 CURVE SMOOTH",
"206 427 LINE",
"216 386 LINE",
"360 26 LINE SMOOTH",
"370 1 OFFCURVE",
"392 -2 OFFCURVE",
"421 -2 CURVE SMOOTH",
"445 -2 LINE SMOOTH",
"485 -2 OFFCURVE",
"504 9 OFFCURVE",
"506 30 CURVE SMOOTH",
"574 670 LINE SMOOTH",
"576 691 OFFCURVE",
"559 702 OFFCURVE",
"519 702 CURVE SMOOTH",
"485 702 LINE SMOOTH",
"444 702 OFFCURVE",
"426 691 OFFCURVE",
"424 670 CURVE SMOOTH",
"392 284 LINE",
"377 335 LINE",
"254 674 LINE SMOOTH",
"245 699 OFFCURVE",
"221 702 OFFCURVE",
"195 702 CURVE SMOOTH",
"149 702 LINE SMOOTH",
"108 702 OFFCURVE",
"90 691 OFFCURVE",
"88 670 CURVE SMOOTH",
"20 30 LINE SMOOTH",
"18 9 OFFCURVE",
"34 -2 OFFCURVE",
"75 -2 CURVE SMOOTH"
);
}
);
};
layerId = "373C5ECE-2403-4F88-B498-8D3B1E7E9A2C";
paths = (
{
closed = 1;
nodes = (
"106 -2 LINE SMOOTH",
"147 -2 OFFCURVE",
"166 9 OFFCURVE",
"168 30 CURVE SMOOTH",
"205 369 LINE SMOOTH",
"208 392 OFFCURVE",
"206 414 OFFCURVE",
"204 437 CURVE",
"210 440 LINE",
"216 419 OFFCURVE",
"221 396 OFFCURVE",
"230 376 CURVE SMOOTH",
"382 26 LINE SMOOTH",
"392 3 OFFCURVE",
"409 -2 OFFCURVE",
"433 -2 CURVE SMOOTH",
"452 -2 LINE SMOOTH",
"492 -2 OFFCURVE",
"511 9 OFFCURVE",
"514 30 CURVE SMOOTH",
"581 670 LINE SMOOTH",
"583 691 OFFCURVE",
"566 702 OFFCURVE",
"526 702 CURVE SMOOTH",
"502 702 LINE SMOOTH",
"461 702 OFFCURVE",
"443 691 OFFCURVE",
"441 670 CURVE SMOOTH",
"404 341 LINE SMOOTH",
"401 315 OFFCURVE",
"403 288 OFFCURVE",
"404 262 CURVE",
"400 260 LINE",
"393 286 OFFCURVE",
"385 312 OFFCURVE",
"374 338 CURVE SMOOTH",
"231 674 LINE SMOOTH",
"221 698 OFFCURVE",
"204 702 OFFCURVE",
"182 702 CURVE SMOOTH",
"156 702 LINE SMOOTH",
"115 702 OFFCURVE",
"97 691 OFFCURVE",
"95 670 CURVE SMOOTH",
"28 30 LINE SMOOTH",
"25 9 OFFCURVE",
"41 -2 OFFCURVE",
"82 -2 CURVE SMOOTH"
);
}
);
width = 590;
},
{
anchors = (
{
name = bottom;
position = "{262, 0}";
},
{
name = top;
position = "{337, 700}";
}
);
background = {
paths = (
{
closed = 1;
nodes = (
"88 -2 LINE SMOOTH",
"115 -2 OFFCURVE",
"127 6 OFFCURVE",
"128 20 CURVE SMOOTH",
"182 553 LINE",
"196 496 LINE",
"389 13 LINE SMOOTH",
"393 3 OFFCURVE",
"404 -2 OFFCURVE",
"423 -2 CURVE SMOOTH",
"444 -2 LINE SMOOTH",
"470 -2 OFFCURVE",
"483 6 OFFCURVE",
"484 20 CURVE SMOOTH",
"554 680 LINE SMOOTH",
"555 694 OFFCURVE",
"544 702 OFFCURVE",
"518 702 CURVE SMOOTH",
"506 702 LINE SMOOTH",
"479 702 OFFCURVE",
"467 694 OFFCURVE",
"466 680 CURVE SMOOTH",
"412 150 LINE",
"395 211 LINE",
"211 682 LINE SMOOTH",
"205 697 OFFCURVE",
"193 702 OFFCURVE",
"174 702 CURVE SMOOTH",
"150 702 LINE SMOOTH",
"123 702 OFFCURVE",
"111 694 OFFCURVE",
"110 680 CURVE SMOOTH",
"40 20 LINE SMOOTH",
"39 6 OFFCURVE",
"49 -2 OFFCURVE",
"76 -2 CURVE SMOOTH"
);
}
);
};
layerId = "E8E506BC-BBFD-46D4-BF6A-32B0AB7FBD03";
paths = (
{
closed = 1;
nodes = (
"95 -2 LINE SMOOTH",
"122 -2 OFFCURVE",
"135 6 OFFCURVE",
"136 20 CURVE SMOOTH",
"185 480 LINE SMOOTH",
"187 502 OFFCURVE",
"187 524 OFFCURVE",
"184 546 CURVE",
"189 548 LINE",
"194 527 OFFCURVE",
"200 506 OFFCURVE",
"208 485 CURVE SMOOTH",
"399 13 LINE SMOOTH",
"403 3 OFFCURVE",
"414 -2 OFFCURVE",
"433 -2 CURVE SMOOTH",
"451 -2 LINE SMOOTH",
"477 -2 OFFCURVE",
"490 6 OFFCURVE",
"492 20 CURVE SMOOTH",
"561 680 LINE SMOOTH",
"562 694 OFFCURVE",
"551 702 OFFCURVE",
"525 702 CURVE SMOOTH",
"513 702 LINE SMOOTH",
"486 702 OFFCURVE",
"474 694 OFFCURVE",
"473 680 CURVE SMOOTH",
"425 230 LINE SMOOTH",
"423 208 OFFCURVE",
"423 186 OFFCURVE",
"426 164 CURVE",
"421 162 LINE",
"416 183 OFFCURVE",
"409 204 OFFCURVE",
"401 225 CURVE SMOOTH",
"218 682 LINE SMOOTH",
"212 697 OFFCURVE",
"200 702 OFFCURVE",
"181 702 CURVE SMOOTH",
"157 702 LINE SMOOTH",
"130 702 OFFCURVE",
"118 694 OFFCURVE",
"117 680 CURVE SMOOTH",
"48 20 LINE SMOOTH",
"46 6 OFFCURVE",
"56 -2 OFFCURVE",
"83 -2 CURVE SMOOTH"
);
}
);
width = 590;
},
{
anchors = (
{
name = bottom;
position = "{288, 0}";
},
{
name = top;
position = "{288, 700}";
}
);
associatedMasterId = "E8E506BC-BBFD-46D4-BF6A-32B0AB7FBD03";
layerId = "76F17502-367F-435E-B23E-ED9D928E777B";
name = "SemiCondensed Italic Condensed Regular";
paths = (
{
closed = 1;
nodes = (
"116 -2 LINE SMOOTH",
"143 -2 OFFCURVE",
"154 6 OFFCURVE",
"154 20 CURVE SMOOTH",
"154 538 LINE",
"174 481 LINE",
"415 13 LINE SMOOTH",
"420 3 OFFCURVE",
"432 -2 OFFCURVE",
"451 -2 CURVE SMOOTH",
"472 -2 LINE SMOOTH",
"498 -2 OFFCURVE",
"510 6 OFFCURVE",
"510 20 CURVE SMOOTH",
"510 680 LINE SMOOTH",
"510 694 OFFCURVE",
"498 702 OFFCURVE",
"472 702 CURVE SMOOTH",
"460 702 LINE SMOOTH",
"433 702 OFFCURVE",
"422 694 OFFCURVE",
"422 680 CURVE SMOOTH",
"422 174 LINE",
"399 235 LINE",
"167 682 LINE SMOOTH",
"159 697 OFFCURVE",
"147 702 OFFCURVE",
"128 702 CURVE SMOOTH",
"104 702 LINE SMOOTH",
"77 702 OFFCURVE",
"66 694 OFFCURVE",
"66 680 CURVE SMOOTH",
"66 20 LINE SMOOTH",
"66 6 OFFCURVE",
"77 -2 OFFCURVE",
"104 -2 CURVE SMOOTH"
);
}
);
width = 576;
},
{
anchors = (
{
name = bottom;
position = "{288, 0}";
},
{
name = top;
position = "{288, 700}";
}
);
associatedMasterId = "373C5ECE-2403-4F88-B498-8D3B1E7E9A2C";
layerId = "6662946B-F990-402F-A6FD-22D24AB84B33";
name = "Bold SemiCondensed Italic Condensed Bold";
paths = (
{
closed = 1;
nodes = (
"137 -2 LINE SMOOTH",
"178 -2 OFFCURVE",
"195 9 OFFCURVE",
"195 30 CURVE SMOOTH",
"195 387 LINE",
"209 346 LINE",
"370 26 LINE SMOOTH",
"382 1 OFFCURVE",
"405 -2 OFFCURVE",
"434 -2 CURVE SMOOTH",
"473 -2 LINE SMOOTH",
"513 -2 OFFCURVE",
"531 9 OFFCURVE",
"531 30 CURVE SMOOTH",
"531 670 LINE SMOOTH",
"531 691 OFFCURVE",
"513 702 OFFCURVE",
"473 702 CURVE SMOOTH",
"439 702 LINE SMOOTH",
"398 702 OFFCURVE",
"381 691 OFFCURVE",
"381 670 CURVE SMOOTH",
"381 317 LINE",
"361 368 LINE",
"211 674 LINE SMOOTH",
"199 699 OFFCURVE",
"175 702 OFFCURVE",
"149 702 CURVE SMOOTH",
"103 702 LINE SMOOTH",
"62 702 OFFCURVE",
"45 691 OFFCURVE",
"45 670 CURVE SMOOTH",
"45 30 LINE SMOOTH",
"45 9 OFFCURVE",
"62 -2 OFFCURVE",
"103 -2 CURVE SMOOTH"
);
}
);
width = 576;
},
{
anchors = (
{
name = bottom;
position = "{341, 0}";
},
{
name = top;
position = "{396, 700}";
}
);
associatedMasterId = "373C5ECE-2403-4F88-B498-8D3B1E7E9A2C";
background = {
anchors = (
{
name = bottom;
position = "{341, 0}";
},
{
name = top;
position = "{396, 700}";
}
);
paths = (
{
closed = 1;
nodes = (
"597 702 LINE SMOOTH",
"555 702 OFFCURVE",
"536 691 OFFCURVE",
"534 670 CURVE SMOOTH",
"492 270 LINE",
"476 300 LINE",
"272 675 LINE SMOOTH",
"259 698 OFFCURVE",
"237 702 OFFCURVE",
"208 702 CURVE SMOOTH",
"165 702 LINE SMOOTH",
"123 702 OFFCURVE",
"104 691 OFFCURVE",
"102 670 CURVE SMOOTH",
"35 30 LINE",
"35 9 OFFCURVE",
"49 -2 OFFCURVE",
"92 -2 CURVE SMOOTH",
"121 -2 LINE SMOOTH",
"163 -2 OFFCURVE",
"182 9 OFFCURVE",
"184 30 CURVE SMOOTH",
"226 435 LINE",
"239 412 LINE",
"451 25 LINE SMOOTH",
"464 2 OFFCURVE",
"486 -2 OFFCURVE",
"515 -2 CURVE SMOOTH",
"553 -2 LINE SMOOTH",
"595 -2 OFFCURVE",
"614 9 OFFCURVE",
"616 30 CURVE SMOOTH",
"683 670 LINE",
"683 691 OFFCURVE",
"669 702 OFFCURVE",
"626 702 CURVE SMOOTH"
);
}
);
};
layerId = "B8AFE64C-5C73-4750-A294-D453ECF5EA18";
name = "Bold SemiCondensed Italic Jun 13 15, 20:40";
paths = (
{
closed = 1;
nodes = (
"597 702 LINE SMOOTH",
"555 702 OFFCURVE",
"536 691 OFFCURVE",
"534 670 CURVE SMOOTH",
"492 270 LINE",
"476 300 LINE",
"272 675 LINE SMOOTH",
"259 698 OFFCURVE",
"237 702 OFFCURVE",
"208 702 CURVE SMOOTH",
"165 702 LINE SMOOTH",
"123 702 OFFCURVE",
"104 691 OFFCURVE",
"102 670 CURVE SMOOTH",
"35 30 LINE",
"35 9 OFFCURVE",
"49 -2 OFFCURVE",
"92 -2 CURVE SMOOTH",
"121 -2 LINE SMOOTH",
"163 -2 OFFCURVE",
"182 9 OFFCURVE",
"184 30 CURVE SMOOTH",
"226 435 LINE",
"239 412 LINE",
"451 25 LINE SMOOTH",
"464 2 OFFCURVE",
"486 -2 OFFCURVE",
"515 -2 CURVE SMOOTH",
"553 -2 LINE SMOOTH",
"595 -2 OFFCURVE",
"614 9 OFFCURVE",
"616 30 CURVE SMOOTH",
"683 670 LINE",
"683 691 OFFCURVE",
"669 702 OFFCURVE",
"626 702 CURVE SMOOTH"
);
}
);
width = 576;
}
);
leftKerningGroup = H;
rightKerningGroup = H;
unicode = 004E;
},
{
glyphname = Eng;
layers = (
{
background = {
paths = (
{
closed = 1;
nodes = (
"502 702 LINE SMOOTH",
"461 702 OFFCURVE",
"443 691 OFFCURVE",
"441 670 CURVE SMOOTH",
"404 341 LINE SMOOTH",
"401 315 OFFCURVE",
"403 288 OFFCURVE",
"404 262 CURVE",
"400 260 LINE",
"393 286 OFFCURVE",
"385 312 OFFCURVE",
"374 338 CURVE SMOOTH",
"231 674 LINE SMOOTH",
"221 698 OFFCURVE",
"204 702 OFFCURVE",
"182 702 CURVE SMOOTH",
"156 702 LINE SMOOTH",
"115 702 OFFCURVE",
"97 691 OFFCURVE",
"95 670 CURVE SMOOTH",
"28 30 LINE",
"25 9 OFFCURVE",
"41 -2 OFFCURVE",
"82 -2 CURVE SMOOTH",
"106 -2 LINE SMOOTH",
"147 -2 OFFCURVE",
"166 9 OFFCURVE",
"168 30 CURVE SMOOTH",
"205 369 LINE SMOOTH",
"208 392 OFFCURVE",
"206 414 OFFCURVE",
"204 437 CURVE",
"210 440 LINE",
"216 419 OFFCURVE",
"221 396 OFFCURVE",
"230 376 CURVE SMOOTH",
"369 56 LINE",
"357 -52 LINE SMOOTH",
"354 -82 OFFCURVE",
"347 -95 OFFCURVE",
"329 -95 CURVE SMOOTH",
"318 -95 OFFCURVE",
"305 -91 OFFCURVE",
"299 -91 CURVE SMOOTH",
"278 -91 OFFCURVE",
"263 -138 OFFCURVE",
"261 -161 CURVE SMOOTH",
"257 -200 OFFCURVE",
"291 -212 OFFCURVE",
"354 -212 CURVE SMOOTH",
"430 -212 OFFCURVE",
"494 -159 OFFCURVE",
"505 -50 CURVE",
"581 670 LINE",
"583 691 OFFCURVE",
"566 702 OFFCURVE",
"526 702 CURVE SMOOTH"
);
}
);
};
layerId = "373C5ECE-2403-4F88-B498-8D3B1E7E9A2C";
paths = (
{
closed = 1;
nodes = (
"430 -212 OFFCURVE",
"493 -158 OFFCURVE",
"505 -50 CURVE SMOOTH",
"581 670 LINE SMOOTH",
"583 691 OFFCURVE",
"566 702 OFFCURVE",
"526 702 CURVE SMOOTH",
"502 702 LINE SMOOTH",
"461 702 OFFCURVE",
"443 691 OFFCURVE",
"441 670 CURVE SMOOTH",
"404 341 LINE SMOOTH",
"401 315 OFFCURVE",
"403 288 OFFCURVE",
"404 262 CURVE",
"400 260 LINE",
"393 286 OFFCURVE",
"385 312 OFFCURVE",
"374 338 CURVE SMOOTH",
"231 674 LINE SMOOTH",
"221 698 OFFCURVE",
"204 702 OFFCURVE",
"182 702 CURVE SMOOTH",
"156 702 LINE SMOOTH",
"115 702 OFFCURVE",
"97 691 OFFCURVE",
"95 670 CURVE SMOOTH",
"28 30 LINE",
"25 9 OFFCURVE",
"41 -2 OFFCURVE",
"82 -2 CURVE SMOOTH",
"106 -2 LINE SMOOTH",
"147 -2 OFFCURVE",
"166 9 OFFCURVE",
"168 30 CURVE SMOOTH",
"205 369 LINE SMOOTH",
"208 392 OFFCURVE",
"206 414 OFFCURVE",
"204 437 CURVE",
"210 440 LINE",
"216 419 OFFCURVE",
"221 396 OFFCURVE",
"230 376 CURVE SMOOTH",
"380 31 LINE",
"371 -52 LINE SMOOTH",
"367 -82 OFFCURVE",
"356 -95 OFFCURVE",
"329 -95 CURVE SMOOTH",
"318 -95 OFFCURVE",
"305 -91 OFFCURVE",
"299 -91 CURVE SMOOTH",
"278 -91 OFFCURVE",
"263 -138 OFFCURVE",
"261 -161 CURVE SMOOTH",
"257 -200 OFFCURVE",
"291 -212 OFFCURVE",
"354 -212 CURVE SMOOTH"
);
}
);
width = 590;
},
{
background = {
paths = (
{
closed = 1;
nodes = (
"95 -2 LINE SMOOTH",
"122 -2 OFFCURVE",
"135 6 OFFCURVE",
"136 20 CURVE SMOOTH",
"185 480 LINE SMOOTH",
"187 502 OFFCURVE",
"187 524 OFFCURVE",
"184 546 CURVE",
"189 548 LINE",
"194 527 OFFCURVE",
"200 506 OFFCURVE",
"208 485 CURVE SMOOTH",
"399 13 LINE",
"433 -2 LINE",
"451 -2 LINE",
"492 20 LINE",
"561 680 LINE SMOOTH",
"562 694 OFFCURVE",
"551 702 OFFCURVE",
"525 702 CURVE SMOOTH",
"513 702 LINE SMOOTH",
"486 702 OFFCURVE",
"474 694 OFFCURVE",
"473 680 CURVE SMOOTH",
"425 230 LINE SMOOTH",
"422 208 OFFCURVE",
"422 186 OFFCURVE",
"422 164 CURVE",
"417 162 LINE",
"413 183 OFFCURVE",
"409 204 OFFCURVE",
"401 225 CURVE SMOOTH",
"218 682 LINE SMOOTH",
"212 697 OFFCURVE",
"200 702 OFFCURVE",
"181 702 CURVE SMOOTH",
"157 702 LINE SMOOTH",
"130 702 OFFCURVE",
"118 694 OFFCURVE",
"117 680 CURVE SMOOTH",
"48 20 LINE SMOOTH",
"46 6 OFFCURVE",
"56 -2 OFFCURVE",
"83 -2 CURVE SMOOTH"
);
},
{
closed = 1;
nodes = (
"401 -212 OFFCURVE",
"471 -190 OFFCURVE",
"482 -80 CURVE SMOOTH",
"492 20 LINE",
"459 503 LINE",
"399 -72 LINE SMOOTH",
"393 -127 OFFCURVE",
"374 -140 OFFCURVE",
"354 -140 CURVE SMOOTH",
"330 -140 OFFCURVE",
"325 -135 OFFCURVE",
"318 -135 CURVE SMOOTH",
"304 -135 OFFCURVE",
"293 -174 OFFCURVE",
"292 -182 CURVE SMOOTH",
"290 -209 OFFCURVE",
"333 -212 OFFCURVE",
"359 -212 CURVE SMOOTH"
);
}
);
};
layerId = "E8E506BC-BBFD-46D4-BF6A-32B0AB7FBD03";
paths = (
{
closed = 1;
nodes = (
"401 -212 OFFCURVE",
"471 -190 OFFCURVE",
"482 -80 CURVE SMOOTH",
"560 677 LINE SMOOTH",
"562 694 OFFCURVE",
"551 702 OFFCURVE",
"525 702 CURVE SMOOTH",
"513 702 LINE SMOOTH",
"486 702 OFFCURVE",
"474 694 OFFCURVE",
"473 680 CURVE",
"425 230 LINE SMOOTH",
"422 208 OFFCURVE",
"422 186 OFFCURVE",
"422 164 CURVE",
"417 162 LINE",
"413 183 OFFCURVE",
"409 204 OFFCURVE",
"401 225 CURVE SMOOTH",
"218 682 LINE SMOOTH",
"212 697 OFFCURVE",
"200 702 OFFCURVE",
"181 702 CURVE SMOOTH",
"157 702 LINE SMOOTH",
"130 702 OFFCURVE",
"118 694 OFFCURVE",
"117 680 CURVE SMOOTH",
"49 23 LINE SMOOTH",
"47 6 OFFCURVE",
"56 -2 OFFCURVE",
"83 -2 CURVE SMOOTH",
"95 -2 LINE SMOOTH",
"122 -2 OFFCURVE",
"135 6 OFFCURVE",
"136 20 CURVE SMOOTH",
"185 480 LINE SMOOTH",
"187 502 OFFCURVE",
"187 524 OFFCURVE",
"184 546 CURVE",
"189 548 LINE",
"194 527 OFFCURVE",
"200 506 OFFCURVE",
"208 485 CURVE SMOOTH",
"408 -12 LINE",
"402 -72 LINE SMOOTH",
"396 -127 OFFCURVE",
"375 -140 OFFCURVE",
"354 -140 CURVE SMOOTH",
"330 -140 OFFCURVE",
"325 -135 OFFCURVE",
"318 -135 CURVE SMOOTH",
"304 -135 OFFCURVE",
"293 -174 OFFCURVE",
"292 -182 CURVE",
"290 -209 OFFCURVE",
"333 -212 OFFCURVE",
"359 -212 CURVE SMOOTH"
);
}
);
width = 590;
}
);
leftKerningGroup = H;
rightKerningGroup = H;
unicode = 014A;
},
{
glyphname = Nhookleft;
layers = (
{
layerId = "373C5ECE-2403-4F88-B498-8D3B1E7E9A2C";
paths = (
{
closed = 1;
nodes = (
"94 -212 OFFCURVE",
"152 -137 OFFCURVE",
"165 -2 CURVE SMOOTH",
"205 369 LINE SMOOTH",
"208 392 OFFCURVE",
"206 414 OFFCURVE",
"204 437 CURVE",
"210 440 LINE",
"216 419 OFFCURVE",
"221 396 OFFCURVE",
"230 376 CURVE SMOOTH",
"382 26 LINE SMOOTH",
"392 3 OFFCURVE",
"409 -2 OFFCURVE",
"433 -2 CURVE SMOOTH",
"452 -2 LINE SMOOTH",
"492 -2 OFFCURVE",
"511 9 OFFCURVE",
"514 30 CURVE",
"581 670 LINE SMOOTH",
"583 691 OFFCURVE",
"566 702 OFFCURVE",
"526 702 CURVE SMOOTH",
"502 702 LINE SMOOTH",
"461 702 OFFCURVE",
"443 691 OFFCURVE",
"441 670 CURVE SMOOTH",
"404 341 LINE SMOOTH",
"401 315 OFFCURVE",
"403 288 OFFCURVE",
"404 262 CURVE",
"400 260 LINE",
"393 286 OFFCURVE",
"385 312 OFFCURVE",
"374 338 CURVE SMOOTH",
"231 674 LINE SMOOTH",
"221 698 OFFCURVE",
"204 702 OFFCURVE",
"182 702 CURVE SMOOTH",
"156 702 LINE SMOOTH",
"115 702 OFFCURVE",
"97 691 OFFCURVE",
"95 670 CURVE SMOOTH",
"27 23 LINE SMOOTH",
"19 -48 OFFCURVE",
"5 -79 OFFCURVE",
"-32 -79 CURVE SMOOTH",
"-58 -79 OFFCURVE",
"-68 -73 OFFCURVE",
"-79 -73 CURVE SMOOTH",
"-102 -74 OFFCURVE",
"-127 -131 OFFCURVE",
"-131 -166 CURVE SMOOTH",
"-134 -194 OFFCURVE",
"-76 -212 OFFCURVE",
"-21 -212 CURVE SMOOTH"
);
}
);
width = 590;
},
{
layerId = "E8E506BC-BBFD-46D4-BF6A-32B0AB7FBD03";
paths = (
{
closed = 1;
nodes = (
"70 -212 OFFCURVE",
"122 -127 OFFCURVE",
"134 -1 CURVE SMOOTH",
"185 480 LINE SMOOTH",
"187 502 OFFCURVE",
"187 524 OFFCURVE",
"184 546 CURVE",
"189 548 LINE",
"194 527 OFFCURVE",
"200 506 OFFCURVE",
"208 485 CURVE SMOOTH",
"399 13 LINE SMOOTH",
"403 3 OFFCURVE",
"414 -2 OFFCURVE",
"433 -2 CURVE SMOOTH",
"451 -2 LINE SMOOTH",
"477 -2 OFFCURVE",
"490 6 OFFCURVE",
"492 20 CURVE",
"561 680 LINE SMOOTH",
"562 694 OFFCURVE",
"551 702 OFFCURVE",
"525 702 CURVE SMOOTH",
"513 702 LINE SMOOTH",
"486 702 OFFCURVE",
"474 694 OFFCURVE",
"473 680 CURVE",
"425 230 LINE SMOOTH",
"423 208 OFFCURVE",
"423 186 OFFCURVE",
"426 164 CURVE",
"421 162 LINE",
"416 183 OFFCURVE",
"409 204 OFFCURVE",
"401 225 CURVE SMOOTH",
"218 682 LINE SMOOTH",
"212 697 OFFCURVE",
"200 702 OFFCURVE",
"181 702 CURVE SMOOTH",
"157 702 LINE SMOOTH",
"130 702 OFFCURVE",
"118 694 OFFCURVE",
"117 680 CURVE SMOOTH",
"45 -11 LINE SMOOTH",
"38 -97 OFFCURVE",
"12 -134 OFFCURVE",
"-43 -134 CURVE SMOOTH",
"-69 -134 OFFCURVE",
"-91 -125 OFFCURVE",
"-99 -125 CURVE SMOOTH",
"-112 -125 OFFCURVE",
"-126 -167 OFFCURVE",
"-128 -180 CURVE SMOOTH",
"-131 -202 OFFCURVE",
"-77 -212 OFFCURVE",
"-41 -212 CURVE SMOOTH"
);
}
);
width = 590;
}
);
leftKerningGroup = H;
rightKerningGroup = H;
unicode = 019D;
},
{
glyphname = O;
layers = (
{
anchors = (
{
name = bottom;
position = "{288, 0}";
},
{
name = horn;
position = "{510, 651}";
},
{
name = ogonek;
position = "{346, 0}";
},
{
name = top;
position = "{358, 700}";
}
);
layerId = "373C5ECE-2403-4F88-B498-8D3B1E7E9A2C";
paths = (
{
closed = 1;
nodes = (
"484 -8 OFFCURVE",
"577 184 OFFCURVE",
"577 418 CURVE SMOOTH",
"577 631 OFFCURVE",
"486 708 OFFCURVE",
"351 708 CURVE SMOOTH",
"135 708 OFFCURVE",
"42 516 OFFCURVE",
"42 283 CURVE SMOOTH",
"42 69 OFFCURVE",
"135 -8 OFFCURVE",
"268 -8 CURVE SMOOTH"
);
},
{
closed = 1;
nodes = (
"230 123 OFFCURVE",
"200 164 OFFCURVE",
"200 283 CURVE SMOOTH",
"200 420 OFFCURVE",
"232 576 OFFCURVE",
"337 576 CURVE SMOOTH",
"391 576 OFFCURVE",
"420 535 OFFCURVE",
"420 419 CURVE SMOOTH",
"420 283 OFFCURVE",
"389 123 OFFCURVE",
"285 123 CURVE SMOOTH"
);
}
);
width = 599;
},
{
anchors = (
{
name = bottom;
position = "{285, 0}";
},
{
name = horn;
position = "{482, 657}";
},
{
name = ogonek;
position = "{343, 0}";
},
{
name = top;
position = "{334, 700}";
}
);
layerId = "E8E506BC-BBFD-46D4-BF6A-32B0AB7FBD03";
paths = (
{
closed = 1;
nodes = (
"492 -6 OFFCURVE",
"564 201 OFFCURVE",
"564 396 CURVE SMOOTH",
"564 622 OFFCURVE",
"467 706 OFFCURVE",
"335 706 CURVE SMOOTH",
"134 706 OFFCURVE",
"55 512 OFFCURVE",
"55 311 CURVE SMOOTH",
"55 124 OFFCURVE",
"123 -6 OFFCURVE",
"286 -6 CURVE SMOOTH"
);
},
{
closed = 1;
nodes = (
"185 70 OFFCURVE",
"148 168 OFFCURVE",
"148 308 CURVE SMOOTH",
"148 458 OFFCURVE",
"191 630 OFFCURVE",
"332 630 CURVE SMOOTH",
"416 630 OFFCURVE",
"473 569 OFFCURVE",
"473 398 CURVE SMOOTH",
"473 260 OFFCURVE",
"436 70 OFFCURVE",
"290 70 CURVE SMOOTH"
);
}
);
width = 599;
},
{
anchors = (
{
name = bottom;
position = "{293, 0}";
},
{
name = horn;
position = "{433, 657}";
},
{
name = ogonek;
position = "{374, 9}";
},
{
name = top;
position = "{293, 700}";
}
);
associatedMasterId = "E8E506BC-BBFD-46D4-BF6A-32B0AB7FBD03";
layerId = "76F17502-367F-435E-B23E-ED9D928E777B";
name = "SemiCondensed Italic Condensed Regular";
paths = (
{
closed = 1;
nodes = (
"454 -6 OFFCURVE",
"543 109 OFFCURVE",
"543 352 CURVE SMOOTH",
"543 595 OFFCURVE",
"454 706 OFFCURVE",
"292 706 CURVE SMOOTH",
"131 706 OFFCURVE",
"42 595 OFFCURVE",
"42 352 CURVE SMOOTH",
"42 109 OFFCURVE",
"131 -6 OFFCURVE",
"292 -6 CURVE SMOOTH"
);
},
{
closed = 1;
nodes = (
"190 70 OFFCURVE",
"135 159 OFFCURVE",
"135 352 CURVE SMOOTH",
"135 545 OFFCURVE",
"190 630 OFFCURVE",
"293 630 CURVE SMOOTH",
"395 630 OFFCURVE",
"451 545 OFFCURVE",
"451 352 CURVE SMOOTH",
"451 159 OFFCURVE",
"395 70 OFFCURVE",
"293 70 CURVE SMOOTH"
);
}
);
width = 585;
},
{
anchors = (
{
name = bottom;
position = "{293, 0}";
},
{
name = horn;
position = "{440, 651}";
},
{
name = ogonek;
position = "{368, 4}";
},
{
name = top;
position = "{293, 700}";
}
);
associatedMasterId = "373C5ECE-2403-4F88-B498-8D3B1E7E9A2C";
layerId = "6662946B-F990-402F-A6FD-22D24AB84B33";
name = "Bold SemiCondensed Italic Condensed Bold";
paths = (
{
closed = 1;
nodes = (
"460 -8 OFFCURVE",
"554 100 OFFCURVE",
"554 350 CURVE SMOOTH",
"554 600 OFFCURVE",
"460 708 OFFCURVE",
"293 708 CURVE SMOOTH",
"127 708 OFFCURVE",
"31 601 OFFCURVE",
"31 350 CURVE SMOOTH",
"31 99 OFFCURVE",
"127 -8 OFFCURVE",
"293 -8 CURVE SMOOTH"
);
},
{
closed = 1;
nodes = (
"225 123 OFFCURVE",
"190 172 OFFCURVE",
"190 350 CURVE SMOOTH",
"190 528 OFFCURVE",
"225 576 OFFCURVE",
"294 576 CURVE SMOOTH",
"362 576 OFFCURVE",
"396 528 OFFCURVE",
"396 350 CURVE SMOOTH",
"396 172 OFFCURVE",
"362 123 OFFCURVE",
"294 123 CURVE SMOOTH"
);
}
);
width = 585;
},
{
anchors = (
{
name = bottom;
position = "{327, 0}";
},
{
name = horn;
position = "{517, 682}";
},
{
name = ogonek;
position = "{423, 0}";
},
{
name = top;
position = "{396, 700}";
}
);
associatedMasterId = "373C5ECE-2403-4F88-B498-8D3B1E7E9A2C";
background = {
anchors = (
{
name = bottom;
position = "{327, 0}";
},
{
name = horn;
position = "{517, 682}";
},
{
name = ogonek;
position = "{423, 0}";
},
{
name = top;
position = "{396, 700}";
}
);
paths = (
{
closed = 1;
nodes = (
"140 708 OFFCURVE",
"41 496 OFFCURVE",
"41 284 CURVE SMOOTH",
"41 95 OFFCURVE",
"142 -8 OFFCURVE",
"328 -8 CURVE SMOOTH",
"562 -8 OFFCURVE",
"689 143 OFFCURVE",
"689 414 CURVE SMOOTH",
"689 604 OFFCURVE",
"589 708 OFFCURVE",
"403 708 CURVE SMOOTH"
);
},
{
closed = 1;
nodes = (
"483 576 OFFCURVE",
"531 515 OFFCURVE",
"531 400 CURVE SMOOTH",
"531 221 OFFCURVE",
"456 123 OFFCURVE",
"342 123 CURVE SMOOTH",
"248 123 OFFCURVE",
"200 184 OFFCURVE",
"200 298 CURVE SMOOTH",
"200 478 OFFCURVE",
"273 576 OFFCURVE",
"389 576 CURVE SMOOTH"
);
}
);
};
layerId = "D8934CC0-237F-470D-8FF1-BA3D2BC16BFF";
name = "Bold SemiCondensed Italic Jun 13 15, 20:40";
paths = (
{
closed = 1;
nodes = (
"140 708 OFFCURVE",
"41 496 OFFCURVE",
"41 284 CURVE SMOOTH",
"41 95 OFFCURVE",
"142 -8 OFFCURVE",
"328 -8 CURVE SMOOTH",
"562 -8 OFFCURVE",
"689 143 OFFCURVE",
"689 414 CURVE SMOOTH",
"689 604 OFFCURVE",
"589 708 OFFCURVE",
"403 708 CURVE SMOOTH"
);
},
{
closed = 1;
nodes = (
"483 576 OFFCURVE",
"531 515 OFFCURVE",
"531 400 CURVE SMOOTH",
"531 221 OFFCURVE",
"456 123 OFFCURVE",
"342 123 CURVE SMOOTH",
"248 123 OFFCURVE",
"200 184 OFFCURVE",
"200 298 CURVE SMOOTH",
"200 478 OFFCURVE",
"273 576 OFFCURVE",
"389 576 CURVE SMOOTH"
);
}
);
width = 585;
}
);
leftKerningGroup = O;
rightKerningGroup = O;
unicode = 004F;
},
{
glyphname = Ohorn;
layers = (
{
anchors = (
{
name = bottom;
position = "{288, 0}";
},
{
name = ogonek;
position = "{348, 4}";
},
{
name = top;
position = "{334, 700}";
}
);
background = {
paths = (
{
closed = 1;
nodes = (
"497 -8 OFFCURVE",
"574 181 OFFCURVE",
"574 390 CURVE SMOOTH",
"574 624 OFFCURVE",
"477 708 OFFCURVE",
"334 708 CURVE SMOOTH",
"120 708 OFFCURVE",
"43 519 OFFCURVE",
"43 311 CURVE SMOOTH",
"43 75 OFFCURVE",
"143 -8 OFFCURVE",
"284 -8 CURVE SMOOTH"
);
},
{
closed = 1;
nodes = (
"235 123 OFFCURVE",
"201 167 OFFCURVE",
"201 307 CURVE SMOOTH",
"201 418 OFFCURVE",
"222 576 OFFCURVE",
"329 576 CURVE SMOOTH",
"385 576 OFFCURVE",
"417 533 OFFCURVE",
"417 394 CURVE SMOOTH",
"417 284 OFFCURVE",
"397 123 OFFCURVE",
"291 123 CURVE SMOOTH"
);
}
);
};
layerId = "373C5ECE-2403-4F88-B498-8D3B1E7E9A2C";
paths = (
{
closed = 1;
nodes = (
"497 -8 OFFCURVE",
"574 181 OFFCURVE",
"574 390 CURVE SMOOTH",
"574 495 OFFCURVE",
"559 550 OFFCURVE",
"527 608 CURVE",
"599 608 OFFCURVE",
"644 644 OFFCURVE",
"644 702 CURVE SMOOTH",
"644 732 OFFCURVE",
"623 785 OFFCURVE",
"597 785 CURVE SMOOTH",
"591 785 OFFCURVE",
"586 784 OFFCURVE",
"574 776 CURVE SMOOTH",
"556 763 LINE SMOOTH",
"541 753 OFFCURVE",
"538 746 OFFCURVE",
"538 739 CURVE SMOOTH",
"538 726 OFFCURVE",
"566 709 OFFCURVE",
"566 684 CURVE SMOOTH",
"566 662 OFFCURVE",
"552 651 OFFCURVE",
"532 651 CURVE SMOOTH",
"516 651 OFFCURVE",
"500 658 OFFCURVE",
"480 670 CURVE SMOOTH",
"442 692 OFFCURVE",
"394 708 OFFCURVE",
"334 708 CURVE SMOOTH",
"120 708 OFFCURVE",
"43 519 OFFCURVE",
"43 311 CURVE SMOOTH",
"43 75 OFFCURVE",
"143 -8 OFFCURVE",
"284 -8 CURVE SMOOTH"
);
},
{
closed = 1;
nodes = (
"235 123 OFFCURVE",
"201 167 OFFCURVE",
"201 307 CURVE SMOOTH",
"201 418 OFFCURVE",
"222 576 OFFCURVE",
"329 576 CURVE SMOOTH",
"385 576 OFFCURVE",
"417 533 OFFCURVE",
"417 394 CURVE SMOOTH",
"417 284 OFFCURVE",
"397 123 OFFCURVE",
"291 123 CURVE SMOOTH"
);
}
);
width = 599;
},
{
anchors = (
{
name = bottom;
position = "{285, 0}";
},
{
name = ogonek;
position = "{355, 9}";
},
{
name = top;
position = "{334, 700}";
}
);
background = {
paths = (
{
closed = 1;
nodes = (
"492 -6 OFFCURVE",
"564 201 OFFCURVE",
"564 396 CURVE SMOOTH",
"564 622 OFFCURVE",
"467 706 OFFCURVE",
"335 706 CURVE SMOOTH",
"134 706 OFFCURVE",
"55 512 OFFCURVE",
"55 311 CURVE SMOOTH",
"55 124 OFFCURVE",
"123 -6 OFFCURVE",
"286 -6 CURVE SMOOTH"
);
},
{
closed = 1;
nodes = (
"185 70 OFFCURVE",
"148 168 OFFCURVE",
"148 308 CURVE SMOOTH",
"148 458 OFFCURVE",
"191 630 OFFCURVE",
"332 630 CURVE SMOOTH",
"416 630 OFFCURVE",
"473 569 OFFCURVE",
"473 398 CURVE SMOOTH",
"473 260 OFFCURVE",
"436 70 OFFCURVE",
"290 70 CURVE SMOOTH"
);
}
);
};
layerId = "E8E506BC-BBFD-46D4-BF6A-32B0AB7FBD03";
paths = (
{
closed = 1;
nodes = (
"492 -6 OFFCURVE",
"564 201 OFFCURVE",
"564 396 CURVE SMOOTH",
"564 504 OFFCURVE",
"544 577 OFFCURVE",
"508 624 CURVE",
"575 625 OFFCURVE",
"610 654 OFFCURVE",
"610 709 CURVE SMOOTH",
"610 745 OFFCURVE",
"590 788 OFFCURVE",
"567 788 CURVE SMOOTH",
"558 788 OFFCURVE",
"551 782 OFFCURVE",
"548 780 CURVE SMOOTH",
"538 773 LINE SMOOTH",
"532 769 OFFCURVE",
"522 761 OFFCURVE",
"522 753 CURVE SMOOTH",
"522 739 OFFCURVE",
"549 720 OFFCURVE",
"549 690 CURVE SMOOTH",
"549 668 OFFCURVE",
"534 655 OFFCURVE",
"512 655 CURVE SMOOTH",
"496 655 OFFCURVE",
"484 662 OFFCURVE",
"472 669 CURVE SMOOTH",
"437 689 OFFCURVE",
"401 706 OFFCURVE",
"340 706 CURVE SMOOTH",
"135 706 OFFCURVE",
"55 512 OFFCURVE",
"55 311 CURVE SMOOTH",
"55 124 OFFCURVE",
"123 -6 OFFCURVE",
"286 -6 CURVE SMOOTH"
);
},
{
closed = 1;
nodes = (
"185 70 OFFCURVE",
"148 168 OFFCURVE",
"148 308 CURVE SMOOTH",
"148 458 OFFCURVE",
"191 630 OFFCURVE",
"335 630 CURVE SMOOTH",
"416 630 OFFCURVE",
"473 569 OFFCURVE",
"473 398 CURVE SMOOTH",
"473 260 OFFCURVE",
"436 70 OFFCURVE",
"290 70 CURVE SMOOTH"
);
}
);
width = 599;
}
);
leftKerningGroup = O;
rightKerningGroup = Ohorn;
unicode = 01A0;
},
{
glyphname = Oslash;
layers = (
{
anchors = (
{
name = top;
position = "{343, 700}";
}
);
components = (
{
name = O;
}
);
layerId = "373C5ECE-2403-4F88-B498-8D3B1E7E9A2C";
paths = (
{
closed = 1;
nodes = (
"98 -23 OFFCURVE",
"107 -18 OFFCURVE",
"114 -7 CURVE SMOOTH",
"558 670 LINE SMOOTH",
"564 678 OFFCURVE",
"565 683 OFFCURVE",
"565 689 CURVE SMOOTH",
"565 707 OFFCURVE",
"531 730 OFFCURVE",
"514 730 CURVE SMOOTH",
"504 730 OFFCURVE",
"498 724 OFFCURVE",
"491 714 CURVE SMOOTH",
"46 36 LINE SMOOTH",
"42 30 OFFCURVE",
"39 23 OFFCURVE",
"39 18 CURVE SMOOTH",
"39 0 OFFCURVE",
"72 -23 OFFCURVE",
"90 -23 CURVE SMOOTH"
);
}
);
width = 599;
},
{
anchors = (
{
name = top;
position = "{343, 700}";
}
);
components = (
{
name = O;
}
);
layerId = "E8E506BC-BBFD-46D4-BF6A-32B0AB7FBD03";
paths = (
{
closed = 1;
nodes = (
"100 -18 OFFCURVE",
"105 -13 OFFCURVE",
"109 -6 CURVE SMOOTH",
"535 685 LINE SMOOTH",
"538 690 OFFCURVE",
"539 694 OFFCURVE",
"539 697 CURVE SMOOTH",
"539 708 OFFCURVE",
"525 716 OFFCURVE",
"516 716 CURVE SMOOTH",
"512 716 OFFCURVE",
"506 714 OFFCURVE",
"501 705 CURVE SMOOTH",
"76 15 LINE SMOOTH",
"72 10 OFFCURVE",
"71 5 OFFCURVE",
"71 1 CURVE SMOOTH",
"71 -8 OFFCURVE",
"85 -18 OFFCURVE",
"94 -18 CURVE SMOOTH"
);
}
);
width = 599;
}
);
leftKerningGroup = O;
rightKerningGroup = O;
unicode = 00D8;
},
{
glyphname = OE;
layers = (
{
anchors = (
{
name = bottom;
position = "{367, 0}";
},
{
name = top;
position = "{452, 700}";
}
);
background = {
paths = (
{
closed = 1;
nodes = (
"497 -8 OFFCURVE",
"574 181 OFFCURVE",
"574 390 CURVE SMOOTH",
"574 624 OFFCURVE",
"477 708 OFFCURVE",
"334 708 CURVE SMOOTH",
"120 708 OFFCURVE",
"43 519 OFFCURVE",
"43 311 CURVE SMOOTH",
"43 75 OFFCURVE",
"143 -8 OFFCURVE",
"284 -8 CURVE SMOOTH"
);
},
{
closed = 1;
nodes = (
"235 123 OFFCURVE",
"201 167 OFFCURVE",
"201 307 CURVE SMOOTH",
"201 418 OFFCURVE",
"222 576 OFFCURVE",
"329 576 CURVE SMOOTH",
"385 576 OFFCURVE",
"417 533 OFFCURVE",
"417 394 CURVE SMOOTH",
"417 284 OFFCURVE",
"397 123 OFFCURVE",
"291 123 CURVE SMOOTH"
);
}
);
};
layerId = "373C5ECE-2403-4F88-B498-8D3B1E7E9A2C";
paths = (
{
closed = 1;
nodes = (
"334 -8 OFFCURVE",
"379 30 OFFCURVE",
"414 82 CURVE",
"386 91 LINE",
"381 40 LINE SMOOTH",
"378 12 OFFCURVE",
"389 0 OFFCURVE",
"414 0 CURVE SMOOTH",
"726 0 LINE SMOOTH",
"746 0 OFFCURVE",
"757 16 OFFCURVE",
"760 50 CURVE SMOOTH",
"763 81 LINE SMOOTH",
"766 116 OFFCURVE",
"760 131 OFFCURVE",
"740 131 CURVE SMOOTH",
"547 131 LINE",
"564 293 LINE",
"736 293 LINE SMOOTH",
"756 293 OFFCURVE",
"768 309 OFFCURVE",
"771 343 CURVE SMOOTH",
"774 374 LINE SMOOTH",
"777 409 OFFCURVE",
"770 424 OFFCURVE",
"750 424 CURVE SMOOTH",
"578 424 LINE",
"593 569 LINE",
"785 569 LINE SMOOTH",
"805 569 OFFCURVE",
"817 585 OFFCURVE",
"820 619 CURVE SMOOTH",
"823 650 LINE SMOOTH",
"826 685 OFFCURVE",
"819 700 OFFCURVE",
"799 700 CURVE SMOOTH",
"488 700 LINE SMOOTH",
"462 700 OFFCURVE",
"450 688 OFFCURVE",
"447 660 CURVE SMOOTH",
"441 603 LINE",
"477 604 LINE",
"455 663 OFFCURVE",
"405 708 OFFCURVE",
"312 708 CURVE SMOOTH",
"121 708 OFFCURVE",
"43 519 OFFCURVE",
"43 312 CURVE SMOOTH",
"43 75 OFFCURVE",
"145 -8 OFFCURVE",
"258 -8 CURVE SMOOTH"
);
},
{
closed = 1;
nodes = (
"235 123 OFFCURVE",
"201 167 OFFCURVE",
"201 307 CURVE SMOOTH",
"201 418 OFFCURVE",
"222 576 OFFCURVE",
"329 576 CURVE SMOOTH",
"385 576 OFFCURVE",
"417 533 OFFCURVE",
"417 394 CURVE SMOOTH",
"417 284 OFFCURVE",
"397 123 OFFCURVE",
"291 123 CURVE SMOOTH"
);
}
);
width = 831;
},
{
anchors = (
{
name = bottom;
position = "{412, 0}";
},
{
name = top;
position = "{484, 700}";
}
);
background = {
paths = (
{
closed = 1;
nodes = (
"492 -6 OFFCURVE",
"564 201 OFFCURVE",
"564 396 CURVE SMOOTH",
"564 622 OFFCURVE",
"467 706 OFFCURVE",
"335 706 CURVE SMOOTH",
"134 706 OFFCURVE",
"55 512 OFFCURVE",
"55 311 CURVE SMOOTH",
"55 124 OFFCURVE",
"123 -6 OFFCURVE",
"286 -6 CURVE SMOOTH"
);
},
{
closed = 1;
nodes = (
"185 70 OFFCURVE",
"148 168 OFFCURVE",
"148 308 CURVE SMOOTH",
"148 458 OFFCURVE",
"191 630 OFFCURVE",
"332 630 CURVE SMOOTH",
"416 630 OFFCURVE",
"473 569 OFFCURVE",
"473 398 CURVE SMOOTH",
"473 260 OFFCURVE",
"436 70 OFFCURVE",
"290 70 CURVE SMOOTH"
);
}
);
};
layerId = "E8E506BC-BBFD-46D4-BF6A-32B0AB7FBD03";
paths = (
{
closed = 1;
nodes = (
"348 -6 OFFCURVE",
"410 30 OFFCURVE",
"456 93 CURVE",
"434 106 LINE",
"426 30 LINE SMOOTH",
"424 9 OFFCURVE",
"431 0 OFFCURVE",
"450 0 CURVE SMOOTH",
"738 0 LINE SMOOTH",
"752 0 OFFCURVE",
"758 9 OFFCURVE",
"760 30 CURVE SMOOTH",
"762 46 LINE SMOOTH",
"764 67 OFFCURVE",
"760 76 OFFCURVE",
"746 76 CURVE SMOOTH",
"521 76 LINE",
"547 320 LINE",
"749 320 LINE SMOOTH",
"762 320 OFFCURVE",
"769 329 OFFCURVE",
"771 350 CURVE SMOOTH",
"773 366 LINE SMOOTH",
"775 387 OFFCURVE",
"770 396 OFFCURVE",
"757 396 CURVE SMOOTH",
"555 396 LINE",
"579 624 LINE",
"804 624 LINE SMOOTH",
"817 624 OFFCURVE",
"824 633 OFFCURVE",
"826 654 CURVE SMOOTH",
"828 670 LINE SMOOTH",
"830 691 OFFCURVE",
"825 700 OFFCURVE",
"812 700 CURVE SMOOTH",
"524 700 LINE SMOOTH",
"505 700 OFFCURVE",
"496 691 OFFCURVE",
"494 670 CURVE SMOOTH",
"486 593 LINE",
"507 610 LINE",
"473 675 OFFCURVE",
"417 706 OFFCURVE",
"335 706 CURVE SMOOTH",
"135 706 OFFCURVE",
"55 512 OFFCURVE",
"55 311 CURVE SMOOTH",
"55 123 OFFCURVE",
"123 -6 OFFCURVE",
"286 -6 CURVE SMOOTH"
);
},
{
closed = 1;
nodes = (
"185 70 OFFCURVE",
"148 169 OFFCURVE",
"148 308 CURVE SMOOTH",
"148 458 OFFCURVE",
"190 630 OFFCURVE",
"332 630 CURVE SMOOTH",
"412 630 OFFCURVE",
"473 577 OFFCURVE",
"473 432 CURVE SMOOTH",
"473 244 OFFCURVE",
"426 70 OFFCURVE",
"290 70 CURVE SMOOTH"
);
}
);
width = 831;
}
);
leftKerningGroup = O;
rightKerningGroup = E;
unicode = 0152;
},
{
glyphname = P;
layers = (
{
anchors = (
{
name = bottom;
position = "{107, 0}";
},
{
name = top;
position = "{284, 700}";
}
);
layerId = "373C5ECE-2403-4F88-B498-8D3B1E7E9A2C";
paths = (
{
closed = 1;
nodes = (
"124 -2 LINE SMOOTH",
"166 -2 OFFCURVE",
"185 9 OFFCURVE",
"187 30 CURVE SMOOTH",
"212 262 LINE",
"267 262 LINE SMOOTH",
"405 262 OFFCURVE",
"496 349 OFFCURVE",
"496 500 CURVE SMOOTH",
"496 639 OFFCURVE",
"415 700 OFFCURVE",
"287 700 CURVE SMOOTH",
"144 700 LINE SMOOTH",
"116 700 OFFCURVE",
"103 688 OFFCURVE",
"100 660 CURVE SMOOTH",
"33 30 LINE SMOOTH",
"31 9 OFFCURVE",
"48 -2 OFFCURVE",
"90 -2 CURVE SMOOTH"
);
},
{
closed = 1;
nodes = (
"243 569 LINE",
"276 569 LINE SMOOTH",
"320 569 OFFCURVE",
"345 545 OFFCURVE",
"345 491 CURVE SMOOTH",
"345 439 OFFCURVE",
"322 391 OFFCURVE",
"277 391 CURVE SMOOTH",
"224 391 LINE"
);
}
);
width = 482;
},
{
anchors = (
{
name = bottom;
position = "{97, 0}";
},
{
name = top;
position = "{291, 700}";
}
);
layerId = "E8E506BC-BBFD-46D4-BF6A-32B0AB7FBD03";
paths = (
{
closed = 1;
nodes = (
"104 -2 LINE SMOOTH",
"130 -2 OFFCURVE",
"143 6 OFFCURVE",
"144 20 CURVE SMOOTH",
"174 298 LINE",
"284 298 LINE SMOOTH",
"405 298 OFFCURVE",
"481 385 OFFCURVE",
"481 521 CURVE SMOOTH",
"481 638 OFFCURVE",
"418 700 OFFCURVE",
"298 700 CURVE SMOOTH",
"153 700 LINE SMOOTH",
"135 700 OFFCURVE",
"125 692 OFFCURVE",
"123 670 CURVE SMOOTH",
"54 20 LINE SMOOTH",
"52 4 OFFCURVE",
"67 -2 OFFCURVE",
"90 -2 CURVE SMOOTH"
);
},
{
closed = 1;
nodes = (
"208 624 LINE",
"286 624 LINE SMOOTH",
"358 624 OFFCURVE",
"389 592 OFFCURVE",
"389 519 CURVE SMOOTH",
"389 424 OFFCURVE",
"354 374 OFFCURVE",
"287 374 CURVE SMOOTH",
"182 374 LINE"
);
}
);
width = 482;
},
{
anchors = (
{
name = bottom;
position = "{111, 0}";
},
{
name = top;
position = "{231, 700}";
}
);
associatedMasterId = "E8E506BC-BBFD-46D4-BF6A-32B0AB7FBD03";
layerId = "76F17502-367F-435E-B23E-ED9D928E777B";
name = "SemiCondensed Italic Condensed Regular";
paths = (
{
closed = 1;
nodes = (
"118 -2 LINE SMOOTH",
"145 -2 OFFCURVE",
"156 6 OFFCURVE",
"156 20 CURVE SMOOTH",
"156 298 LINE",
"266 298 LINE SMOOTH",
"308 298 OFFCURVE",
"440 321 OFFCURVE",
"440 504 CURVE SMOOTH",
"440 673 OFFCURVE",
"327 700 OFFCURVE",
"258 700 CURVE SMOOTH",
"93 700 LINE SMOOTH",
"74 700 OFFCURVE",
"66 691 OFFCURVE",
"66 670 CURVE SMOOTH",
"66 20 LINE SMOOTH",
"66 6 OFFCURVE",
"77 -2 OFFCURVE",
"104 -2 CURVE SMOOTH"
);
},
{
closed = 1;
nodes = (
"156 624 LINE",
"254 624 LINE SMOOTH",
"295 624 OFFCURVE",
"348 603 OFFCURVE",
"348 504 CURVE SMOOTH",
"348 395 OFFCURVE",
"293 374 OFFCURVE",
"261 374 CURVE SMOOTH",
"156 374 LINE"
);
}
);
width = 468;
},
{
anchors = (
{
name = bottom;
position = "{125, 0}";
},
{
name = top;
position = "{228, 700}";
}
);
associatedMasterId = "373C5ECE-2403-4F88-B498-8D3B1E7E9A2C";
layerId = "6662946B-F990-402F-A6FD-22D24AB84B33";
name = "Bold SemiCondensed Italic Condensed Bold";
paths = (
{
closed = 1;
nodes = (
"142 -2 LINE SMOOTH",
"184 -2 OFFCURVE",
"202 9 OFFCURVE",
"202 30 CURVE SMOOTH",
"202 262 LINE",
"271 262 LINE SMOOTH",
"316 262 OFFCURVE",
"461 288 OFFCURVE",
"461 481 CURVE SMOOTH",
"461 674 OFFCURVE",
"336 700 OFFCURVE",
"261 700 CURVE SMOOTH",
"88 700 LINE SMOOTH",
"60 700 OFFCURVE",
"48 688 OFFCURVE",
"48 660 CURVE SMOOTH",
"48 30 LINE SMOOTH",
"48 9 OFFCURVE",
"66 -2 OFFCURVE",
"108 -2 CURVE SMOOTH"
);
},
{
closed = 1;
nodes = (
"201 569 LINE",
"254 569 LINE SMOOTH",
"279 569 OFFCURVE",
"311 553 OFFCURVE",
"311 481 CURVE SMOOTH",
"311 407 OFFCURVE",
"279 391 OFFCURVE",
"254 391 CURVE SMOOTH",
"201 391 LINE"
);
}
);
width = 468;
},
{
associatedMasterId = "373C5ECE-2403-4F88-B498-8D3B1E7E9A2C";
background = {
paths = (
{
closed = 1;
nodes = (
"144 700 LINE SMOOTH",
"116 700 OFFCURVE",
"103 688 OFFCURVE",
"100 660 CURVE SMOOTH",
"34 30 LINE",
"34 9 OFFCURVE",
"48 -2 OFFCURVE",
"91 -2 CURVE SMOOTH",
"125 -2 LINE SMOOTH",
"167 -2 OFFCURVE",
"186 9 OFFCURVE",
"188 30 CURVE SMOOTH",
"212 262 LINE",
"325 262 LINE SMOOTH",
"393 262 OFFCURVE",
"578 291 OFFCURVE",
"578 517 CURVE SMOOTH",
"578 677 OFFCURVE",
"444 700 OFFCURVE",
"361 700 CURVE SMOOTH"
);
},
{
closed = 1;
nodes = (
"376 569 OFFCURVE",
"419 555 OFFCURVE",
"419 496 CURVE SMOOTH",
"419 411 OFFCURVE",
"362 394 OFFCURVE",
"322 394 CURVE SMOOTH",
"226 394 LINE",
"245 569 LINE",
"341 569 LINE SMOOTH"
);
}
);
};
layerId = "A35FA61A-C225-4323-8D83-28D6E34DD81F";
name = "Bold SemiCondensed Italic Jun 13 15, 20:40";
paths = (
{
closed = 1;
nodes = (
"144 700 LINE SMOOTH",
"116 700 OFFCURVE",
"103 688 OFFCURVE",
"100 660 CURVE SMOOTH",
"34 30 LINE",
"34 9 OFFCURVE",
"48 -2 OFFCURVE",
"91 -2 CURVE SMOOTH",
"125 -2 LINE SMOOTH",
"167 -2 OFFCURVE",
"186 9 OFFCURVE",
"188 30 CURVE SMOOTH",
"212 262 LINE",
"325 262 LINE SMOOTH",
"393 262 OFFCURVE",
"578 291 OFFCURVE",
"578 517 CURVE SMOOTH",
"578 677 OFFCURVE",
"444 700 OFFCURVE",
"361 700 CURVE SMOOTH"
);
},
{
closed = 1;
nodes = (
"376 569 OFFCURVE",
"419 555 OFFCURVE",
"419 496 CURVE SMOOTH",
"419 411 OFFCURVE",
"362 394 OFFCURVE",
"322 394 CURVE SMOOTH",
"226 394 LINE",
"245 569 LINE",
"341 569 LINE SMOOTH"
);
}
);
width = 468;
}
);
leftKerningGroup = H;
rightKerningGroup = P;
unicode = 0050;
},
{
glyphname = Thorn;
layers = (
{
background = {
anchors = (
{
name = bottom;
position = "{95, -110}";
},
{
name = top;
position = "{272, 590}";
}
);
paths = (
{
closed = 1;
nodes = (
"113 -111 LINE SMOOTH",
"155 -111 OFFCURVE",
"174 -100 OFFCURVE",
"176 -79 CURVE SMOOTH",
"201 153 LINE",
"270 153 LINE SMOOTH",
"304 153 OFFCURVE",
"485 173 OFFCURVE",
"485 391 CURVE SMOOTH",
"485 530 OFFCURVE",
"404 591 OFFCURVE",
"276 591 CURVE SMOOTH",
"133 591 LINE SMOOTH",
"105 591 OFFCURVE",
"92 579 OFFCURVE",
"89 551 CURVE SMOOTH",
"22 -79 LINE SMOOTH",
"20 -100 OFFCURVE",
"37 -111 OFFCURVE",
"79 -111 CURVE SMOOTH"
);
},
{
closed = 1;
nodes = (
"232 460 LINE",
"265 460 LINE SMOOTH",
"309 460 OFFCURVE",
"334 436 OFFCURVE",
"334 382 CURVE SMOOTH",
"334 330 OFFCURVE",
"311 282 OFFCURVE",
"266 282 CURVE SMOOTH",
"213 282 LINE"
);
}
);
};
layerId = "373C5ECE-2403-4F88-B498-8D3B1E7E9A2C";
paths = (
{
closed = 1;
nodes = (
"125 -2 LINE SMOOTH",
"163 -2 OFFCURVE",
"185 9 OFFCURVE",
"187 30 CURVE SMOOTH",
"200 153 LINE",
"255 153 LINE SMOOTH",
"393 153 OFFCURVE",
"485 240 OFFCURVE",
"485 391 CURVE SMOOTH",
"485 530 OFFCURVE",
"404 591 OFFCURVE",
"276 591 CURVE SMOOTH",
"246 591 LINE",
"254 670 LINE SMOOTH",
"256 691 OFFCURVE",
"239 702 OFFCURVE",
"199 702 CURVE SMOOTH",
"159 702 LINE SMOOTH",
"118 702 OFFCURVE",
"100 691 OFFCURVE",
"98 670 CURVE SMOOTH",
"31 30 LINE SMOOTH",
"29 9 OFFCURVE",
"44 -2 OFFCURVE",
"85 -2 CURVE SMOOTH"
);
},
{
closed = 1;
nodes = (
"232 460 LINE",
"265 460 LINE SMOOTH",
"309 460 OFFCURVE",
"334 436 OFFCURVE",
"334 382 CURVE SMOOTH",
"334 330 OFFCURVE",
"311 282 OFFCURVE",
"266 282 CURVE SMOOTH",
"213 282 LINE"
);
}
);
width = 482;
},
{
background = {
paths = (
{
closed = 1;
nodes = (
"84 -123 LINE SMOOTH",
"110 -123 OFFCURVE",
"122 -115 OFFCURVE",
"124 -101 CURVE SMOOTH",
"154 177 LINE",
"264 177 LINE SMOOTH",
"385 177 OFFCURVE",
"461 264 OFFCURVE",
"461 400 CURVE SMOOTH",
"461 517 OFFCURVE",
"398 579 OFFCURVE",
"278 579 CURVE SMOOTH",
"133 579 LINE SMOOTH",
"115 579 OFFCURVE",
"105 571 OFFCURVE",
"103 549 CURVE SMOOTH",
"34 -101 LINE SMOOTH",
"32 -117 OFFCURVE",
"47 -123 OFFCURVE",
"70 -123 CURVE SMOOTH"
);
},
{
closed = 1;
nodes = (
"188 503 LINE",
"266 503 LINE SMOOTH",
"338 503 OFFCURVE",
"369 471 OFFCURVE",
"369 398 CURVE SMOOTH",
"369 303 OFFCURVE",
"334 253 OFFCURVE",
"267 253 CURVE SMOOTH",
"162 253 LINE"
);
}
);
};
layerId = "E8E506BC-BBFD-46D4-BF6A-32B0AB7FBD03";
paths = (
{
closed = 1;
nodes = (
"97 -2 LINE SMOOTH",
"123 -2 OFFCURVE",
"137 6 OFFCURVE",
"138 20 CURVE SMOOTH",
"154 177 LINE",
"264 177 LINE SMOOTH",
"385 177 OFFCURVE",
"461 264 OFFCURVE",
"461 400 CURVE SMOOTH",
"461 517 OFFCURVE",
"398 579 OFFCURVE",
"278 579 CURVE SMOOTH",
"196 579 LINE",
"207 680 LINE SMOOTH",
"209 696 OFFCURVE",
"194 702 OFFCURVE",
"171 702 CURVE SMOOTH",
"157 702 LINE SMOOTH",
"131 702 OFFCURVE",
"118 694 OFFCURVE",
"117 680 CURVE SMOOTH",
"48 20 LINE SMOOTH",
"46 3 OFFCURVE",
"61 -2 OFFCURVE",
"83 -2 CURVE SMOOTH"
);
},
{
closed = 1;
nodes = (
"188 503 LINE",
"266 503 LINE SMOOTH",
"338 503 OFFCURVE",
"369 471 OFFCURVE",
"369 398 CURVE SMOOTH",
"369 303 OFFCURVE",
"334 253 OFFCURVE",
"267 253 CURVE SMOOTH",
"162 253 LINE"
);
}
);
width = 482;
}
);
leftKerningGroup = H;
rightKerningGroup = Thorn;
unicode = 00DE;
},
{
glyphname = Q;
layers = (
{
background = {
paths = (
{
closed = 1;
nodes = (
"497 -8 OFFCURVE",
"574 181 OFFCURVE",
"574 390 CURVE SMOOTH",
"574 624 OFFCURVE",
"477 708 OFFCURVE",
"334 708 CURVE SMOOTH",
"120 708 OFFCURVE",
"43 519 OFFCURVE",
"43 311 CURVE SMOOTH",
"43 75 OFFCURVE",
"143 -8 OFFCURVE",
"284 -8 CURVE SMOOTH"
);
},
{
closed = 1;
nodes = (
"235 123 OFFCURVE",
"201 167 OFFCURVE",
"201 307 CURVE SMOOTH",
"201 418 OFFCURVE",
"222 576 OFFCURVE",
"329 576 CURVE SMOOTH",
"385 576 OFFCURVE",
"417 533 OFFCURVE",
"417 394 CURVE SMOOTH",
"417 284 OFFCURVE",
"397 123 OFFCURVE",
"291 123 CURVE SMOOTH"
);
}
);
};
layerId = "373C5ECE-2403-4F88-B498-8D3B1E7E9A2C";
paths = (
{
closed = 1;
nodes = (
"504 -159 OFFCURVE",
"547 -80 OFFCURVE",
"549 -65 CURVE SMOOTH",
"550 -58 OFFCURVE",
"548 -51 OFFCURVE",
"539 -47 CURVE SMOOTH",
"387 22 LINE",
"388 26 LINE",
"510 68 OFFCURVE",
"574 194 OFFCURVE",
"574 390 CURVE SMOOTH",
"574 624 OFFCURVE",
"477 708 OFFCURVE",
"334 708 CURVE SMOOTH",
"120 708 OFFCURVE",
"43 519 OFFCURVE",
"43 311 CURVE SMOOTH",
"43 145 OFFCURVE",
"91 60 OFFCURVE",
"166 15 CURVE SMOOTH",
"255 -38 OFFCURVE",
"458 -159 OFFCURVE",
"472 -159 CURVE SMOOTH"
);
},
{
closed = 1;
nodes = (
"235 123 OFFCURVE",
"201 167 OFFCURVE",
"201 307 CURVE SMOOTH",
"201 418 OFFCURVE",
"222 576 OFFCURVE",
"329 576 CURVE SMOOTH",
"383 576 OFFCURVE",
"417 533 OFFCURVE",
"417 394 CURVE SMOOTH",
"417 284 OFFCURVE",
"397 123 OFFCURVE",
"291 123 CURVE SMOOTH"
);
}
);
width = 599;
},
{
background = {
paths = (
{
closed = 1;
nodes = (
"492 -6 OFFCURVE",
"564 201 OFFCURVE",
"564 396 CURVE SMOOTH",
"564 622 OFFCURVE",
"467 706 OFFCURVE",
"335 706 CURVE SMOOTH",
"134 706 OFFCURVE",
"55 512 OFFCURVE",
"55 311 CURVE SMOOTH",
"55 124 OFFCURVE",
"123 -6 OFFCURVE",
"286 -6 CURVE SMOOTH"
);
},
{
closed = 1;
nodes = (
"185 70 OFFCURVE",
"148 168 OFFCURVE",
"148 308 CURVE SMOOTH",
"148 458 OFFCURVE",
"191 630 OFFCURVE",
"332 630 CURVE SMOOTH",
"416 630 OFFCURVE",
"473 569 OFFCURVE",
"473 398 CURVE SMOOTH",
"473 260 OFFCURVE",
"436 70 OFFCURVE",
"290 70 CURVE SMOOTH"
);
}
);
};
layerId = "E8E506BC-BBFD-46D4-BF6A-32B0AB7FBD03";
paths = (
{
closed = 1;
nodes = (
"519 -169 OFFCURVE",
"549 -114 OFFCURVE",
"552 -102 CURVE SMOOTH",
"553 -95 OFFCURVE",
"549 -90 OFFCURVE",
"542 -86 CURVE SMOOTH",
"348 -2 LINE",
"348 1 LINE",
"480 32 OFFCURVE",
"564 186 OFFCURVE",
"564 396 CURVE SMOOTH",
"564 622 OFFCURVE",
"467 706 OFFCURVE",
"335 706 CURVE SMOOTH",
"134 706 OFFCURVE",
"55 512 OFFCURVE",
"55 311 CURVE SMOOTH",
"55 124 OFFCURVE",
"114 62 OFFCURVE",
"205 0 CURVE SMOOTH",
"243 -26 OFFCURVE",
"483 -169 OFFCURVE",
"496 -169 CURVE SMOOTH"
);
},
{
closed = 1;
nodes = (
"185 70 OFFCURVE",
"148 168 OFFCURVE",
"148 308 CURVE SMOOTH",
"148 458 OFFCURVE",
"191 630 OFFCURVE",
"332 630 CURVE SMOOTH",
"416 630 OFFCURVE",
"473 569 OFFCURVE",
"473 398 CURVE SMOOTH",
"473 260 OFFCURVE",
"436 70 OFFCURVE",
"290 70 CURVE SMOOTH"
);
}
);
width = 599;
},
{
associatedMasterId = "E8E506BC-BBFD-46D4-BF6A-32B0AB7FBD03";
layerId = "76F17502-367F-435E-B23E-ED9D928E777B";
name = "SemiCondensed Italic Condensed Regular";
paths = (
{
closed = 1;
nodes = (
"558 -169 OFFCURVE",
"582 -114 OFFCURVE",
"584 -102 CURVE SMOOTH",
"584 -95 OFFCURVE",
"580 -90 OFFCURVE",
"572 -86 CURVE SMOOTH",
"378 3 LINE",
"378 6 LINE",
"485 40 OFFCURVE",
"543 153 OFFCURVE",
"543 350 CURVE SMOOTH",
"543 592 OFFCURVE",
"454 706 OFFCURVE",
"292 706 CURVE SMOOTH",
"131 706 OFFCURVE",
"42 593 OFFCURVE",
"42 350 CURVE SMOOTH",
"42 170 OFFCURVE",
"91 61 OFFCURVE",
"186 13 CURVE SMOOTH",
"250 -25 OFFCURVE",
"521 -169 OFFCURVE",
"535 -169 CURVE SMOOTH"
);
},
{
closed = 1;
nodes = (
"191 69 OFFCURVE",
"135 158 OFFCURVE",
"135 350 CURVE SMOOTH",
"135 542 OFFCURVE",
"191 630 OFFCURVE",
"293 630 CURVE SMOOTH",
"394 630 OFFCURVE",
"451 542 OFFCURVE",
"451 350 CURVE SMOOTH",
"451 159 OFFCURVE",
"394 69 OFFCURVE",
"293 69 CURVE SMOOTH"
);
}
);
width = 585;
},
{
associatedMasterId = "373C5ECE-2403-4F88-B498-8D3B1E7E9A2C";
layerId = "6662946B-F990-402F-A6FD-22D24AB84B33";
name = "Bold SemiCondensed Italic Condensed Bold";
paths = (
{
closed = 1;
nodes = (
"542 -159 OFFCURVE",
"575 -80 OFFCURVE",
"577 -65 CURVE SMOOTH",
"577 -58 OFFCURVE",
"574 -51 OFFCURVE",
"565 -47 CURVE SMOOTH",
"426 22 LINE",
"426 26 LINE",
"509 74 OFFCURVE",
"554 178 OFFCURVE",
"554 350 CURVE SMOOTH",
"554 600 OFFCURVE",
"460 708 OFFCURVE",
"293 708 CURVE SMOOTH",
"127 708 OFFCURVE",
"31 601 OFFCURVE",
"31 350 CURVE SMOOTH",
"31 167 OFFCURVE",
"81 63 OFFCURVE",
"176 16 CURVE SMOOTH",
"464 -123 OFFCURVE",
"496 -159 OFFCURVE",
"510 -159 CURVE SMOOTH"
);
},
{
closed = 1;
nodes = (
"225 121 OFFCURVE",
"190 170 OFFCURVE",
"190 350 CURVE SMOOTH",
"190 528 OFFCURVE",
"225 576 OFFCURVE",
"294 576 CURVE SMOOTH",
"362 576 OFFCURVE",
"396 528 OFFCURVE",
"396 350 CURVE SMOOTH",
"396 170 OFFCURVE",
"362 121 OFFCURVE",
"294 121 CURVE SMOOTH"
);
}
);
width = 585;
},
{
associatedMasterId = "373C5ECE-2403-4F88-B498-8D3B1E7E9A2C";
background = {
paths = (
{
closed = 1;
nodes = (
"143 706 OFFCURVE",
"41 499 OFFCURVE",
"41 286 CURVE",
"42 149 OFFCURVE",
"93 57 OFFCURVE",
"192 16 CURVE SMOOTH",
"396 -68 OFFCURVE",
"615 -162 OFFCURVE",
"625 -162 CURVE SMOOTH",
"636 -162 OFFCURVE",
"654 -155 OFFCURVE",
"654 -54 CURVE SMOOTH",
"654 -40 OFFCURVE",
"650 -32 OFFCURVE",
"637 -27 CURVE SMOOTH",
"495 27 LINE",
"496 31 LINE",
"614 89 OFFCURVE",
"689 223 OFFCURVE",
"689 414 CURVE SMOOTH",
"689 604 OFFCURVE",
"590 706 OFFCURVE",
"404 706 CURVE SMOOTH"
);
},
{
closed = 1;
nodes = (
"483 576 OFFCURVE",
"531 516 OFFCURVE",
"531 403 CURVE SMOOTH",
"531 219 OFFCURVE",
"457 119 OFFCURVE",
"342 119 CURVE SMOOTH",
"248 119 OFFCURVE",
"200 181 OFFCURVE",
"200 297 CURVE SMOOTH",
"200 477 OFFCURVE",
"274 576 OFFCURVE",
"390 576 CURVE SMOOTH"
);
}
);
};
layerId = "C5A0C470-047E-421C-89F4-BA12EAAC04F0";
name = "Bold SemiCondensed Italic Jun 13 15, 20:40";
paths = (
{
closed = 1;
nodes = (
"143 706 OFFCURVE",
"41 499 OFFCURVE",
"41 286 CURVE",
"42 149 OFFCURVE",
"93 57 OFFCURVE",
"192 16 CURVE SMOOTH",
"396 -68 OFFCURVE",
"615 -162 OFFCURVE",
"625 -162 CURVE SMOOTH",
"636 -162 OFFCURVE",
"654 -155 OFFCURVE",
"654 -54 CURVE SMOOTH",
"654 -40 OFFCURVE",
"650 -32 OFFCURVE",
"637 -27 CURVE SMOOTH",
"495 27 LINE",
"496 31 LINE",
"614 89 OFFCURVE",
"689 223 OFFCURVE",
"689 414 CURVE SMOOTH",
"689 604 OFFCURVE",
"590 706 OFFCURVE",
"404 706 CURVE SMOOTH"
);
},
{
closed = 1;
nodes = (
"483 576 OFFCURVE",
"531 516 OFFCURVE",
"531 403 CURVE SMOOTH",
"531 219 OFFCURVE",
"457 119 OFFCURVE",
"342 119 CURVE SMOOTH",
"248 119 OFFCURVE",
"200 181 OFFCURVE",
"200 297 CURVE SMOOTH",
"200 477 OFFCURVE",
"274 576 OFFCURVE",
"390 576 CURVE SMOOTH"
);
}
);
width = 585;
}
);
leftKerningGroup = O;
rightKerningGroup = O;
unicode = 0051;
},
{
glyphname = R;
layers = (
{
anchors = (
{
name = bottom;
position = "{253, 0}";
},
{
name = top;
position = "{288, 700}";
}
);
background = {
paths = (
{
closed = 1;
nodes = (
"126 -2 LINE SMOOTH",
"168 -2 OFFCURVE",
"187 9 OFFCURVE",
"189 30 CURVE SMOOTH",
"216 272 LINE",
"271 272 LINE SMOOTH",
"408 272 OFFCURVE",
"498 355 OFFCURVE",
"498 500 CURVE SMOOTH",
"498 639 OFFCURVE",
"417 700 OFFCURVE",
"289 700 CURVE SMOOTH",
"146 700 LINE SMOOTH",
"118 700 OFFCURVE",
"105 688 OFFCURVE",
"102 660 CURVE SMOOTH",
"35 30 LINE SMOOTH",
"33 9 OFFCURVE",
"50 -2 OFFCURVE",
"92 -2 CURVE SMOOTH"
);
},
{
closed = 1;
nodes = (
"245 569 LINE",
"278 569 LINE SMOOTH",
"322 569 OFFCURVE",
"347 545 OFFCURVE",
"347 491 CURVE SMOOTH",
"347 444 OFFCURVE",
"325 401 OFFCURVE",
"281 401 CURVE SMOOTH",
"228 401 LINE"
);
}
);
};
layerId = "373C5ECE-2403-4F88-B498-8D3B1E7E9A2C";
paths = (
{
closed = 1;
nodes = (
"126 -2 LINE SMOOTH",
"168 -2 OFFCURVE",
"187 9 OFFCURVE",
"189 30 CURVE SMOOTH",
"213 256 LINE",
"247 256 LINE SMOOTH",
"272 256 OFFCURVE",
"287 242 OFFCURVE",
"290 216 CURVE SMOOTH",
"323 26 LINE SMOOTH",
"326 6 OFFCURVE",
"348 -1 OFFCURVE",
"380 -1 CURVE SMOOTH",
"415 -1 LINE SMOOTH",
"458 -1 OFFCURVE",
"480 9 OFFCURVE",
"480 26 CURVE SMOOTH",
"480 29 OFFCURVE",
"479 34 OFFCURVE",
"478 38 CURVE SMOOTH",
"443 210 LINE SMOOTH",
"429 277 OFFCURVE",
"411 304 OFFCURVE",
"378 320 CURVE",
"378 324 LINE",
"452 349 OFFCURVE",
"498 416 OFFCURVE",
"498 500 CURVE SMOOTH",
"498 638 OFFCURVE",
"417 700 OFFCURVE",
"269 700 CURVE SMOOTH",
"146 700 LINE SMOOTH",
"118 700 OFFCURVE",
"105 688 OFFCURVE",
"102 660 CURVE SMOOTH",
"35 30 LINE SMOOTH",
"33 9 OFFCURVE",
"50 -2 OFFCURVE",
"92 -2 CURVE SMOOTH"
);
},
{
closed = 1;
nodes = (
"246 569 LINE",
"278 569 LINE SMOOTH",
"322 569 OFFCURVE",
"347 548 OFFCURVE",
"347 491 CURVE SMOOTH",
"347 447 OFFCURVE",
"325 400 OFFCURVE",
"281 401 CURVE SMOOTH",
"229 402 LINE"
);
}
);
width = 513;
},
{
anchors = (
{
name = bottom;
position = "{255, 0}";
},
{
name = top;
position = "{299, 700}";
}
);
background = {
paths = (
{
closed = 1;
nodes = (
"104 -2 LINE SMOOTH",
"130 -2 OFFCURVE",
"143 6 OFFCURVE",
"144 20 CURVE SMOOTH",
"174 308 LINE",
"284 308 LINE SMOOTH",
"405 308 OFFCURVE",
"481 391 OFFCURVE",
"481 521 CURVE SMOOTH",
"481 638 OFFCURVE",
"418 700 OFFCURVE",
"298 700 CURVE SMOOTH",
"153 700 LINE SMOOTH",
"135 700 OFFCURVE",
"125 692 OFFCURVE",
"123 670 CURVE SMOOTH",
"54 20 LINE SMOOTH",
"52 4 OFFCURVE",
"67 -2 OFFCURVE",
"90 -2 CURVE SMOOTH"
);
},
{
closed = 1;
nodes = (
"208 624 LINE",
"286 624 LINE SMOOTH",
"358 624 OFFCURVE",
"389 592 OFFCURVE",
"389 519 CURVE SMOOTH",
"389 431 OFFCURVE",
"354 384 OFFCURVE",
"287 384 CURVE SMOOTH",
"182 384 LINE"
);
}
);
};
layerId = "E8E506BC-BBFD-46D4-BF6A-32B0AB7FBD03";
paths = (
{
closed = 1;
nodes = (
"105 -2 LINE SMOOTH",
"132 -2 OFFCURVE",
"143 6 OFFCURVE",
"145 20 CURVE SMOOTH",
"176 308 LINE",
"259 308 LINE SMOOTH",
"301 308 OFFCURVE",
"318 293 OFFCURVE",
"327 250 CURVE SMOOTH",
"375 14 LINE SMOOTH",
"377 4 OFFCURVE",
"391 -2 OFFCURVE",
"410 -2 CURVE SMOOTH",
"427 -2 LINE SMOOTH",
"454 -2 OFFCURVE",
"468 4 OFFCURVE",
"468 14 CURVE SMOOTH",
"468 17 OFFCURVE",
"467 22 OFFCURVE",
"466 28 CURVE SMOOTH",
"424 225 LINE SMOOTH",
"410 285 OFFCURVE",
"396 327 OFFCURVE",
"368 340 CURVE",
"369 344 LINE",
"438 364 OFFCURVE",
"481 433 OFFCURVE",
"481 521 CURVE SMOOTH",
"481 638 OFFCURVE",
"418 700 OFFCURVE",
"298 700 CURVE SMOOTH",
"154 700 LINE SMOOTH",
"135 700 OFFCURVE",
"126 691 OFFCURVE",
"124 670 CURVE SMOOTH",
"55 20 LINE SMOOTH",
"54 6 OFFCURVE",
"64 -2 OFFCURVE",
"91 -2 CURVE SMOOTH"
);
},
{
closed = 1;
nodes = (
"208 624 LINE",
"286 624 LINE SMOOTH",
"358 624 OFFCURVE",
"389 592 OFFCURVE",
"389 519 CURVE SMOOTH",
"389 431 OFFCURVE",
"354 384 OFFCURVE",
"284 384 CURVE SMOOTH",
"183 384 LINE"
);
}
);
width = 513;
},
{
anchors = (
{
name = bottom;
position = "{247, 0}";
},
{
name = top;
position = "{247, 700}";
}
);
associatedMasterId = "E8E506BC-BBFD-46D4-BF6A-32B0AB7FBD03";
layerId = "76F17502-367F-435E-B23E-ED9D928E777B";
name = "SemiCondensed Italic Condensed Regular";
paths = (
{
closed = 1;
nodes = (
"122 -2 LINE SMOOTH",
"149 -2 OFFCURVE",
"160 6 OFFCURVE",
"160 20 CURVE SMOOTH",
"160 308 LINE",
"223 308 LINE SMOOTH",
"281 308 OFFCURVE",
"306 287 OFFCURVE",
"330 210 CURVE SMOOTH",
"390 14 LINE SMOOTH",
"393 4 OFFCURVE",
"408 -2 OFFCURVE",
"427 -2 CURVE SMOOTH",
"444 -2 LINE SMOOTH",
"471 -2 OFFCURVE",
"483 4 OFFCURVE",
"483 14 CURVE SMOOTH",
"483 17 OFFCURVE",
"482 22 OFFCURVE",
"480 28 CURVE SMOOTH",
"417 225 LINE SMOOTH",
"395 290 OFFCURVE",
"377 336 OFFCURVE",
"348 350 CURVE",
"348 354 LINE",
"403 382 OFFCURVE",
"440 437 OFFCURVE",
"440 523 CURVE SMOOTH",
"440 649 OFFCURVE",
"375 700 OFFCURVE",
"245 700 CURVE SMOOTH",
"97 700 LINE SMOOTH",
"78 700 OFFCURVE",
"70 691 OFFCURVE",
"70 670 CURVE SMOOTH",
"70 20 LINE SMOOTH",
"70 6 OFFCURVE",
"81 -2 OFFCURVE",
"108 -2 CURVE SMOOTH"
);
},
{
closed = 1;
nodes = (
"159 624 LINE",
"254 624 LINE SMOOTH",
"310 624 OFFCURVE",
"347 588 OFFCURVE",
"347 507 CURVE SMOOTH",
"347 441 OFFCURVE",
"308 384 OFFCURVE",
"260 384 CURVE SMOOTH",
"159 384 LINE"
);
}
);
width = 499;
},
{
anchors = (
{
name = bottom;
position = "{255, 0}";
},
{
name = top;
position = "{244, 700}";
}
);
associatedMasterId = "373C5ECE-2403-4F88-B498-8D3B1E7E9A2C";
layerId = "6662946B-F990-402F-A6FD-22D24AB84B33";
name = "Bold SemiCondensed Italic Condensed Bold";
paths = (
{
closed = 1;
nodes = (
"141 -2 LINE SMOOTH",
"183 -2 OFFCURVE",
"201 9 OFFCURVE",
"201 30 CURVE SMOOTH",
"201 256 LINE",
"225 256 LINE SMOOTH",
"260 256 OFFCURVE",
"271 244 OFFCURVE",
"282 216 CURVE",
"335 26 LINE SMOOTH",
"340 6 OFFCURVE",
"363 -1 OFFCURVE",
"395 -1 CURVE SMOOTH",
"430 -1 LINE SMOOTH",
"473 -1 OFFCURVE",
"492 9 OFFCURVE",
"492 26 CURVE SMOOTH",
"492 29 OFFCURVE",
"490 34 OFFCURVE",
"489 38 CURVE SMOOTH",
"430 230 LINE SMOOTH",
"418 271 OFFCURVE",
"393 313 OFFCURVE",
"363 330 CURVE",
"363 334 LINE",
"418 364 OFFCURVE",
"458 414 OFFCURVE",
"458 503 CURVE SMOOTH",
"458 654 OFFCURVE",
"365 700 OFFCURVE",
"254 700 CURVE SMOOTH",
"87 700 LINE SMOOTH",
"59 700 OFFCURVE",
"47 688 OFFCURVE",
"47 660 CURVE SMOOTH",
"47 30 LINE SMOOTH",
"47 9 OFFCURVE",
"65 -2 OFFCURVE",
"107 -2 CURVE SMOOTH"
);
},
{
closed = 1;
nodes = (
"201 569 LINE",
"254 569 LINE SMOOTH",
"285 569 OFFCURVE",
"310 548 OFFCURVE",
"310 488 CURVE SMOOTH",
"310 428 OFFCURVE",
"283 402 OFFCURVE",
"257 402 CURVE SMOOTH",
"201 402 LINE"
);
}
);
width = 499;
},
{
anchors = (
{
name = bottom;
position = "{276, 0}";
},
{
name = top;
position = "{332, 700}";
}
);
associatedMasterId = "373C5ECE-2403-4F88-B498-8D3B1E7E9A2C";
background = {
anchors = (
{
name = bottom;
position = "{276, 0}";
},
{
name = top;
position = "{332, 700}";
}
);
paths = (
{
closed = 1;
nodes = (
"145 700 LINE SMOOTH",
"117 700 OFFCURVE",
"104 688 OFFCURVE",
"101 660 CURVE SMOOTH",
"35 30 LINE",
"35 9 OFFCURVE",
"49 -2 OFFCURVE",
"92 -2 CURVE SMOOTH",
"126 -2 LINE SMOOTH",
"168 -2 OFFCURVE",
"187 9 OFFCURVE",
"189 30 CURVE SMOOTH",
"215 274 LINE",
"254 274 LINE SMOOTH",
"319 274 OFFCURVE",
"333 254 OFFCURVE",
"348 214 CURVE",
"407 19 LINE SMOOTH",
"412 3 OFFCURVE",
"433 -2 OFFCURVE",
"463 -2 CURVE SMOOTH",
"504 -2 LINE SMOOTH",
"545 -2 OFFCURVE",
"564 6 OFFCURVE",
"566 18 CURVE",
"566 23 OFFCURVE",
"565 29 OFFCURVE",
"563 37 CURVE SMOOTH",
"498 257 LINE SMOOTH",
"485 300 OFFCURVE",
"459 339 OFFCURVE",
"436 349 CURVE",
"436 353 LINE",
"517 382 OFFCURVE",
"571 447 OFFCURVE",
"571 537 CURVE SMOOTH",
"571 641 OFFCURVE",
"500 700 OFFCURVE",
"340 700 CURVE SMOOTH"
);
},
{
closed = 1;
nodes = (
"383 569 OFFCURVE",
"410 543 OFFCURVE",
"410 501 CURVE SMOOTH",
"410 449 OFFCURVE",
"367 407 OFFCURVE",
"324 407 CURVE SMOOTH",
"229 407 LINE",
"246 569 LINE",
"334 569 LINE SMOOTH"
);
}
);
};
layerId = "79AC69B1-4FB3-4D24-A097-8549F8A4E9B2";
name = "Bold SemiCondensed Italic Jun 13 15, 20:40";
paths = (
{
closed = 1;
nodes = (
"145 700 LINE SMOOTH",
"117 700 OFFCURVE",
"104 688 OFFCURVE",
"101 660 CURVE SMOOTH",
"35 30 LINE",
"35 9 OFFCURVE",
"49 -2 OFFCURVE",
"92 -2 CURVE SMOOTH",
"126 -2 LINE SMOOTH",
"168 -2 OFFCURVE",
"187 9 OFFCURVE",
"189 30 CURVE SMOOTH",
"215 274 LINE",
"254 274 LINE SMOOTH",
"319 274 OFFCURVE",
"333 254 OFFCURVE",
"348 214 CURVE",
"407 19 LINE SMOOTH",
"412 3 OFFCURVE",
"433 -2 OFFCURVE",
"463 -2 CURVE SMOOTH",
"504 -2 LINE SMOOTH",
"545 -2 OFFCURVE",
"564 6 OFFCURVE",
"566 18 CURVE",
"566 23 OFFCURVE",
"565 29 OFFCURVE",
"563 37 CURVE SMOOTH",
"498 257 LINE SMOOTH",
"485 300 OFFCURVE",
"459 339 OFFCURVE",
"436 349 CURVE",
"436 353 LINE",
"517 382 OFFCURVE",
"571 447 OFFCURVE",
"571 537 CURVE SMOOTH",
"571 641 OFFCURVE",
"500 700 OFFCURVE",
"340 700 CURVE SMOOTH"
);
},
{
closed = 1;
nodes = (
"383 569 OFFCURVE",
"410 543 OFFCURVE",
"410 501 CURVE SMOOTH",
"410 449 OFFCURVE",
"367 407 OFFCURVE",
"324 407 CURVE SMOOTH",
"229 407 LINE",
"246 569 LINE",
"334 569 LINE SMOOTH"
);
}
);
width = 499;
},
{
anchors = (
{
name = bottom;
position = "{255, 0}";
},
{
name = top;
position = "{299, 700}";
}
);
associatedMasterId = "E8E506BC-BBFD-46D4-BF6A-32B0AB7FBD03";
layerId = "8B0FFE6A-7A01-4F3B-A42A-798FC866AB2F";
name = "Mar 18 18, 00:28";
paths = (
{
closed = 1;
nodes = (
"105 -2 LINE SMOOTH",
"132 -2 OFFCURVE",
"143 6 OFFCURVE",
"145 20 CURVE SMOOTH",
"176 308 LINE",
"239 308 LINE SMOOTH",
"297 308 OFFCURVE",
"319 287 OFFCURVE",
"335 210 CURVE SMOOTH",
"375 14 LINE SMOOTH",
"377 4 OFFCURVE",
"391 -2 OFFCURVE",
"410 -2 CURVE SMOOTH",
"427 -2 LINE SMOOTH",
"454 -2 OFFCURVE",
"468 4 OFFCURVE",
"468 14 CURVE SMOOTH",
"468 17 OFFCURVE",
"467 22 OFFCURVE",
"466 28 CURVE SMOOTH",
"424 225 LINE SMOOTH",
"410 290 OFFCURVE",
"396 336 OFFCURVE",
"368 350 CURVE",
"369 354 LINE",
"426 382 OFFCURVE",
"469 437 OFFCURVE",
"478 523 CURVE SMOOTH",
"491 649 OFFCURVE",
"432 700 OFFCURVE",
"302 700 CURVE SMOOTH",
"154 700 LINE SMOOTH",
"135 700 OFFCURVE",
"126 691 OFFCURVE",
"124 670 CURVE SMOOTH",
"55 20 LINE SMOOTH",
"54 6 OFFCURVE",
"64 -2 OFFCURVE",
"91 -2 CURVE SMOOTH"
);
},
{
closed = 1;
nodes = (
"208 624 LINE",
"303 624 LINE SMOOTH",
"359 624 OFFCURVE",
"393 588 OFFCURVE",
"384 507 CURVE SMOOTH",
"377 441 OFFCURVE",
"332 384 OFFCURVE",
"284 384 CURVE SMOOTH",
"183 384 LINE"
);
}
);
width = 513;
}
);
leftKerningGroup = H;
rightKerningGroup = R;
unicode = 0052;
},
{
glyphname = S;
layers = (
{
anchors = (
{
name = bottom;
position = "{201, 0}";
},
{
name = top;
position = "{264, 700}";
}
);
background = {
paths = (
{
closed = 1;
nodes = (
"319 -8 OFFCURVE",
"412 78 OFFCURVE",
"412 220 CURVE SMOOTH",
"412 307 OFFCURVE",
"370 356 OFFCURVE",
"297 403 CURVE SMOOTH",
"251 433 OFFCURVE",
"208 454 OFFCURVE",
"208 508 CURVE SMOOTH",
"208 526 OFFCURVE",
"213 576 OFFCURVE",
"285 576 CURVE SMOOTH",
"299 576 OFFCURVE",
"318 573 OFFCURVE",
"348 562 CURVE SMOOTH",
"357 559 OFFCURVE",
"369 555 OFFCURVE",
"378 555 CURVE SMOOTH",
"406 555 OFFCURVE",
"423 615 OFFCURVE",
"423 645 CURVE SMOOTH",
"423 659 OFFCURVE",
"414 671 OFFCURVE",
"399 680 CURVE SMOOTH",
"368 699 OFFCURVE",
"316 708 OFFCURVE",
"276 708 CURVE SMOOTH",
"151 708 OFFCURVE",
"52 624 OFFCURVE",
"52 492 CURVE SMOOTH",
"52 402 OFFCURVE",
"91 353 OFFCURVE",
"160 309 CURVE SMOOTH",
"209 278 OFFCURVE",
"256 256 OFFCURVE",
"256 205 CURVE SMOOTH",
"256 142 OFFCURVE",
"213 123 OFFCURVE",
"175 123 CURVE SMOOTH",
"145 123 OFFCURVE",
"121 132 OFFCURVE",
"102 141 CURVE SMOOTH",
"80 152 OFFCURVE",
"64 163 OFFCURVE",
"53 163 CURVE SMOOTH",
"25 163 OFFCURVE",
"3 101 OFFCURVE",
"4 66 CURVE SMOOTH",
"4 39 OFFCURVE",
"39 19 OFFCURVE",
"70 8 CURVE SMOOTH",
"99 -2 OFFCURVE",
"134 -8 OFFCURVE",
"170 -8 CURVE SMOOTH"
);
}
);
};
layerId = "373C5ECE-2403-4F88-B498-8D3B1E7E9A2C";
paths = (
{
closed = 1;
nodes = (
"319 -8 OFFCURVE",
"412 78 OFFCURVE",
"412 220 CURVE SMOOTH",
"412 307 OFFCURVE",
"370 356 OFFCURVE",
"297 403 CURVE SMOOTH",
"251 433 OFFCURVE",
"208 454 OFFCURVE",
"208 508 CURVE SMOOTH",
"208 526 OFFCURVE",
"213 576 OFFCURVE",
"285 576 CURVE SMOOTH",
"299 576 OFFCURVE",
"318 573 OFFCURVE",
"348 562 CURVE SMOOTH",
"357 559 OFFCURVE",
"369 555 OFFCURVE",
"378 555 CURVE SMOOTH",
"406 555 OFFCURVE",
"423 615 OFFCURVE",
"423 645 CURVE SMOOTH",
"423 659 OFFCURVE",
"414 671 OFFCURVE",
"399 680 CURVE SMOOTH",
"368 699 OFFCURVE",
"316 708 OFFCURVE",
"276 708 CURVE SMOOTH",
"151 708 OFFCURVE",
"52 624 OFFCURVE",
"52 492 CURVE SMOOTH",
"52 379 OFFCURVE",
"119 334 OFFCURVE",
"176 296 CURVE SMOOTH",
"219 268 OFFCURVE",
"256 243 OFFCURVE",
"256 195 CURVE SMOOTH",
"256 142 OFFCURVE",
"213 123 OFFCURVE",
"175 123 CURVE SMOOTH",
"145 123 OFFCURVE",
"121 132 OFFCURVE",
"102 141 CURVE SMOOTH",
"80 152 OFFCURVE",
"64 163 OFFCURVE",
"53 163 CURVE SMOOTH",
"25 163 OFFCURVE",
"3 101 OFFCURVE",
"4 66 CURVE SMOOTH",
"4 39 OFFCURVE",
"39 19 OFFCURVE",
"70 8 CURVE SMOOTH",
"99 -2 OFFCURVE",
"134 -8 OFFCURVE",
"170 -8 CURVE SMOOTH"
);
}
);
width = 437;
},
{
anchors = (
{
name = bottom;
position = "{198, 0}";
},
{
name = top;
position = "{278, 700}";
}
);
background = {
paths = (
{
closed = 1;
nodes = (
"201 706 OFFCURVE",
"97 641 OFFCURVE",
"83 509 CURVE SMOOTH",
"72 406 OFFCURVE",
"142 353 OFFCURVE",
"204 316 CURVE SMOOTH",
"260 283 OFFCURVE",
"299 254 OFFCURVE",
"292 190 CURVE SMOOTH",
"285 120 OFFCURVE",
"230 70 OFFCURVE",
"153 70 CURVE SMOOTH",
"74 70 OFFCURVE",
"40 123 OFFCURVE",
"29 123 CURVE SMOOTH",
"17 123 OFFCURVE",
"-14 104 OFFCURVE",
"-17 71 CURVE SMOOTH",
"-21 37 OFFCURVE",
"64 -6 OFFCURVE",
"148 -6 CURVE SMOOTH",
"253 -6 OFFCURVE",
"371 61 OFFCURVE",
"385 197 CURVE SMOOTH",
"396 300 OFFCURVE",
"336 339 OFFCURVE",
"270 383 CURVE SMOOTH",
"217 418 OFFCURVE",
"168 452 OFFCURVE",
"175 521 CURVE SMOOTH",
"183 596 OFFCURVE",
"251 628 OFFCURVE",
"302 628 CURVE SMOOTH",
"356 628 OFFCURVE",
"395 592 OFFCURVE",
"402 592 CURVE SMOOTH",
"412 592 OFFCURVE",
"444 633 OFFCURVE",
"445 646 CURVE SMOOTH",
"449 681 OFFCURVE",
"375 706 OFFCURVE",
"308 706 CURVE SMOOTH"
);
}
);
};
layerId = "E8E506BC-BBFD-46D4-BF6A-32B0AB7FBD03";
paths = (
{
closed = 1;
nodes = (
"318 -5 OFFCURVE",
"395 76 OFFCURVE",
"395 207 CURVE SMOOTH",
"395 303 OFFCURVE",
"328 354 OFFCURVE",
"257 394 CURVE SMOOTH",
"193 430 OFFCURVE",
"154 468 OFFCURVE",
"154 525 CURVE SMOOTH",
"154 613 OFFCURVE",
"227 634 OFFCURVE",
"282 634 CURVE SMOOTH",
"315 634 OFFCURVE",
"351 625 OFFCURVE",
"380 612 CURVE SMOOTH",
"385 610 OFFCURVE",
"390 607 OFFCURVE",
"394 607 CURVE SMOOTH",
"406 607 OFFCURVE",
"423 657 OFFCURVE",
"423 670 CURVE SMOOTH",
"423 674 OFFCURVE",
"422 678 OFFCURVE",
"417 681 CURVE SMOOTH",
"385 700 OFFCURVE",
"322 711 OFFCURVE",
"269 711 CURVE SMOOTH",
"146 711 OFFCURVE",
"67 629 OFFCURVE",
"67 509 CURVE SMOOTH",
"67 412 OFFCURVE",
"142 356 OFFCURVE",
"217 312 CURVE SMOOTH",
"266 283 OFFCURVE",
"306 249 OFFCURVE",
"306 188 CURVE SMOOTH",
"306 107 OFFCURVE",
"249 73 OFFCURVE",
"176 73 CURVE SMOOTH",
"133 73 OFFCURVE",
"91 89 OFFCURVE",
"64 100 CURVE SMOOTH",
"48 107 OFFCURVE",
"40 111 OFFCURVE",
"33 111 CURVE SMOOTH",
"20 111 OFFCURVE",
"12 88 OFFCURVE",
"12 69 CURVE SMOOTH",
"12 51 OFFCURVE",
"19 45 OFFCURVE",
"32 36 CURVE SMOOTH",
"68 13 OFFCURVE",
"130 -5 OFFCURVE",
"184 -5 CURVE SMOOTH"
);
}
);
width = 437;
},
{
anchors = (
{
name = bottom;
position = "{213, 0}";
},
{
name = top;
position = "{213, 700}";
}
);
associatedMasterId = "E8E506BC-BBFD-46D4-BF6A-32B0AB7FBD03";
layerId = "76F17502-367F-435E-B23E-ED9D928E777B";
name = "SemiCondensed Italic Condensed Regular";
paths = (
{
closed = 1;
nodes = (
"306 -5 OFFCURVE",
"393 57 OFFCURVE",
"393 177 CURVE SMOOTH",
"393 286 OFFCURVE",
"323 330 OFFCURVE",
"240 390 CURVE SMOOTH",
"178 435 OFFCURVE",
"130 463 OFFCURVE",
"130 528 CURVE SMOOTH",
"130 589 OFFCURVE",
"168 628 OFFCURVE",
"232 628 CURVE SMOOTH",
"291 628 OFFCURVE",
"332 594 OFFCURVE",
"343 594 CURVE SMOOTH",
"356 594 OFFCURVE",
"374 636 OFFCURVE",
"374 650 CURVE SMOOTH",
"374 677 OFFCURVE",
"288 705 OFFCURVE",
"231 705 CURVE SMOOTH",
"120 705 OFFCURVE",
"39 633 OFFCURVE",
"39 528 CURVE SMOOTH",
"39 427 OFFCURVE",
"102 375 OFFCURVE",
"180 322 CURVE SMOOTH",
"240 284 OFFCURVE",
"303 247 OFFCURVE",
"303 173 CURVE SMOOTH",
"303 111 OFFCURVE",
"260 72 OFFCURVE",
"199 72 CURVE SMOOTH",
"119 72 OFFCURVE",
"70 127 OFFCURVE",
"54 127 CURVE SMOOTH",
"40 127 OFFCURVE",
"17 82 OFFCURVE",
"17 68 CURVE SMOOTH",
"17 42 OFFCURVE",
"105 -5 OFFCURVE",
"197 -5 CURVE SMOOTH"
);
}
);
width = 423;
},
{
anchors = (
{
name = bottom;
position = "{211, 0}";
},
{
name = top;
position = "{211, 700}";
}
);
associatedMasterId = "373C5ECE-2403-4F88-B498-8D3B1E7E9A2C";
layerId = "6662946B-F990-402F-A6FD-22D24AB84B33";
name = "Bold SemiCondensed Italic Condensed Bold";
paths = (
{
closed = 1;
nodes = (
"319 -8 OFFCURVE",
"412 71 OFFCURVE",
"412 204 CURVE SMOOTH",
"412 310 OFFCURVE",
"344 361 OFFCURVE",
"271 408 CURVE SMOOTH",
"224 438 OFFCURVE",
"179 467 OFFCURVE",
"179 521 CURVE SMOOTH",
"179 547 OFFCURVE",
"192 573 OFFCURVE",
"243 573 CURVE SMOOTH",
"284 573 OFFCURVE",
"321 557 OFFCURVE",
"328 557 CURVE SMOOTH",
"350 557 OFFCURVE",
"386 623 OFFCURVE",
"386 651 CURVE SMOOTH",
"386 685 OFFCURVE",
"307 708 OFFCURVE",
"235 708 CURVE SMOOTH",
"112 708 OFFCURVE",
"26 628 OFFCURVE",
"26 507 CURVE SMOOTH",
"26 405 OFFCURVE",
"78 352 OFFCURVE",
"154 296 CURVE SMOOTH",
"210 259 OFFCURVE",
"259 239 OFFCURVE",
"259 191 CURVE SMOOTH",
"259 142 OFFCURVE",
"218 126 OFFCURVE",
"184 126 CURVE SMOOTH",
"127 126 OFFCURVE",
"87 158 OFFCURVE",
"68 158 CURVE SMOOTH",
"43 158 OFFCURVE",
"9 90 OFFCURVE",
"9 62 CURVE SMOOTH",
"9 26 OFFCURVE",
"102 -8 OFFCURVE",
"196 -8 CURVE SMOOTH"
);
}
);
width = 423;
},
{
anchors = (
{
name = bottom;
position = "{233, 0}";
},
{
name = top;
position = "{289, 700}";
}
);
associatedMasterId = "373C5ECE-2403-4F88-B498-8D3B1E7E9A2C";
background = {
anchors = (
{
name = bottom;
position = "{233, 0}";
},
{
name = top;
position = "{289, 700}";
}
);
paths = (
{
closed = 1;
nodes = (
"186 708 OFFCURVE",
"49 654 OFFCURVE",
"49 478 CURVE SMOOTH",
"49 376 OFFCURVE",
"106 334 OFFCURVE",
"167 304 CURVE SMOOTH",
"235 271 OFFCURVE",
"307 254 OFFCURVE",
"307 200 CURVE SMOOTH",
"307 137 OFFCURVE",
"249 123 OFFCURVE",
"206 123 CURVE SMOOTH",
"115 123 OFFCURVE",
"70 181 OFFCURVE",
"52 181 CURVE SMOOTH",
"41 181 OFFCURVE",
"26 171 OFFCURVE",
"26 70 CURVE SMOOTH",
"26 12 OFFCURVE",
"154 -8 OFFCURVE",
"218 -8 CURVE SMOOTH",
"329 -8 OFFCURVE",
"468 41 OFFCURVE",
"468 238 CURVE SMOOTH",
"468 337 OFFCURVE",
"402 379 OFFCURVE",
"337 408 CURVE SMOOTH",
"273 438 OFFCURVE",
"210 455 OFFCURVE",
"210 513 CURVE SMOOTH",
"210 535 OFFCURVE",
"222 576 OFFCURVE",
"309 576 CURVE SMOOTH",
"376 576 OFFCURVE",
"405 551 OFFCURVE",
"418 551 CURVE SMOOTH",
"442 551 OFFCURVE",
"482 614 OFFCURVE",
"482 640 CURVE SMOOTH",
"482 672 OFFCURVE",
"413 708 OFFCURVE",
"309 708 CURVE SMOOTH"
);
}
);
};
layerId = "A3B772F1-AA77-4C7D-A16D-E575A11EAB9A";
name = "Bold SemiCondensed Italic Jun 13 15, 20:40";
paths = (
{
closed = 1;
nodes = (
"186 708 OFFCURVE",
"49 654 OFFCURVE",
"49 478 CURVE SMOOTH",
"49 376 OFFCURVE",
"106 334 OFFCURVE",
"167 304 CURVE SMOOTH",
"235 271 OFFCURVE",
"307 254 OFFCURVE",
"307 200 CURVE SMOOTH",
"307 137 OFFCURVE",
"249 123 OFFCURVE",
"206 123 CURVE SMOOTH",
"115 123 OFFCURVE",
"70 181 OFFCURVE",
"52 181 CURVE SMOOTH",
"41 181 OFFCURVE",
"26 171 OFFCURVE",
"26 70 CURVE SMOOTH",
"26 12 OFFCURVE",
"154 -8 OFFCURVE",
"218 -8 CURVE SMOOTH",
"329 -8 OFFCURVE",
"468 41 OFFCURVE",
"468 238 CURVE SMOOTH",
"468 337 OFFCURVE",
"402 379 OFFCURVE",
"337 408 CURVE SMOOTH",
"273 438 OFFCURVE",
"210 455 OFFCURVE",
"210 513 CURVE SMOOTH",
"210 535 OFFCURVE",
"222 576 OFFCURVE",
"309 576 CURVE SMOOTH",
"376 576 OFFCURVE",
"405 551 OFFCURVE",
"418 551 CURVE SMOOTH",
"442 551 OFFCURVE",
"482 614 OFFCURVE",
"482 640 CURVE SMOOTH",
"482 672 OFFCURVE",
"413 708 OFFCURVE",
"309 708 CURVE SMOOTH"
);
}
);
width = 423;
}
);
leftKerningGroup = S;
rightKerningGroup = S;
unicode = 0053;
},
{
glyphname = Germandbls;
layers = (
{
layerId = "373C5ECE-2403-4F88-B498-8D3B1E7E9A2C";
paths = (
{
closed = 1;
nodes = (
"491 -8 OFFCURVE",
"566 79 OFFCURVE",
"566 224 CURVE SMOOTH",
"566 337 OFFCURVE",
"520 379 OFFCURVE",
"468 410 CURVE",
"576 590 LINE",
"577 592 OFFCURVE",
"577 594 OFFCURVE",
"577 598 CURVE SMOOTH",
"577 661 OFFCURVE",
"558 689 OFFCURVE",
"551 690 CURVE SMOOTH",
"498 699 OFFCURVE",
"416 708 OFFCURVE",
"360 708 CURVE SMOOTH",
"97 708 OFFCURVE",
"73 510 OFFCURVE",
"65 432 CURVE SMOOTH",
"23 30 LINE SMOOTH",
"21 9 OFFCURVE",
"37 -2 OFFCURVE",
"79 -2 CURVE SMOOTH",
"114 -2 LINE SMOOTH",
"156 -2 OFFCURVE",
"176 9 OFFCURVE",
"178 30 CURVE SMOOTH",
"220 431 LINE SMOOTH",
"225 482 OFFCURVE",
"238 576 OFFCURVE",
"337 576 CURVE SMOOTH",
"355 576 OFFCURVE",
"392 573 OFFCURVE",
"404 571 CURVE",
"304 407 LINE",
"303 405 OFFCURVE",
"302 401 OFFCURVE",
"301 397 CURVE SMOOTH",
"297 375 OFFCURVE",
"314 308 OFFCURVE",
"331 308 CURVE SMOOTH",
"347 308 LINE SMOOTH",
"392 308 OFFCURVE",
"415 273 OFFCURVE",
"415 210 CURVE SMOOTH",
"415 149 OFFCURVE",
"394 109 OFFCURVE",
"352 109 CURVE SMOOTH",
"317 109 OFFCURVE",
"280 136 OFFCURVE",
"267 136 CURVE SMOOTH",
"248 136 OFFCURVE",
"214 84 OFFCURVE",
"211 60 CURVE SMOOTH",
"204 14 OFFCURVE",
"304 -8 OFFCURVE",
"367 -8 CURVE SMOOTH"
);
}
);
width = 593;
},
{
layerId = "E8E506BC-BBFD-46D4-BF6A-32B0AB7FBD03";
paths = (
{
closed = 1;
nodes = (
"481 -6 OFFCURVE",
"550 78 OFFCURVE",
"550 210 CURVE SMOOTH",
"550 327 OFFCURVE",
"496 393 OFFCURVE",
"419 411 CURVE",
"557 606 LINE",
"560 609 OFFCURVE",
"561 613 OFFCURVE",
"561 618 CURVE SMOOTH",
"562 649 OFFCURVE",
"551 670 OFFCURVE",
"545 671 CURVE SMOOTH",
"502 686 OFFCURVE",
"431 704 OFFCURVE",
"354 705 CURVE SMOOTH",
"200 705 OFFCURVE",
"114 622 OFFCURVE",
"96 447 CURVE SMOOTH",
"52 20 LINE SMOOTH",
"51 6 OFFCURVE",
"60 -2 OFFCURVE",
"89 -2 CURVE SMOOTH",
"97 -2 LINE SMOOTH",
"128 -2 OFFCURVE",
"139 8 OFFCURVE",
"140 20 CURVE SMOOTH",
"184 446 LINE SMOOTH",
"190 508 OFFCURVE",
"204 630 OFFCURVE",
"352 630 CURVE SMOOTH",
"390 630 OFFCURVE",
"432 622 OFFCURVE",
"458 612 CURVE",
"311 401 LINE",
"307 398 OFFCURVE",
"307 391 OFFCURVE",
"306 389 CURVE SMOOTH",
"303 373 OFFCURVE",
"315 336 OFFCURVE",
"325 336 CURVE SMOOTH",
"360 336 LINE SMOOTH",
"421 336 OFFCURVE",
"463 296 OFFCURVE",
"463 207 CURVE SMOOTH",
"463 122 OFFCURVE",
"425 66 OFFCURVE",
"354 66 CURVE SMOOTH",
"297 66 OFFCURVE",
"259 101 OFFCURVE",
"241 101 CURVE SMOOTH",
"222 101 OFFCURVE",
"198 65 OFFCURVE",
"197 52 CURVE SMOOTH",
"195 29 OFFCURVE",
"272 -6 OFFCURVE",
"354 -6 CURVE SMOOTH"
);
}
);
width = 593;
}
);
leftKerningGroup = H;
unicode = 1E9E;
},
{
glyphname = Schwa;
layers = (
{
background = {
paths = (
{
closed = 1;
nodes = (
"457 -8 OFFCURVE",
"534 181 OFFCURVE",
"534 390 CURVE SMOOTH",
"534 624 OFFCURVE",
"437 708 OFFCURVE",
"294 708 CURVE SMOOTH",
"80 708 OFFCURVE",
"3 519 OFFCURVE",
"3 311 CURVE SMOOTH",
"3 75 OFFCURVE",
"103 -8 OFFCURVE",
"244 -8 CURVE SMOOTH"
);
},
{
closed = 1;
nodes = (
"195 123 OFFCURVE",
"161 167 OFFCURVE",
"161 307 CURVE SMOOTH",
"161 418 OFFCURVE",
"182 576 OFFCURVE",
"289 576 CURVE SMOOTH",
"345 576 OFFCURVE",
"377 533 OFFCURVE",
"377 394 CURVE SMOOTH",
"377 284 OFFCURVE",
"357 123 OFFCURVE",
"251 123 CURVE SMOOTH"
);
}
);
};
layerId = "373C5ECE-2403-4F88-B498-8D3B1E7E9A2C";
paths = (
{
closed = 1;
nodes = (
"432 -6 OFFCURVE",
"531 138 OFFCURVE",
"531 386 CURVE SMOOTH",
"531 603 OFFCURVE",
"445 708 OFFCURVE",
"281 708 CURVE SMOOTH",
"188 708 OFFCURVE",
"91 671 OFFCURVE",
"91 625 CURVE SMOOTH",
"91 606 OFFCURVE",
"108 550 OFFCURVE",
"129 550 CURVE SMOOTH",
"145 550 OFFCURVE",
"187 585 OFFCURVE",
"253 585 CURVE SMOOTH",
"347 585 OFFCURVE",
"381 521 OFFCURVE",
"381 393 CURVE SMOOTH",
"381 226 OFFCURVE",
"339 123 OFFCURVE",
"262 123 CURVE SMOOTH",
"214 123 OFFCURVE",
"188 156 OFFCURVE",
"188 219 CURVE SMOOTH",
"188 301 OFFCURVE",
"227 344 OFFCURVE",
"301 344 CURVE SMOOTH",
"341 344 OFFCURVE",
"388 332 OFFCURVE",
"415 317 CURVE",
"424 399 LINE",
"370 427 OFFCURVE",
"316 441 OFFCURVE",
"268 440 CURVE SMOOTH",
"129 439 OFFCURVE",
"41 348 OFFCURVE",
"41 213 CURVE SMOOTH",
"41 102 OFFCURVE",
"100 -6 OFFCURVE",
"251 -6 CURVE SMOOTH"
);
}
);
width = 560;
},
{
background = {
paths = (
{
closed = 1;
nodes = (
"440 -6 OFFCURVE",
"512 201 OFFCURVE",
"512 396 CURVE SMOOTH",
"512 622 OFFCURVE",
"415 706 OFFCURVE",
"283 706 CURVE SMOOTH",
"82 706 OFFCURVE",
"3 512 OFFCURVE",
"3 311 CURVE SMOOTH",
"3 124 OFFCURVE",
"71 -6 OFFCURVE",
"234 -6 CURVE SMOOTH"
);
},
{
closed = 1;
nodes = (
"133 70 OFFCURVE",
"96 168 OFFCURVE",
"96 308 CURVE SMOOTH",
"96 458 OFFCURVE",
"139 630 OFFCURVE",
"280 630 CURVE SMOOTH",
"364 630 OFFCURVE",
"421 569 OFFCURVE",
"421 398 CURVE SMOOTH",
"421 260 OFFCURVE",
"384 70 OFFCURVE",
"238 70 CURVE SMOOTH"
);
}
);
};
layerId = "E8E506BC-BBFD-46D4-BF6A-32B0AB7FBD03";
paths = (
{
closed = 1;
nodes = (
"418 -9 OFFCURVE",
"510 165 OFFCURVE",
"510 400 CURVE SMOOTH",
"510 612 OFFCURVE",
"435 706 OFFCURVE",
"283 706 CURVE SMOOTH",
"173 706 OFFCURVE",
"104 657 OFFCURVE",
"104 639 CURVE SMOOTH",
"104 631 OFFCURVE",
"118 594 OFFCURVE",
"130 594 CURVE SMOOTH",
"140 594 OFFCURVE",
"185 634 OFFCURVE",
"267 634 CURVE SMOOTH",
"382 634 OFFCURVE",
"419 557 OFFCURVE",
"419 402 CURVE SMOOTH",
"419 220 OFFCURVE",
"368 69 OFFCURVE",
"246 69 CURVE SMOOTH",
"182 69 OFFCURVE",
"143 110 OFFCURVE",
"143 202 CURVE SMOOTH",
"143 307 OFFCURVE",
"193 371 OFFCURVE",
"303 371 CURVE SMOOTH",
"346 371 OFFCURVE",
"402 361 OFFCURVE",
"444 347 CURVE",
"454 413 LINE",
"395 433 OFFCURVE",
"340 443 OFFCURVE",
"291 443 CURVE SMOOTH",
"137 443 OFFCURVE",
"55 345 OFFCURVE",
"55 199 CURVE SMOOTH",
"55 60 OFFCURVE",
"129 -9 OFFCURVE",
"241 -9 CURVE SMOOTH"
);
}
);
width = 560;
}
);
leftKerningGroup = O;
rightKerningGroup = O;
unicode = 018F;
},
{
glyphname = T;
layers = (
{
anchors = (
{
name = bottom;
position = "{200, 0}";
},
{
name = center;
position = "{237, 350}";
},
{
name = top;
position = "{273, 700}";
}
);
layerId = "373C5ECE-2403-4F88-B498-8D3B1E7E9A2C";
paths = (
{
closed = 1;
nodes = (
"219 -2 LINE SMOOTH",
"260 -2 OFFCURVE",
"278 9 OFFCURVE",
"280 30 CURVE SMOOTH",
"337 569 LINE",
"449 569 LINE SMOOTH",
"470 569 OFFCURVE",
"480 584 OFFCURVE",
"484 619 CURVE SMOOTH",
"488 650 LINE SMOOTH",
"492 685 OFFCURVE",
"484 700 OFFCURVE",
"463 700 CURVE SMOOTH",
"83 700 LINE SMOOTH",
"63 700 OFFCURVE",
"53 685 OFFCURVE",
"49 650 CURVE SMOOTH",
"45 619 LINE SMOOTH",
"41 584 OFFCURVE",
"49 569 OFFCURVE",
"69 569 CURVE SMOOTH",
"180 569 LINE",
"123 30 LINE SMOOTH",
"121 9 OFFCURVE",
"137 -2 OFFCURVE",
"178 -2 CURVE SMOOTH"
);
}
);
width = 454;
},
{
anchors = (
{
name = bottom;
position = "{200, 0}";
},
{
name = center;
position = "{235, 350}";
},
{
name = top;
position = "{272, 700}";
}
);
layerId = "E8E506BC-BBFD-46D4-BF6A-32B0AB7FBD03";
paths = (
{
closed = 1;
nodes = (
"207 -2 LINE SMOOTH",
"234 -2 OFFCURVE",
"246 6 OFFCURVE",
"247 20 CURVE SMOOTH",
"311 624 LINE",
"453 624 LINE SMOOTH",
"467 624 OFFCURVE",
"473 633 OFFCURVE",
"476 654 CURVE SMOOTH",
"478 670 LINE SMOOTH",
"481 691 OFFCURVE",
"475 700 OFFCURVE",
"461 700 CURVE SMOOTH",
"85 700 LINE SMOOTH",
"72 700 OFFCURVE",
"66 691 OFFCURVE",
"63 670 CURVE SMOOTH",
"61 654 LINE SMOOTH",
"58 633 OFFCURVE",
"64 624 OFFCURVE",
"77 624 CURVE SMOOTH",
"221 624 LINE",
"157 20 LINE SMOOTH",
"156 6 OFFCURVE",
"166 -2 OFFCURVE",
"193 -2 CURVE SMOOTH"
);
}
);
width = 454;
},
{
anchors = (
{
name = bottom;
position = "{220, 0}";
},
{
name = center;
position = "{220, 350}";
},
{
name = top;
position = "{220, 700}";
}
);
associatedMasterId = "E8E506BC-BBFD-46D4-BF6A-32B0AB7FBD03";
layerId = "76F17502-367F-435E-B23E-ED9D928E777B";
name = "SemiCondensed Italic Condensed Regular";
paths = (
{
closed = 1;
nodes = (
"228 -2 LINE SMOOTH",
"255 -2 OFFCURVE",
"266 6 OFFCURVE",
"266 20 CURVE SMOOTH",
"266 624 LINE",
"408 624 LINE SMOOTH",
"422 624 OFFCURVE",
"428 633 OFFCURVE",
"428 654 CURVE SMOOTH",
"428 670 LINE SMOOTH",
"428 691 OFFCURVE",
"422 700 OFFCURVE",
"408 700 CURVE SMOOTH",
"32 700 LINE SMOOTH",
"19 700 OFFCURVE",
"13 691 OFFCURVE",
"13 670 CURVE SMOOTH",
"13 654 LINE SMOOTH",
"13 633 OFFCURVE",
"19 624 OFFCURVE",
"32 624 CURVE SMOOTH",
"176 624 LINE",
"176 20 LINE SMOOTH",
"176 6 OFFCURVE",
"187 -2 OFFCURVE",
"214 -2 CURVE SMOOTH"
);
}
);
width = 440;
},
{
anchors = (
{
name = bottom;
position = "{220, 0}";
},
{
name = center;
position = "{220, 350}";
},
{
name = top;
position = "{220, 700}";
}
);
associatedMasterId = "373C5ECE-2403-4F88-B498-8D3B1E7E9A2C";
layerId = "6662946B-F990-402F-A6FD-22D24AB84B33";
name = "Bold SemiCondensed Italic Condensed Bold";
paths = (
{
closed = 1;
nodes = (
"240 -2 LINE SMOOTH",
"281 -2 OFFCURVE",
"298 9 OFFCURVE",
"298 30 CURVE SMOOTH",
"298 569 LINE",
"410 569 LINE SMOOTH",
"431 569 OFFCURVE",
"440 584 OFFCURVE",
"440 619 CURVE SMOOTH",
"440 650 LINE SMOOTH",
"440 685 OFFCURVE",
"431 700 OFFCURVE",
"410 700 CURVE SMOOTH",
"30 700 LINE SMOOTH",
"10 700 OFFCURVE",
"1 685 OFFCURVE",
"1 650 CURVE SMOOTH",
"1 619 LINE SMOOTH",
"1 584 OFFCURVE",
"10 569 OFFCURVE",
"30 569 CURVE SMOOTH",
"141 569 LINE",
"141 30 LINE SMOOTH",
"141 9 OFFCURVE",
"158 -2 OFFCURVE",
"199 -2 CURVE SMOOTH"
);
}
);
width = 440;
},
{
anchors = (
{
name = bottom;
position = "{234, 0}";
},
{
name = center;
position = "{275, 350}";
},
{
name = top;
position = "{309, 700}";
}
);
associatedMasterId = "373C5ECE-2403-4F88-B498-8D3B1E7E9A2C";
background = {
anchors = (
{
name = bottom;
position = "{234, 0}";
},
{
name = center;
position = "{275, 350}";
},
{
name = top;
position = "{309, 700}";
}
);
paths = (
{
closed = 1;
nodes = (
"72 700 LINE SMOOTH",
"43 700 OFFCURVE",
"34 661 OFFCURVE",
"34 609 CURVE SMOOTH",
"34 581 OFFCURVE",
"42 569 OFFCURVE",
"60 569 CURVE SMOOTH",
"219 569 LINE",
"162 29 LINE",
"162 0 OFFCURVE",
"202 -2 OFFCURVE",
"219 -2 CURVE SMOOTH",
"254 -2 LINE SMOOTH",
"293 -2 OFFCURVE",
"315 9 OFFCURVE",
"317 30 CURVE SMOOTH",
"374 569 LINE",
"534 569 LINE SMOOTH",
"563 569 OFFCURVE",
"572 608 OFFCURVE",
"572 660 CURVE SMOOTH",
"572 688 OFFCURVE",
"564 700 OFFCURVE",
"546 700 CURVE SMOOTH"
);
}
);
};
layerId = "9EA1D90E-C920-49F3-BE51-D7CE49F57E62";
name = "Bold SemiCondensed Italic Jun 13 15, 20:40";
paths = (
{
closed = 1;
nodes = (
"72 700 LINE SMOOTH",
"43 700 OFFCURVE",
"34 661 OFFCURVE",
"34 609 CURVE SMOOTH",
"34 581 OFFCURVE",
"42 569 OFFCURVE",
"60 569 CURVE SMOOTH",
"219 569 LINE",
"162 29 LINE",
"162 0 OFFCURVE",
"202 -2 OFFCURVE",
"219 -2 CURVE SMOOTH",
"254 -2 LINE SMOOTH",
"293 -2 OFFCURVE",
"315 9 OFFCURVE",
"317 30 CURVE SMOOTH",
"374 569 LINE",
"534 569 LINE SMOOTH",
"563 569 OFFCURVE",
"572 608 OFFCURVE",
"572 660 CURVE SMOOTH",
"572 688 OFFCURVE",
"564 700 OFFCURVE",
"546 700 CURVE SMOOTH"
);
}
);
width = 440;
}
);
leftKerningGroup = T;
rightKerningGroup = T;
unicode = 0054;
},
{
glyphname = U;
layers = (
{
anchors = (
{
name = bottom;
position = "{265, 0}";
},
{
name = ogonek;
position = "{303, 0}";
},
{
name = top;
position = "{339, 700}";
},
{
name = topright;
position = "{481, 702}";
}
);
layerId = "373C5ECE-2403-4F88-B498-8D3B1E7E9A2C";
paths = (
{
closed = 1;
nodes = (
"413 -8 OFFCURVE",
"512 70 OFFCURVE",
"526 205 CURVE SMOOTH",
"575 670 LINE SMOOTH",
"577 691 OFFCURVE",
"561 702 OFFCURVE",
"520 702 CURVE SMOOTH",
"481 702 LINE SMOOTH",
"442 702 OFFCURVE",
"422 691 OFFCURVE",
"420 670 CURVE SMOOTH",
"372 215 LINE SMOOTH",
"365 154 OFFCURVE",
"332 123 OFFCURVE",
"277 123 CURVE SMOOTH",
"224 123 OFFCURVE",
"196 162 OFFCURVE",
"202 215 CURVE SMOOTH",
"250 670 LINE SMOOTH",
"252 691 OFFCURVE",
"236 702 OFFCURVE",
"195 702 CURVE SMOOTH",
"155 702 LINE SMOOTH",
"114 702 OFFCURVE",
"96 691 OFFCURVE",
"94 670 CURVE SMOOTH",
"45 205 LINE SMOOTH",
"31 70 OFFCURVE",
"114 -8 OFFCURVE",
"264 -8 CURVE SMOOTH"
);
}
);
width = 583;
},
{
anchors = (
{
name = bottom;
position = "{265, 0}";
},
{
name = ogonek;
position = "{313, 0}";
},
{
name = top;
position = "{340, 702}";
},
{
name = topright;
position = "{509, 702}";
}
);
layerId = "E8E506BC-BBFD-46D4-BF6A-32B0AB7FBD03";
paths = (
{
closed = 1;
nodes = (
"407 -6 OFFCURVE",
"495 69 OFFCURVE",
"508 195 CURVE SMOOTH",
"559 680 LINE SMOOTH",
"560 694 OFFCURVE",
"550 702 OFFCURVE",
"523 702 CURVE SMOOTH",
"509 702 LINE SMOOTH",
"483 702 OFFCURVE",
"470 694 OFFCURVE",
"469 680 CURVE SMOOTH",
"418 192 LINE SMOOTH",
"409 111 OFFCURVE",
"359 70 OFFCURVE",
"272 70 CURVE SMOOTH",
"194 70 OFFCURVE",
"143 120 OFFCURVE",
"151 192 CURVE SMOOTH",
"202 680 LINE SMOOTH",
"203 694 OFFCURVE",
"193 702 OFFCURVE",
"166 702 CURVE SMOOTH",
"152 702 LINE SMOOTH",
"125 702 OFFCURVE",
"113 694 OFFCURVE",
"112 680 CURVE SMOOTH",
"61 195 LINE SMOOTH",
"48 69 OFFCURVE",
"120 -6 OFFCURVE",
"264 -6 CURVE SMOOTH"
);
}
);
width = 583;
},
{
anchors = (
{
name = bottom;
position = "{286, 0}";
},
{
name = horn;
position = "{462, 702}";
},
{
name = ogonek;
position = "{411, 22}";
},
{
name = top;
position = "{285, 700}";
}
);
associatedMasterId = "E8E506BC-BBFD-46D4-BF6A-32B0AB7FBD03";
layerId = "76F17502-367F-435E-B23E-ED9D928E777B";
name = "SemiCondensed Italic Condensed Regular";
paths = (
{
closed = 1;
nodes = (
"428 -6 OFFCURVE",
"508 69 OFFCURVE",
"508 195 CURVE SMOOTH",
"508 680 LINE SMOOTH",
"508 694 OFFCURVE",
"497 702 OFFCURVE",
"470 702 CURVE SMOOTH",
"456 702 LINE SMOOTH",
"430 702 OFFCURVE",
"418 694 OFFCURVE",
"418 680 CURVE SMOOTH",
"418 192 LINE SMOOTH",
"418 121 OFFCURVE",
"363 70 OFFCURVE",
"285 70 CURVE SMOOTH",
"207 70 OFFCURVE",
"151 120 OFFCURVE",
"151 192 CURVE SMOOTH",
"151 680 LINE SMOOTH",
"151 694 OFFCURVE",
"140 702 OFFCURVE",
"113 702 CURVE SMOOTH",
"99 702 LINE SMOOTH",
"72 702 OFFCURVE",
"61 694 OFFCURVE",
"61 680 CURVE SMOOTH",
"61 195 LINE SMOOTH",
"61 69 OFFCURVE",
"141 -6 OFFCURVE",
"285 -6 CURVE SMOOTH"
);
}
);
width = 569;
},
{
anchors = (
{
name = bottom;
position = "{285, 0}";
},
{
name = horn;
position = "{444, 702}";
},
{
name = ogonek;
position = "{431, 27}";
},
{
name = top;
position = "{285, 700}";
}
);
associatedMasterId = "373C5ECE-2403-4F88-B498-8D3B1E7E9A2C";
layerId = "6662946B-F990-402F-A6FD-22D24AB84B33";
name = "Bold SemiCondensed Italic Condensed Bold";
paths = (
{
closed = 1;
nodes = (
"435 -8 OFFCURVE",
"525 70 OFFCURVE",
"525 205 CURVE SMOOTH",
"525 670 LINE SMOOTH",
"525 691 OFFCURVE",
"508 702 OFFCURVE",
"467 702 CURVE SMOOTH",
"428 702 LINE SMOOTH",
"388 702 OFFCURVE",
"370 691 OFFCURVE",
"370 670 CURVE SMOOTH",
"370 215 LINE SMOOTH",
"370 162 OFFCURVE",
"337 123 OFFCURVE",
"285 123 CURVE SMOOTH",
"232 123 OFFCURVE",
"200 162 OFFCURVE",
"200 215 CURVE SMOOTH",
"200 670 LINE SMOOTH",
"200 691 OFFCURVE",
"183 702 OFFCURVE",
"142 702 CURVE SMOOTH",
"102 702 LINE SMOOTH",
"61 702 OFFCURVE",
"44 691 OFFCURVE",
"44 670 CURVE SMOOTH",
"44 205 LINE SMOOTH",
"44 70 OFFCURVE",
"135 -8 OFFCURVE",
"285 -8 CURVE SMOOTH"
);
}
);
width = 569;
},
{
anchors = (
{
name = bottom;
position = "{317, 0}";
},
{
name = horn;
position = "{589, 702}";
},
{
name = ogonek;
position = "{405, 0}";
},
{
name = top;
position = "{396, 700}";
}
);
associatedMasterId = "373C5ECE-2403-4F88-B498-8D3B1E7E9A2C";
background = {
anchors = (
{
name = bottom;
position = "{317, 0}";
},
{
name = horn;
position = "{589, 702}";
},
{
name = ogonek;
position = "{405, 0}";
},
{
name = top;
position = "{396, 700}";
}
);
paths = (
{
closed = 1;
nodes = (
"589 702 LINE SMOOTH",
"548 702 OFFCURVE",
"527 691 OFFCURVE",
"525 670 CURVE SMOOTH",
"481 244 LINE SMOOTH",
"474 174 OFFCURVE",
"411 123 OFFCURVE",
"331 123 CURVE SMOOTH",
"256 123 OFFCURVE",
"207 167 OFFCURVE",
"207 229 CURVE SMOOTH",
"207 234 OFFCURVE",
"207 239 OFFCURVE",
"252 670 CURVE",
"252 690 OFFCURVE",
"239 702 OFFCURVE",
"196 702 CURVE SMOOTH",
"162 702 LINE SMOOTH",
"121 702 OFFCURVE",
"100 691 OFFCURVE",
"98 670 CURVE SMOOTH",
"52 222 OFFCURVE",
"51 221 OFFCURVE",
"51 201 CURVE SMOOTH",
"51 67 OFFCURVE",
"148 -8 OFFCURVE",
"317 -8 CURVE SMOOTH",
"499 -8 OFFCURVE",
"617 80 OFFCURVE",
"633 234 CURVE SMOOTH",
"678 670 LINE",
"678 690 OFFCURVE",
"665 702 OFFCURVE",
"622 702 CURVE SMOOTH"
);
}
);
};
layerId = "394FE776-7EEC-48D6-BF9B-ADA6926D01E1";
name = "Bold SemiCondensed Italic Jun 13 15, 20:40";
paths = (
{
closed = 1;
nodes = (
"589 702 LINE SMOOTH",
"548 702 OFFCURVE",
"527 691 OFFCURVE",
"525 670 CURVE SMOOTH",
"481 244 LINE SMOOTH",
"474 174 OFFCURVE",
"411 123 OFFCURVE",
"331 123 CURVE SMOOTH",
"256 123 OFFCURVE",
"207 167 OFFCURVE",
"207 229 CURVE SMOOTH",
"207 234 OFFCURVE",
"207 239 OFFCURVE",
"252 670 CURVE",
"252 690 OFFCURVE",
"239 702 OFFCURVE",
"196 702 CURVE SMOOTH",
"162 702 LINE SMOOTH",
"121 702 OFFCURVE",
"100 691 OFFCURVE",
"98 670 CURVE SMOOTH",
"52 222 OFFCURVE",
"51 221 OFFCURVE",
"51 201 CURVE SMOOTH",
"51 67 OFFCURVE",
"148 -8 OFFCURVE",
"317 -8 CURVE SMOOTH",
"499 -8 OFFCURVE",
"617 80 OFFCURVE",
"633 234 CURVE SMOOTH",
"678 670 LINE",
"678 690 OFFCURVE",
"665 702 OFFCURVE",
"622 702 CURVE SMOOTH"
);
}
);
width = 569;
}
);
leftKerningGroup = U;
rightKerningGroup = U;
unicode = 0055;
},
{
glyphname = V;
layers = (
{
background = {
paths = (
{
closed = 1;
nodes = (
"264 -2 LINE SMOOTH",
"292 -2 OFFCURVE",
"314 3 OFFCURVE",
"319 19 CURVE SMOOTH",
"542 662 LINE SMOOTH",
"544 669 OFFCURVE",
"546 675 OFFCURVE",
"547 680 CURVE SMOOTH",
"550 694 OFFCURVE",
"531 702 OFFCURVE",
"492 702 CURVE SMOOTH",
"455 702 LINE SMOOTH",
"427 702 OFFCURVE",
"404 695 OFFCURVE",
"397 673 CURVE SMOOTH",
"261 221 LINE",
"244 152 LINE",
"240 152 LINE",
"239 221 LINE",
"200 673 LINE SMOOTH",
"198 695 OFFCURVE",
"176 702 OFFCURVE",
"148 702 CURVE SMOOTH",
"110 702 LINE SMOOTH",
"71 702 OFFCURVE",
"50 694 OFFCURVE",
"50 680 CURVE SMOOTH",
"50 676 OFFCURVE",
"51 669 OFFCURVE",
"142 19 CURVE SMOOTH",
"144 3 OFFCURVE",
"165 -2 OFFCURVE",
"193 -2 CURVE SMOOTH"
);
}
);
};
layerId = "373C5ECE-2403-4F88-B498-8D3B1E7E9A2C";
paths = (
{
closed = 1;
nodes = (
"264 -2 LINE SMOOTH",
"292 -2 OFFCURVE",
"314 3 OFFCURVE",
"319 19 CURVE SMOOTH",
"542 662 LINE SMOOTH",
"544 669 OFFCURVE",
"546 675 OFFCURVE",
"547 680 CURVE SMOOTH",
"550 694 OFFCURVE",
"531 702 OFFCURVE",
"492 702 CURVE SMOOTH",
"455 702 LINE SMOOTH",
"427 702 OFFCURVE",
"404 695 OFFCURVE",
"397 673 CURVE SMOOTH",
"272 257 LINE SMOOTH",
"263 229 OFFCURVE",
"252 179 OFFCURVE",
"245 142 CURVE",
"241 142 LINE",
"241 174 OFFCURVE",
"239 225 OFFCURVE",
"236 261 CURVE SMOOTH",
"200 673 LINE SMOOTH",
"198 695 OFFCURVE",
"176 702 OFFCURVE",
"148 702 CURVE SMOOTH",
"110 702 LINE SMOOTH",
"71 702 OFFCURVE",
"48 694 OFFCURVE",
"50 678 CURVE SMOOTH",
"142 19 LINE SMOOTH",
"144 3 OFFCURVE",
"165 -2 OFFCURVE",
"193 -2 CURVE SMOOTH"
);
}
);
width = 508;
},
{
background = {
paths = (
{
closed = 1;
nodes = (
"246 -2 LINE SMOOTH",
"265 -2 OFFCURVE",
"281 2 OFFCURVE",
"285 14 CURVE SMOOTH",
"529 671 LINE SMOOTH",
"531 677 OFFCURVE",
"533 681 OFFCURVE",
"533 685 CURVE SMOOTH",
"533 696 OFFCURVE",
"522 702 OFFCURVE",
"495 702 CURVE SMOOTH",
"483 702 LINE SMOOTH",
"464 702 OFFCURVE",
"448 698 OFFCURVE",
"444 686 CURVE SMOOTH",
"254 155 LINE",
"239 102 LINE",
"236 102 LINE",
"233 154 LINE",
"155 686 LINE SMOOTH",
"153 698 OFFCURVE",
"139 702 OFFCURVE",
"120 702 CURVE SMOOTH",
"106 702 LINE SMOOTH",
"78 702 OFFCURVE",
"62 695 OFFCURVE",
"64 685 CURVE SMOOTH",
"176 14 LINE",
"178 2 OFFCURVE",
"191 -2 OFFCURVE",
"210 -2 CURVE SMOOTH"
);
}
);
};
layerId = "E8E506BC-BBFD-46D4-BF6A-32B0AB7FBD03";
paths = (
{
closed = 1;
nodes = (
"246 -2 LINE SMOOTH",
"265 -2 OFFCURVE",
"281 2 OFFCURVE",
"285 14 CURVE SMOOTH",
"529 671 LINE SMOOTH",
"531 677 OFFCURVE",
"533 681 OFFCURVE",
"533 685 CURVE SMOOTH",
"533 696 OFFCURVE",
"522 702 OFFCURVE",
"495 702 CURVE SMOOTH",
"483 702 LINE SMOOTH",
"464 702 OFFCURVE",
"448 698 OFFCURVE",
"444 686 CURVE SMOOTH",
"268 191 LINE SMOOTH",
"261 170 OFFCURVE",
"249 130 OFFCURVE",
"241 97 CURVE",
"238 97 LINE",
"237 117 OFFCURVE",
"233 158 OFFCURVE",
"228 194 CURVE SMOOTH",
"155 686 LINE SMOOTH",
"153 698 OFFCURVE",
"139 702 OFFCURVE",
"120 702 CURVE SMOOTH",
"106 702 LINE SMOOTH",
"78 702 OFFCURVE",
"62 695 OFFCURVE",
"64 680 CURVE SMOOTH",
"176 16 LINE SMOOTH",
"178 2 OFFCURVE",
"191 -2 OFFCURVE",
"210 -2 CURVE SMOOTH"
);
}
);
width = 508;
},
{
associatedMasterId = "E8E506BC-BBFD-46D4-BF6A-32B0AB7FBD03";
layerId = "76F17502-367F-435E-B23E-ED9D928E777B";
name = "SemiCondensed Italic Condensed Regular";
paths = (
{
closed = 1;
nodes = (
"270 -2 LINE SMOOTH",
"289 -2 OFFCURVE",
"304 2 OFFCURVE",
"307 14 CURVE SMOOTH",
"478 671 LINE SMOOTH",
"480 677 OFFCURVE",
"481 681 OFFCURVE",
"481 685 CURVE SMOOTH",
"481 696 OFFCURVE",
"468 702 OFFCURVE",
"441 702 CURVE SMOOTH",
"429 702 LINE SMOOTH",
"410 702 OFFCURVE",
"395 698 OFFCURVE",
"392 686 CURVE SMOOTH",
"257 155 LINE",
"248 102 LINE",
"245 102 LINE",
"237 154 LINE",
"103 686 LINE SMOOTH",
"99 698 OFFCURVE",
"85 702 OFFCURVE",
"66 702 CURVE SMOOTH",
"52 702 LINE SMOOTH",
"24 702 OFFCURVE",
"12 695 OFFCURVE",
"12 685 CURVE SMOOTH",
"12 681 OFFCURVE",
"14 677 OFFCURVE",
"15 672 CURVE SMOOTH",
"186 14 LINE SMOOTH",
"189 2 OFFCURVE",
"203 -2 OFFCURVE",
"222 -2 CURVE SMOOTH"
);
}
);
width = 494;
},
{
associatedMasterId = "373C5ECE-2403-4F88-B498-8D3B1E7E9A2C";
layerId = "6662946B-F990-402F-A6FD-22D24AB84B33";
name = "Bold SemiCondensed Italic Condensed Bold";
paths = (
{
closed = 1;
nodes = (
"286 -2 LINE SMOOTH",
"314 -2 OFFCURVE",
"335 3 OFFCURVE",
"339 19 CURVE SMOOTH",
"491 662 LINE SMOOTH",
"493 669 OFFCURVE",
"494 675 OFFCURVE",
"494 680 CURVE SMOOTH",
"494 694 OFFCURVE",
"476 702 OFFCURVE",
"437 702 CURVE SMOOTH",
"400 702 LINE SMOOTH",
"372 702 OFFCURVE",
"349 695 OFFCURVE",
"345 673 CURVE SMOOTH",
"255 251 LINE",
"246 182 LINE",
"242 182 LINE",
"233 251 LINE",
"148 673 LINE SMOOTH",
"144 695 OFFCURVE",
"121 702 OFFCURVE",
"93 702 CURVE SMOOTH",
"55 702 LINE SMOOTH",
"16 702 OFFCURVE",
"-3 694 OFFCURVE",
"-3 680 CURVE SMOOTH",
"-3 675 OFFCURVE",
"-1 669 OFFCURVE",
"1 662 CURVE SMOOTH",
"153 19 LINE SMOOTH",
"157 3 OFFCURVE",
"178 -2 OFFCURVE",
"206 -2 CURVE SMOOTH"
);
}
);
width = 494;
},
{
associatedMasterId = "373C5ECE-2403-4F88-B498-8D3B1E7E9A2C";
background = {
paths = (
{
closed = 1;
nodes = (
"553 702 LINE SMOOTH",
"525 702 OFFCURVE",
"500 694 OFFCURVE",
"491 673 CURVE SMOOTH",
"308 242 LINE",
"292 205 LINE",
"288 205 LINE",
"281 241 LINE",
"191 673 LINE SMOOTH",
"186 695 OFFCURVE",
"164 702 OFFCURVE",
"135 702 CURVE SMOOTH",
"102 702 LINE SMOOTH",
"74 702 OFFCURVE",
"39 699 OFFCURVE",
"39 673 CURVE SMOOTH",
"39 670 OFFCURVE",
"40 668 OFFCURVE",
"190 19 CURVE SMOOTH",
"194 3 OFFCURVE",
"214 -2 OFFCURVE",
"244 -2 CURVE SMOOTH",
"296 -2 LINE SMOOTH",
"325 -2 OFFCURVE",
"347 3 OFFCURVE",
"354 19 CURVE SMOOTH",
"637 662 LINE SMOOTH",
"640 668 OFFCURVE",
"641 673 OFFCURVE",
"641 678 CURVE SMOOTH",
"641 701 OFFCURVE",
"607 702 OFFCURVE",
"584 702 CURVE SMOOTH"
);
}
);
};
layerId = "A1F3C235-F6CB-4642-9432-BD69339FE379";
name = "Bold SemiCondensed Italic Jun 13 15, 20:40";
paths = (
{
closed = 1;
nodes = (
"553 702 LINE SMOOTH",
"525 702 OFFCURVE",
"500 694 OFFCURVE",
"491 673 CURVE SMOOTH",
"308 242 LINE",
"292 205 LINE",
"288 205 LINE",
"281 241 LINE",
"191 673 LINE SMOOTH",
"186 695 OFFCURVE",
"164 702 OFFCURVE",
"135 702 CURVE SMOOTH",
"102 702 LINE SMOOTH",
"74 702 OFFCURVE",
"39 699 OFFCURVE",
"39 673 CURVE SMOOTH",
"39 670 OFFCURVE",
"40 668 OFFCURVE",
"190 19 CURVE SMOOTH",
"194 3 OFFCURVE",
"214 -2 OFFCURVE",
"244 -2 CURVE SMOOTH",
"296 -2 LINE SMOOTH",
"325 -2 OFFCURVE",
"347 3 OFFCURVE",
"354 19 CURVE SMOOTH",
"637 662 LINE SMOOTH",
"640 668 OFFCURVE",
"641 673 OFFCURVE",
"641 678 CURVE SMOOTH",
"641 701 OFFCURVE",
"607 702 OFFCURVE",
"584 702 CURVE SMOOTH"
);
}
);
width = 494;
}
);
leftKerningGroup = V;
rightKerningGroup = V;
unicode = 0056;
},
